<?xml version="1.0" standalone="no"?>
<!DOCTYPE svg PUBLIC "-//W3C//DTD SVG 1.1//EN" "http://www.w3.org/Graphics/SVG/1.1/DTD/svg11.dtd" >
<svg xmlns="http://www.w3.org/2000/svg" xmlns:xlink="http://www.w3.org/1999/xlink" version="1.1">
<metadata></metadata>
<defs>
<font id="playfair_displaybold_italic" horiz-adv-x="798" >
<font-face units-per-em="2048" ascent="1638" descent="-410" />
<missing-glyph horiz-adv-x="522" />
<glyph unicode="IJ" horiz-adv-x="1732" d="M33 0l10 41q70 4 104.5 16.5t56 47t46.5 112.5l225 746q-123 27 -196.5 94t-73.5 180q0 125 93 200.5t261 75.5q119 0 209 -26.5t209 -79.5q123 -51 205 -75.5t190 -24.5q209 0 406 79q78 119 129 119q16 0 26 -10q13 -13 13 -25q0 -49 -150 -106q-111 -98 -182.5 -245.5 t-130.5 -368.5h213l-8 -41h-215q-8 -23 -15 -54l-125 -522q-57 -231 -202.5 -374.5t-397.5 -143.5q-131 0 -210 38t-79 120q0 66 46.5 108.5t125.5 42.5q70 0 115 -33.5t45 -93.5q0 -90 -110 -141q18 -6 57 -6q78 0 126 58.5t76.5 147.5t80.5 287l110 420q23 82 45 146h-266 l8 41h275q55 133 136 233t175 177t248 181q-84 -27 -221 -86q-115 -49 -189 -71.5t-170 -22.5q-80 0 -146.5 12.5t-179.5 38.5q-92 25 -163.5 38.5t-151.5 13.5q-164 0 -164 -115q0 -76 81 -117t212 -41q98 0 169 18.5t140 57.5l17 -35q-92 -47 -170 -65l-226 -750 q-20 -61 -20 -100q0 -41 31.5 -57.5t109.5 -18.5l-8 -41q-119 6 -334 6q-213 0 -321 -6z" />
<glyph unicode="ij" horiz-adv-x="1304" d="M51 721l58 156q76 211 284 210q94 0 137 -45t43 -120q0 -57 -22 -121l-215 -627q-8 -25 -8 -49q0 -31 17 -48.5t52 -17.5q47 0 90 32t72 97q31 68 46.5 141.5t37.5 207.5q18 121 34.5 198.5t45.5 145.5q45 111 130 158.5t189 47.5q100 0 144.5 -47t44.5 -125 q0 -45 -19 -114l-155 -565q-61 -219 -133 -344t-176 -187q-121 -90 -291 -90q-98 0 -146.5 31.5t-48.5 89.5q0 59 46 104t110 45q55 0 88 -31.5t33 -76.5q0 -35 -20.5 -71t-57.5 -60q78 10 125 59t78 162l286 1018q6 25 6 45q0 57 -51 57q-49 0 -88 -38t-72 -122 q-33 -92 -59 -280q-20 -133 -40.5 -224.5t-57.5 -170.5q-47 -102 -124 -141.5t-175 -39.5q-113 0 -172.5 49.5t-59.5 139.5q0 53 27 137l201 588q14 37 14 63q0 39 -37 39t-67.5 -38t-63.5 -124l-41 -104h-39zM373 1391q0 86 59.5 139t151.5 53q72 0 111.5 -32.5t39.5 -92.5 q0 -80 -61.5 -135t-151.5 -55q-72 0 -110.5 31.5t-38.5 91.5zM1042 1391q0 86 59.5 139t151.5 53q72 0 112 -32.5t40 -92.5q0 -80 -61.5 -135t-151.5 -55q-72 0 -111 31.5t-39 91.5z" />
<glyph unicode="&#xfb01;" horiz-adv-x="1234" d="M-96 -385l385 1401h-176l12 41h176q43 156 108.5 259t159.5 163q100 66 219 94.5t267 28.5q141 0 207 -58q47 -35 41 -96q-4 -80 -64.5 -130t-146.5 -50q-72 0 -111 32.5t-39 88.5q0 72 38 117.5t101 62.5h-26q-150 0 -246 -64q-70 -45 -114 -128t-83 -228l-24 -92h297 q172 4 297 30l-269 -913q-12 -37 -12 -59q0 -43 39 -43q33 0 63.5 34.5t65.5 126.5l39 99h39l-53 -150q-39 -113 -118 -162t-165 -49q-90 0 -133 45t-43 127q0 72 27 154l210 719h-297l-374 -1372q-172 -2 -297 -29z" />
<glyph unicode="&#xfb02;" horiz-adv-x="1253" d="M-94 -385l379 1401h-172l12 41h172q37 135 88 226t125 149q147 113 371 112h4q141 2 253.5 22.5t221.5 61.5l-430 -1454q-8 -27 -8 -51q0 -51 41 -51q66 0 124 161l37 99h39l-51 -150q-41 -115 -113.5 -163t-160.5 -48q-92 0 -138.5 48.5t-46.5 134.5q0 63 25 143 l321 1069q10 37 11 59q0 41 -32 60.5t-104 19.5q-70 0 -124 -37q-41 -27 -68 -84t-53 -159l-45 -168h194l-12 -41h-195l-370 -1372q-170 -2 -295 -29z" />
<glyph unicode="Th" horiz-adv-x="2412" d="M178 1198q0 57 31 111.5t102 87.5q98 49 275 49q92 0 177 -8t230 -27q227 -31 353 -31q82 0 139 8.5t108 26.5l43 156q170 12 306 57l-273 -999q74 174 145.5 274.5t150.5 142t177 41.5q88 0 131 -44t43 -123q0 -57 -26 -142l-201 -604q-12 -33 -12 -57q0 -45 41 -45 q70 0 127 161l36 99h39l-51 -150q-74 -211 -274 -211q-92 0 -139.5 43t-47.5 125q0 70 31 158l182 553q20 57 21 90q0 45 -43 45q-66 0 -152 -115.5t-176 -334t-168 -515.5v5l-6 -25h-289l373 1370q-100 -31 -254 -31q-76 0 -201 15l-295 -1116q-16 -61 -16 -95 q0 -53 38 -75.5t132 -26.5l-8 -41q-129 6 -379 6q-244 0 -360 -6l8 41q88 4 136 21.5t75.5 57.5t48.5 118l307 1155q-125 16 -221 16q-168 0 -232 -35q55 -16 90 -60t35 -106q0 -72 -45 -122t-114 -50q-70 0 -109 46t-39 116z" />
<glyph unicode="fb" horiz-adv-x="1773" d="M-94 -385l381 1401h-174l12 41h172q72 248 213 367.5t393 119.5q135 2 243.5 22.5t209.5 61.5l-242 -883q80 178 164 260t184 82q125 0 188.5 -80.5t63.5 -234.5q0 -168 -77.5 -355.5t-223 -316.5t-336.5 -129q-57 0 -104 23.5t-68 62.5q-57 -4 -121.5 -27.5 t-146.5 -62.5l-31 15q27 55 43 120l348 1264q8 41 9 57q0 41 -27 61.5t-86 20.5q-92 0 -151.5 -50t-98.5 -177l-59 -221h194l-12 -41h-195l-370 -1372q-170 -2 -295 -29zM930 76q39 -45 92 -45q96 0 187 131t148.5 322.5t57.5 353.5q0 76 -17.5 108.5t-49.5 32.5 q-63 0 -145.5 -126t-145.5 -316z" />
<glyph unicode="ffb" horiz-adv-x="2416" d="M-76 -385l373 1372l8 29h-199l13 41h198q41 121 97.5 210t122.5 140q143 113 346 113q88 0 159.5 -26t118.5 -64q143 115 385 114q135 2 243.5 22.5t209.5 61.5l-242 -883q80 178 164 260t184 82q125 0 188.5 -80.5t63.5 -234.5q0 -168 -77.5 -355.5t-223 -316.5 t-336.5 -129q-57 0 -104 23.5t-68 62.5q-57 -4 -121.5 -27.5t-146.5 -62.5l-31 15q27 55 43 120l348 1264q8 41 9 57q0 41 -27 61.5t-86 20.5q-92 0 -151.5 -50t-98.5 -177l-59 -221h194l-12 -41h-195l-370 -1372q-170 -2 -295 -29l381 1401h-336l-373 -1372 q-172 -2 -297 -29zM606 1057h334q66 233 193 350q-74 59 -183 59q-129 0 -204.5 -87t-129.5 -283zM1573 76q39 -45 92 -45q96 0 187.5 131t148.5 322.5t57 353.5q0 76 -17.5 108.5t-49.5 32.5q-63 0 -145.5 -126t-145.5 -316z" />
<glyph unicode="ffh" horiz-adv-x="2453" d="M-76 -385l373 1372l8 29h-199l13 41h198q80 238 220 350q139 113 346 113q168 0 270 -90q145 115 389 114q135 2 243.5 22.5t209.5 61.5l-271 -962q104 236 211 328.5t248 92.5q88 0 130 -45t42 -122q0 -63 -24 -142l-201 -604q-10 -29 -10 -57q0 -45 39 -45 q70 0 127 161l36 99h39l-51 -150q-74 -211 -274 -211q-92 0 -139.5 43t-47.5 125q0 66 31 158l182 553q20 55 21 88q0 47 -43 47q-63 0 -154.5 -136t-183.5 -359.5t-158 -469.5v5l-6 -25h-289l385 1366q8 31 8 59q0 41 -25.5 60.5t-84.5 19.5q-94 0 -154.5 -50t-97.5 -177 l-59 -221h194l-12 -41h-195l-370 -1372q-170 -2 -295 -29l381 1401h-330l-373 -1372q-172 -2 -297 -29zM606 1057h328q65 235 192 350q-70 59 -176 59q-129 0 -204.5 -87t-129.5 -283z" />
<glyph unicode="ffj" horiz-adv-x="1853" d="M-76 -385l373 1372l8 29h-199l13 41h198q80 238 220 350q139 113 346 113q166 0 268 -88q18 18 59 47q100 66 221 94.5t273 28.5q57 0 106.5 -11.5t79.5 -31.5q29 -15 45.5 -41.5t16.5 -59.5q0 -84 -61.5 -137t-149.5 -53q-72 0 -111 32.5t-39 88.5q0 68 35 113.5 t96 64.5h-18q-193 0 -294 -102.5t-161 -315.5l-24 -92h329q172 4 297 30l-237 -851q-61 -221 -132 -346.5t-175 -184.5q-121 -90 -293 -90q-98 0 -146.5 31.5t-48.5 89.5q0 61 46 105t112 44q53 0 86 -31.5t33 -76.5q0 -35 -20.5 -71t-57.5 -60q78 10 125 59t78 162 l321 1149h-330l-276 -1016h-287l277 1016h-332l-373 -1372q-172 -2 -297 -29zM606 1057h332q63 225 186 352q-68 57 -174 57q-129 0 -204.5 -87t-129.5 -283z" />
<glyph unicode="ffk" horiz-adv-x="2418" d="M-76 -385l373 1372l8 29h-199l13 41h198q80 238 220 350q139 113 346 113q168 0 270 -90q145 115 389 114q139 2 241.5 21.5t211.5 62.5l-285 -1018q80 10 129 48t76 86.5t55 123.5q27 70 47.5 108t53.5 64q61 47 127 47q94 0 142 -52t48 -132q0 -78 -47 -129t-125 -51 q-63 0 -97 34t-34 85q0 59 39 108t96 80q-10 16 -33 17q-49 0 -86 -31q-27 -23 -45 -58.5t-43 -99.5q-45 -111 -90 -174t-135 -86q154 -4 249 -55t95 -166q0 -35 -8 -68l-31 -151q-6 -27 -6 -45q0 -23 9 -32t28 -9q31 0 61.5 35.5t63.5 125.5l37 99h38l-51 -150 q-74 -211 -293 -211q-84 0 -128 41t-44 119q0 41 9 76l34 158q12 49 13 84q0 59 -38 89.5t-124 43.5l-164 -582h-289l385 1366q10 41 11 64q0 39 -26 57t-85 18q-96 0 -156.5 -49t-97.5 -178l-59 -221h194l-12 -41h-195l-370 -1372q-170 -2 -295 -29l381 1401h-330 l-373 -1372q-172 -2 -297 -29zM606 1057h328q65 235 192 350q-70 59 -176 59q-129 0 -204.5 -87t-129.5 -283z" />
<glyph unicode="fh" horiz-adv-x="1816" d="M-94 -385l381 1401h-174l12 41h172q70 250 212 368.5t396 118.5q135 2 243.5 22.5t209.5 61.5l-271 -962q104 236 211 328.5t248 92.5q88 0 130 -45t42 -122q0 -63 -24 -142l-201 -604q-10 -29 -10 -57q0 -45 39 -45q70 0 127 161l37 99h38l-51 -150q-74 -211 -274 -211 q-92 0 -139.5 43t-47.5 125q0 66 31 158l182 553q20 55 21 88q0 47 -43 47q-63 0 -154.5 -136t-183.5 -359.5t-158 -469.5v5l-6 -25h-289l385 1366q8 31 9 59q0 41 -26 60.5t-85 19.5q-94 0 -154.5 -50t-97.5 -177l-59 -221h194l-12 -41h-195l-370 -1372q-170 -2 -295 -29z " />
<glyph unicode="f&#xef;" horiz-adv-x="1226" d="M-94 -385l379 1401h-172l12 41h172q43 154 97.5 260t133.5 170q123 98 301 98q102 0 160 -53q49 -37 49 -111q0 -80 -53 -126t-125 -46q-66 0 -98.5 37t-32.5 98q0 70 41 115t104 55q-20 4 -34 5q-100 0 -164 -64q-47 -47 -61.5 -118.5t-18.5 -186.5q-4 -96 -12 -133h303 q168 4 297 30l-277 -913q-12 -37 -12 -59q0 -43 37 -43q33 0 64.5 35.5t64.5 125.5l37 99h39l-52 -150q-41 -115 -118.5 -163t-161.5 -48t-126 45t-42 127q0 61 27 154l210 719h-303l-370 -1372q-170 -2 -295 -29zM1194 1384q0 78 52 125t124 47q64 0 98.5 -36.5t34.5 -98.5 q0 -80 -52 -126t-124 -46q-66 0 -99.5 37t-33.5 98z" />
<glyph unicode="f&#xec;" horiz-adv-x="1226" d="M-94 -385l379 1401h-172l12 41h172q133 457 446 456q49 0 91 -14q-35 35 -56 70q-23 39 -22 73q0 27 13 49.5t36 37.5q23 14 53 14q35 0 64.5 -17.5t48.5 -48.5q18 -31 29.5 -65.5t27.5 -98.5q31 -141 82 -272l-25 -14q-70 86 -114 131v-2q-57 63 -94 88.5t-82 25.5 q-63 0 -98 -66.5t-81 -227.5l-32 -119h303q168 4 297 30l-277 -913q-12 -37 -12 -61q0 -41 37 -41q33 0 64.5 35.5t64.5 125.5l37 99h39l-52 -150q-41 -115 -118.5 -163t-161.5 -48t-126 45t-42 129q0 59 27 152l210 719h-301l-372 -1372q-170 -2 -295 -29z" />
<glyph unicode="fj" horiz-adv-x="1216" d="M12 0l277 1016h-176l12 41h176q43 152 109.5 255t162.5 167q100 66 221 94.5t273 28.5q57 0 106.5 -11.5t79.5 -31.5q29 -15 45.5 -41.5t16.5 -59.5q0 -84 -61.5 -137t-149.5 -53q-72 0 -111 32.5t-39 88.5q0 68 35 113.5t96 64.5h-18q-193 0 -294 -102.5t-161 -315.5 l-24 -92h330q172 4 296 30l-237 -851q-61 -221 -132 -346.5t-175 -184.5q-121 -90 -293 -90q-98 0 -146.5 31.5t-48.5 89.5q0 61 46 105t112 44q53 0 86 -31.5t33 -76.5q0 -35 -20.5 -71t-57.5 -60q78 10 125 59t78 162l321 1149h-330l-276 -1016h-287z" />
<glyph unicode="fk" horiz-adv-x="1779" d="M-94 -385l381 1401h-174l12 41h172q70 250 212 368.5t396 118.5q139 2 241.5 21.5t211.5 62.5l-285 -1018q80 10 129 48t76 86.5t55 123.5q27 70 47.5 108t53.5 64q61 47 127 47q94 0 142 -52t48 -132q0 -78 -47 -129t-125 -51q-63 0 -97 34t-34 85q0 59 39 108t96 80 q-10 16 -33 17q-49 0 -86 -31q-27 -23 -45 -58.5t-43 -99.5q-45 -111 -90 -174t-135 -86q154 -4 249 -55t95 -166q0 -35 -8 -68l-31 -151q-6 -27 -6 -45q0 -23 9 -32t28 -9q31 0 61.5 35.5t63.5 125.5l37 99h39l-52 -150q-74 -211 -293 -211q-84 0 -128 41t-44 119 q0 41 9 76l34 158q12 49 13 84q0 59 -38 89.5t-124 43.5l-164 -582h-289l385 1366q10 41 11 64q0 39 -26 57t-85 18q-96 0 -156.5 -49t-97.5 -178l-59 -221h194l-12 -41h-195l-370 -1372q-170 -2 -295 -29z" />
<glyph horiz-adv-x="0" />
<glyph unicode="&#xd;" horiz-adv-x="522" />
<glyph horiz-adv-x="0" />
<glyph horiz-adv-x="0" />
<glyph unicode=" "  horiz-adv-x="522" />
<glyph unicode="&#x09;" horiz-adv-x="522" />
<glyph unicode="&#xa0;" horiz-adv-x="522" />
<glyph unicode="!" horiz-adv-x="643" d="M49 94q0 82 57.5 137.5t141.5 55.5q66 0 102.5 -33t36.5 -92q0 -74 -60.5 -132.5t-140.5 -58.5q-66 0 -101.5 33t-35.5 90zM244 408q37 147 52 286.5t28 345.5q14 209 18 242q6 129 57.5 224.5t155.5 95.5q72 0 107.5 -43t29.5 -121q-8 -88 -50 -191.5t-128 -279.5 q-90 -186 -143.5 -308t-89.5 -258z" />
<glyph unicode="&#x22;" horiz-adv-x="800" d="M295 1300l2 31q4 70 49 117t113 47q47 0 74.5 -25.5t29.5 -70.5q0 -51 -25.5 -99.5t-82.5 -132.5q-70 -102 -103 -168h-28q-2 94 -19 195q-10 66 -10 106zM627 1300l2 31q4 70 49 117t113 47q47 0 74.5 -25.5t29.5 -70.5q0 -51 -25.5 -99.5t-82.5 -132.5 q-70 -102 -103 -168h-28q-2 94 -19 195q-10 66 -10 106z" />
<glyph unicode="#" horiz-adv-x="1280" d="M61 506l19 41h301l158 342h-299l16 41h301l141 303h50l-142 -303h334l141 303h49l-141 -303h293l-16 -41h-295l-158 -342h293l-21 -41h-290l-140 -299h-49l139 299h-333l-140 -299h-49l139 299h-301zM430 547h334l158 342h-334z" />
<glyph unicode="$" horiz-adv-x="1249" d="M6 315q0 88 44 149.5t114 61.5q68 0 107.5 -48t39.5 -126q0 -72 -27.5 -133t-68.5 -127q47 -35 119 -57l168 598q-115 106 -178.5 201.5t-63.5 209.5q0 145 69.5 241.5t177 143t228.5 50.5l68 241h45l-68 -241q84 -4 140 -15l71 256h45l-73 -266q86 -23 172 -80 q61 -39 98 -101.5t37 -137.5q0 -88 -43 -149.5t-115 -61.5q-68 0 -106.5 48t-38.5 126q0 72 26.5 134t67.5 126q-43 35 -111 55l-153 -557q100 -88 161.5 -150.5t103.5 -139.5t42 -160q0 -150 -84 -245t-209 -139.5t-260 -50.5l-68 -241h-45l68 241q-80 0 -141 13l-70 -254 h-45l74 262q-94 27 -183 84q-63 41 -99 102.5t-36 136.5zM377 27q61 -10 117 -11h24l131 476l-112 108zM537 1219q-1 -85 75 -181l111 394q-84 -14 -135 -68.5t-51 -144.5zM563 20q115 12 167 67.5t52 152.5q0 55 -25.5 106t-72.5 107zM647 997q33 -35 113 -108l149 534 q-57 12 -127 13h-14z" />
<glyph unicode="%" horiz-adv-x="1630" d="M10 -86l1706 1774l31 -27l-1706 -1774zM229 1128q0 103 60.5 203.5t167 164t233.5 63.5q125 0 194.5 -62.5t69.5 -175.5q0 -102 -60 -202.5t-165.5 -164t-232.5 -63.5q-125 0 -196 62.5t-71 174.5zM440 1053q0 -63 18.5 -97t51.5 -34q70 0 123 80.5t81.5 193.5t28.5 203 q0 61 -18 95t-51 34q-70 0 -123 -81t-82 -193.5t-29 -200.5zM762 209q0 102 61.5 202.5t167 164t232.5 63.5q125 0 194.5 -62.5t69.5 -175.5q0 -102 -60.5 -202.5t-166 -164t-232.5 -63.5q-125 0 -195.5 62.5t-70.5 175.5zM973 133q0 -63 18.5 -97t50.5 -34q70 0 123.5 81 t82 193.5t28.5 202.5q0 63 -17.5 96t-52.5 33q-69 0 -122.5 -81t-82 -193.5t-28.5 -200.5z" />
<glyph unicode="&#x26;" horiz-adv-x="1767" d="M59 420q0 199 149.5 346t401.5 201q-90 31 -135 87t-45 126q0 82 57.5 140t149.5 88t192 30q125 0 191.5 -45t66.5 -119q0 -68 -49 -106t-108 -38v37q49 0 80.5 28t31.5 73q0 49 -40.5 78.5t-106.5 29.5q-74 0 -137.5 -36.5t-102.5 -104.5t-39 -152q0 -57 23 -104 q74 12 129 12q74 0 74 -43q0 -20 -18.5 -31.5t-45.5 -11.5q-51 0 -141 45q-109 -41 -180.5 -159.5t-71.5 -264.5q0 -184 123 -281.5t340 -97.5q145 0 270 43t202 129.5t77 208.5q0 123 -76 205l-234 -80q-63 -18 -131 -43q-90 -31 -141 -72.5t-51 -103.5q0 -57 42 -84.5 t103 -27.5q80 0 136.5 40.5t78.5 86.5l31 -17q-31 -59 -94.5 -104t-159.5 -45q-102 0 -174 56t-72 175q0 246 359 363l149 49q291 94 389 131q119 43 183.5 89t64.5 130q0 76 -58.5 123t-144.5 47q-37 0 -59 -12q90 -37 90 -121q0 -66 -56 -107t-128 -41q-66 0 -107 36 t-41 93q0 55 34 94t93 62q68 29 166 29q127 0 203 -64.5t76 -208.5q0 -156 -95.5 -251t-293.5 -167q-92 -35 -127 -45q88 -94 88 -233q0 -135 -85 -259t-252 -202t-405 -78q-287 0 -463 117t-176 332z" />
<glyph unicode="'" horiz-adv-x="466" d="M295 1300l2 31q4 70 49 117t113 47q47 0 74.5 -25.5t29.5 -70.5q0 -51 -25.5 -99.5t-82.5 -132.5q-70 -102 -103 -168h-28q-2 94 -19 195q-10 66 -10 106z" />
<glyph unicode="(" horiz-adv-x="811" d="M73 457q0 223 124 444t341 413.5t496 336.5l20 -27q-340 -244 -520 -539.5t-180 -693.5q0 -209 43 -386t133 -351l-37 -27q-209 195 -314.5 385.5t-105.5 444.5z" />
<glyph unicode=")" horiz-adv-x="813" d="M-223 -346q340 244 520 539.5t180 693.5q0 209 -43 386t-133 351l37 27q209 -195 314.5 -385.5t105.5 -444.5q0 -223 -124 -444t-341 -413.5t-496 -336.5z" />
<glyph unicode="*" horiz-adv-x="991" d="M184 874q0 66 84 111q37 18 79 27.5t124 23.5q94 14 131 23q-39 8 -119 22q-72 12 -112.5 23.5t-67.5 30.5q-43 29 -43 69q0 37 31 72q41 51 90 51q33 0 61 -20q25 -18 47.5 -48t55.5 -85q25 -41 65 -103l-12 98q-16 94 -16 154q0 86 40 128t93 42q33 0 55.5 -17.5 t22.5 -54.5q0 -41 -21.5 -88t-71.5 -129q-59 -102 -73 -129q104 98 96 90q10 10 51 48t70.5 60.5t54.5 35.5q35 18 70 18q37 0 56 -24.5t19 -57.5q0 -67 -86 -108q-37 -18 -79.5 -27.5t-124.5 -24.5l-125 -22q31 -8 114 -23q78 -16 117 -26t64 -27q43 -29 43 -69 q0 -37 -31 -72q-41 -51 -90 -51q-31 0 -60 20q-27 16 -49 46t-55 85q-12 20 -59 94l12 -98q12 -111 12 -143q0 -86 -40 -128t-93 -42q-35 0 -56.5 18.5t-21.5 57.5q0 45 23.5 94t85.5 149q33 47 63 103q-74 -66 -100 -93q-18 -16 -58 -53t-69 -58.5t-51 -33.5 q-37 -18 -72 -18q-51 0 -70 49q-4 10 -4 30z" />
<glyph unicode="+" horiz-adv-x="1177" d="M100 696l19 62h477l137 483h74l-137 -483h475l-19 -62h-475l-137 -481h-74l138 481h-478z" />
<glyph unicode="," horiz-adv-x="587" d="M-6 82q0 84 62.5 144.5t150.5 60.5q66 0 100.5 -38t34.5 -110q0 -129 -82 -241.5t-223 -176.5l-10 33q94 47 154.5 120t66.5 157q-55 -59 -127 -60q-61 0 -94 29t-33 82z" />
<glyph unicode="-" horiz-adv-x="1036" d="M109 457l45 170h739l-45 -170h-739z" />
<glyph unicode="." horiz-adv-x="571" d="M-2 94q0 82 57.5 137.5t141.5 55.5q66 0 102.5 -33t36.5 -92q0 -74 -60.5 -132.5t-140.5 -58.5q-66 0 -101.5 33t-35.5 90z" />
<glyph unicode="/" horiz-adv-x="944" d="M-90 -29l1122 1508h68l-1123 -1508h-67z" />
<glyph unicode="0" horiz-adv-x="1271" d="M49 346q0 182 101.5 354t269.5 279.5t360 107.5q191 0 297.5 -99t106.5 -273q0 -182 -100.5 -355.5t-267.5 -281t-359 -107.5q-188 0 -298 99.5t-110 275.5zM348 305q0 -154 39 -225.5t102 -71.5q113 0 204 112.5t141.5 287t50.5 352.5q0 150 -37 220.5t-100 70.5 q-111 0 -203 -110t-144.5 -283t-52.5 -353z" />
<glyph unicode="1" horiz-adv-x="759" d="M92 778l6 43q199 51 326 112.5t254 147.5h41l-322 -1081h-288l256 864q-98 -41 -273 -86z" />
<glyph unicode="2" horiz-adv-x="1095" d="M-51 0l10 43q70 55 115 86q172 127 297 232.5t223 239.5t98 263q0 80 -41 123t-114 43q-80 0 -162 -47t-136.5 -121t-54.5 -149q0 -51 28 -75t91 -24q53 0 95 19.5t94 64.5l24 -28q-53 -51 -112.5 -75t-114.5 -24q-63 0 -108.5 31t-45.5 109q0 90 67.5 178t185.5 143 t263 55q152 0 241 -57t89 -158q0 -90 -73.5 -177t-172 -155.5t-254.5 -160.5q-25 -14 -84 -51t-96 -64q51 0 166 -26q53 -12 109.5 -21.5t101.5 -9.5q80 0 127 25.5t47 72.5q0 61 -74 101l23 26q59 -31 85.5 -73t26.5 -101q0 -111 -79.5 -190.5t-237.5 -79.5q-45 0 -96 9 t-101 19q-70 16 -122 24.5t-111 8.5t-106.5 -11t-110.5 -38z" />
<glyph unicode="3" horiz-adv-x="1058" d="M-178 -309l10 37q172 10 346 78.5t290 193.5t116 293q0 82 -33 132t-92 54q-33 -14 -65 -24.5t-54 -10.5q-45 0 -35 31q8 39 98 39l39 -2q113 47 183.5 131t70.5 193q0 86 -50 135t-140 49q-72 0 -143.5 -36t-117.5 -92t-46 -116q0 -51 27.5 -74.5t90.5 -23.5 q70 0 127 31l23 -31q-80 -43 -164 -43q-63 0 -108 30.5t-45 108.5q0 76 65.5 148.5t177 120t242.5 47.5q153 0 243.5 -55.5t90.5 -149.5q0 -131 -144.5 -230.5t-328.5 -142.5q176 -4 282.5 -65.5t106.5 -186.5q0 -166 -171 -294t-420 -199.5t-472 -75.5z" />
<glyph unicode="4" horiz-adv-x="1095" d="M-119 94l13 43l983 950h53l-248 -921h266l-20 -72h-266l-103 -383h-289l103 383h-492zM-18 166h411l146 541z" />
<glyph unicode="5" horiz-adv-x="966" d="M-180 -303l10 37q152 0 309.5 67.5t261 193.5t103.5 292q0 186 -193 186q-94 0 -200 -55l-21 10l283 633q39 2 72.5 -4t82.5 -21q37 -10 80 -18t88 -8q63 0 109.5 20.5t79.5 71.5l24 -15q-53 -135 -130 -210.5t-175 -75.5q-43 0 -133 37q-49 20 -81 29.5t-58 4.5 l-191 -409q131 72 318 72q176 0 263 -64.5t87 -179.5q0 -178 -160 -311.5t-391 -205t-438 -77.5z" />
<glyph unicode="6" horiz-adv-x="1161" d="M57 348q0 281 174.5 527.5t424 406.5t462.5 197l12 -41q-188 -51 -367 -215t-294 -417t-115 -554q0 -135 27 -187.5t80 -52.5q86 0 157.5 100.5t112.5 244t41 264.5q0 94 -27.5 137t-74.5 43q-51 0 -101.5 -51.5t-85.5 -159.5l-32 10q84 297 333 297q131 0 211 -81 t80 -228q0 -158 -91 -301.5t-244.5 -229.5t-329.5 -86q-352 0 -353 377z" />
<glyph unicode="7" horiz-adv-x="1030" d="M86 784q0 115 81 200t241 85q59 0 112 -11t129 -34q78 -25 137.5 -37t126.5 -12q59 0 105.5 17.5t81.5 64.5h55l-113 -131q-166 -188 -259 -310t-170.5 -272.5t-127.5 -343.5q-16 -70 -23 -105.5t-11 -56.5q-12 -61 -59.5 -101t-123.5 -40q-123 0 -123 115q0 33 11 73 q31 129 133 276.5t225 277.5t313 317q133 129 211 213q-156 -102 -237.5 -142.5t-171.5 -40.5q-49 0 -88 9.5t-90 25.5q-47 14 -77 21.5t-65 7.5q-68 0 -108.5 -29.5t-40.5 -91.5q0 -150 248 -207l-11 -33q-311 61 -311 295z" />
<glyph unicode="8" horiz-adv-x="1177" d="M-6 240q0 156 149.5 282.5t368.5 214.5q-98 94 -147.5 168t-49.5 176q0 117 76 207t200 140.5t265 50.5q152 0 246 -56.5t94 -162.5q0 -224 -434 -429l31 -28q74 -66 119.5 -116t76.5 -114.5t31 -144.5q0 -131 -86 -235.5t-229.5 -163t-307.5 -58.5q-178 0 -290.5 66.5 t-112.5 202.5zM285 211q0 -98 34.5 -150.5t118.5 -52.5q76 0 146.5 46t113.5 125t43 173q0 111 -52 190t-154 177q-111 -84 -180.5 -220.5t-69.5 -287.5zM575 1151q0 -86 43.5 -154.5t120.5 -142.5q78 74 129.5 186.5t51.5 233.5q0 168 -115 168q-59 0 -111.5 -40 t-85.5 -107.5t-33 -143.5z" />
<glyph unicode="9" horiz-adv-x="1134" d="M4 -344q182 49 357.5 209t287 405.5t111.5 536.5q0 135 -26.5 187.5t-80.5 52.5q-88 0 -158.5 -100.5t-111.5 -244t-41 -264.5q0 -180 100 -180q53 0 102.5 51t84.5 160l35 -10q-84 -297 -336 -297q-129 0 -209 81t-80 228q0 158 91 301t244.5 229t330.5 86 q352 1 352 -376q0 -272 -171 -511t-417 -394.5t-453 -190.5z" />
<glyph unicode=":" horiz-adv-x="636" d="M29 94q0 82 57.5 137.5t141.5 55.5q66 0 102.5 -33t36.5 -92q0 -74 -60.5 -132.5t-140.5 -58.5q-66 0 -101.5 33t-35.5 90zM234 895q0 82 57.5 137.5t141.5 55.5q66 0 102.5 -33t36.5 -92q0 -74 -60.5 -132.5t-140.5 -58.5q-66 0 -101.5 33t-35.5 90z" />
<glyph unicode=";" horiz-adv-x="651" d="M19 82q0 84 62.5 144.5t150.5 60.5q66 0 100.5 -38t34.5 -110q0 -129 -82 -241.5t-223 -176.5l-10 33q94 47 154.5 120t66.5 157q-55 -59 -127 -60q-61 0 -94 29t-33 82zM244 895q0 82 57.5 137.5t141.5 55.5q66 0 102.5 -33t36.5 -92q0 -74 -60.5 -132.5t-140.5 -58.5 q-66 0 -101.5 33t-35.5 90z" />
<glyph unicode="&#x3c;" horiz-adv-x="1216" d="M98 727l1131 465l20 -59l-997 -414l678 -357l-33 -65z" />
<glyph unicode="=" horiz-adv-x="1331" d="M129 553l18 61h1027l-19 -61h-1026zM211 840l18 61h1026l-18 -61h-1026z" />
<glyph unicode="&#x3e;" horiz-adv-x="1218" d="M98 377l942 393l-757 406l32 59l879 -473l-1075 -445z" />
<glyph unicode="?" horiz-adv-x="995" d="M162 612q0 72 37 133.5t95 113.5t163 134l39 31q117 94 172 143.5t85.5 101.5t30.5 113q0 80 -43 127t-127 47q-47 0 -98 -15t-78 -46q55 0 99.5 -39t44.5 -94q-2 -61 -47.5 -103t-110.5 -42q-61 0 -103 37.5t-42 101.5q0 84 64.5 139t161.5 81t197 26q166 0 279 -67 t113 -187q0 -90 -82 -185.5t-283 -244.5q-143 -104 -206.5 -157.5t-93.5 -100t-30 -103.5q0 -59 35 -96t105 -37q45 0 88 14.5t69 38.5q-39 12 -68.5 46t-29.5 83q0 55 40 94t101 39q49 0 84 -32.5t35 -83.5q0 -80 -60.5 -134.5t-148.5 -80t-174 -25.5q-139 0 -226 58.5 t-87 170.5zM227 94q0 82 57.5 137.5t141.5 55.5q66 0 102.5 -33t36.5 -92q0 -74 -60.5 -132.5t-139.5 -58.5q-66 0 -102 33t-36 90z" />
<glyph unicode="@" horiz-adv-x="1767" d="M57 319q0 250 124 480.5t352.5 375t523.5 144.5q299 0 475 -141.5t176 -417.5q0 -213 -100.5 -375t-247 -247t-275.5 -85q-161 1 -161 144q0 33 6 63q-57 -109 -128 -158t-161 -49q-109 0 -171 63.5t-62 186.5q0 143 77.5 303t203.5 266.5t263 106.5q74 0 108 -35 t38 -106l32 112q162 0 259 29l-218 -739q-12 -45 -12 -72t11.5 -38t35.5 -11q68 0 178.5 76.5t196.5 222t86 342.5q0 262 -167 392t-443 130t-495.5 -137t-341.5 -358.5t-122 -462.5q0 -205 90.5 -338t242 -194.5t337.5 -61.5q279 0 492 125l12 -27q-92 -61 -221 -97 t-281 -36q-199 0 -359.5 63.5t-257 203.5t-96.5 357zM670 305q0 -80 19.5 -116.5t64.5 -36.5q65 0 121.5 80.5t115.5 246.5l82 279l2 30q0 51 -18.5 85t-61.5 34q-70 0 -146.5 -91t-127.5 -231.5t-51 -279.5z" />
<glyph unicode="A" horiz-adv-x="1337" d="M-188 0l8 41q53 14 103 61.5t128 155.5l854 1202q18 -2 53 -2q37 0 52 2l82 -1288q6 -68 34.5 -98.5t65.5 -32.5l-8 -41q-104 6 -297 6q-209 0 -307 -6l8 41q70 4 108 17q40 14 56 50q13 29 13 79q0 12 -1 26l-19 336h-442l-180 -256q-66 -92 -66 -152q0 -49 44 -72.5 t128 -27.5l-10 -41q-172 6 -266 6q-76 0 -141 -6zM332 590h411l-26 543z" />
<glyph unicode="B" horiz-adv-x="1390" d="M-86 0l8 41q74 4 111 16.5t58.5 47t41.5 112.5l270 1016q16 66 17 98q0 39 -30 57.5t-107 20.5l10 41q109 -6 311 -6l174 2q43 2 125 2q229 0 340 -70.5t111 -199.5q0 -106 -68.5 -195.5t-193.5 -147t-289 -73.5q223 -10 342 -98.5t119 -221.5q0 -141 -86 -240.5 t-239 -150.5t-349 -51l-119 2q-127 4 -240 4q-207 0 -317 -6zM442 125q0 -39 22.5 -58.5t76.5 -19.5q121 0 207 57.5t130 155.5t44 219q0 117 -56.5 186.5t-179.5 69.5h-90l-137 -518q-16 -70 -17 -92zM604 770h72q111 0 191.5 61.5t122.5 163t42 215.5q0 96 -35.5 147.5 t-122.5 51.5q-61 0 -88.5 -28.5t-50.5 -116.5z" />
<glyph unicode="C" horiz-adv-x="1419" d="M88 479q0 242 128 474.5t353.5 379t497.5 146.5q115 0 181.5 -35t123.5 -98q16 -18 31 -19q37 0 82 123h43q-68 -176 -131 -471h-45q16 94 16 162q0 94 -35 155q-72 133 -241 134q-164 0 -312.5 -144.5t-237.5 -375t-89 -472.5q0 -203 72.5 -304t203.5 -101 q78 0 162 35.5t145 99.5q53 57 93 128t92 196h45q-96 -354 -121 -492h-45q6 43 6 70q0 53 -27 53q-16 0 -41 -19q-94 -63 -188 -98t-213 -35q-274 0 -411.5 131t-137.5 377z" />
<glyph unicode="D" horiz-adv-x="1579" d="M-78 0l6 41q70 4 106 16.5t57.5 48t41.5 111.5l268 1016q16 55 17 88q0 45 -30 65.5t-105 22.5l6 41q92 -6 270 -6h66q215 6 305 6q301 0 459.5 -124t158.5 -365q0 -236 -114.5 -457t-343 -362.5t-551.5 -141.5l-101 2q-119 4 -209 4q-199 0 -307 -6zM436 100 q0 -35 23.5 -49t79.5 -14q209 0 362.5 145.5t234.5 373.5t81 470q0 193 -80 290t-252 97q-53 0 -79 -13.5t-42 -48t-37 -114.5l-268 -1024q-23 -90 -23 -113z" />
<glyph unicode="E" horiz-adv-x="1282" d="M-88 0l10 41q74 4 110 16.5t58.5 47t42.5 112.5l270 1016q16 70 17 98q0 45 -30 59.5t-107 18.5l10 41q223 -6 665 -6q291 0 416 6q-57 -156 -78 -242q-10 -45 -26 -127h-45q2 27 2 74q0 137 -51.5 192.5t-176.5 55.5h-63q-72 0 -107.5 -11.5t-57 -46t-42.5 -112.5 l-129 -483h76q102 0 172 71.5t108 173.5h48q-39 -117 -64 -215l-12 -51q-25 -96 -60 -266h-45q2 14 2 45q0 201 -172 201h-63l-131 -492q-18 -63 -19 -100q0 -43 30 -56.5t105 -13.5h76q111 0 186.5 34t135 111.5t121.5 217.5h47q-23 -59 -45 -148q-35 -121 -54 -262 q-139 6 -464 6q-442 0 -666 -6z" />
<glyph unicode="F" horiz-adv-x="1204" d="M-88 0l10 41q74 4 110 16.5t58.5 47t42.5 112.5l270 1016q16 70 17 98q0 45 -30 59.5t-107 18.5l10 41q223 -6 665 -6q291 0 416 6q-47 -127 -80 -250q-35 -129 -43 -180h-47q8 63 8 125q0 141 -56 199.5t-185 58.5h-47q-68 0 -102 -11.5t-54 -46t-39 -112.5l-131 -492 h94q98 0 166 68t115 178h45q-31 -96 -76 -266q-18 -78 -63 -303h-45q1 21 1 40q0 110 -29 170q-34 72 -136 72h-82l-129 -483q-16 -61 -17 -90q0 -49 38 -65.5t138 -20.5l-8 -41q-125 6 -364 6q-225 0 -334 -6z" />
<glyph unicode="G" horiz-adv-x="1513" d="M78 440q0 238 127 479.5t352 400.5t504 159q123 0 195.5 -34t140.5 -99q18 -18 35 -19q20 0 39.5 28.5t41.5 94.5h46q-68 -176 -132 -471h-45q10 88 11 154q0 49 -6.5 82.5t-22.5 66.5q-41 78 -122 119t-193 41q-197 0 -343.5 -178.5t-224.5 -430t-78 -460.5 q0 -184 73 -272.5t220 -88.5q43 0 85 12.5t73 30.5q33 23 50.5 54.5t33.5 95.5l47 180q18 68 19 107q0 51 -37 68.5t-136 21.5l11 41q127 -6 348 -7q193 0 289 7l-11 -41q-49 -4 -72.5 -16.5t-41 -46.5t-37.5 -113l-109 -406h-41q1 12 1 23q0 37 -11 62q-14 32 -47 32 q-31 0 -61.5 -12.5t-63.5 -29t-47 -24.5q-78 -41 -149.5 -60.5t-147.5 -19.5q-268 0 -415.5 123t-147.5 346z" />
<glyph unicode="H" horiz-adv-x="1658" d="M-84 0l10 41q72 4 108 16.5t57.5 48t41.5 111.5l270 1016q16 70 17 98q0 45 -30 59.5t-107 18.5l10 41q104 -6 334 -6q197 0 323 6l-10 -41q-76 -4 -111.5 -16.5t-57 -47t-42.5 -112.5l-129 -483h535l129 483q18 66 18 98q0 45 -30.5 59.5t-108.5 18.5l10 41 q111 -6 320 -6q222 0 337 6l-10 -41q-76 -4 -111.5 -16.5t-57 -47t-42.5 -112.5l-270 -1016q-18 -78 -19 -100q0 -43 30 -57.5t110 -18.5l-8 -41q-111 6 -336 6q-207 0 -322 -6l8 41q74 4 111 16.5t58.5 47t41.5 112.5l131 492h-534l-131 -492q-18 -78 -19 -100 q0 -43 30 -57.5t110 -18.5l-9 -41q-113 6 -321 6q-223 0 -334 -6z" />
<glyph unicode="I" d="M-84 0l10 41q72 4 108 16.5t57.5 48t41.5 111.5l270 1016q16 70 17 98q0 45 -30 59.5t-107 18.5l10 41q100 -6 321 -6q203 0 336 6l-10 -41q-76 -4 -111.5 -16.5t-57 -47t-42.5 -112.5l-270 -1016q-19 -77 -19 -100q0 -43 30 -57.5t110 -18.5l-9 -41q-119 6 -333 6 q-215 0 -322 -6z" />
<glyph unicode="J" horiz-adv-x="1398" d="M55 -231q0 68 46 111.5t126 43.5q70 0 114 -32.5t46 -90.5q0 -96 -113 -145q18 -6 58 -6q78 0 127 58.5t79.5 148.5t84.5 286l110 394q23 86 60 172h-279l6 41h291q88 184 226.5 314t363.5 277q-82 -29 -197 -86q-106 -49 -171.5 -71.5t-151.5 -22.5q-59 0 -110.5 13.5 t-129.5 42.5q-61 23 -106.5 35t-92.5 12q-57 0 -91 -30t-34 -87q4 -137 232 -158l-6 -39q-162 12 -259.5 87t-97.5 208q0 123 75 195.5t216 72.5q88 0 154.5 -25.5t154.5 -76.5q84 -51 153 -77.5t159 -26.5q174 0 346 79q78 119 129 119q16 0 26 -10q13 -13 13 -25 q0 -49 -150 -106q-121 -96 -204.5 -248.5t-149.5 -365.5h205l-6 -41h-209q-16 -53 -23 -80l-127 -496q-59 -233 -206.5 -375.5t-399.5 -142.5q-129 0 -208 37t-79 117z" />
<glyph unicode="K" horiz-adv-x="1515" d="M-84 0l10 41q72 4 108 16.5t57.5 48t41.5 111.5l270 1016q16 70 17 98q0 45 -30 59.5t-107 18.5l10 41q104 -6 334 -6q197 0 323 6l-10 -41q-76 -4 -111.5 -16.5t-57 -47t-42.5 -112.5l-270 -1016q-19 -77 -19 -100q0 -43 30 -57.5t110 -18.5l-9 -41q-113 6 -321 6 q-223 0 -334 -6zM647 748q0 49 60 49q45 0 120 -21q92 12 148.5 67.5t87.5 125t67 188.5q31 104 55.5 163.5t63.5 98.5q59 59 146 60q88 0 140 -50.5t52 -132.5q0 -76 -50 -139t-136 -63q-57 0 -96 35.5t-39 97.5q0 61 41 118.5t110 88.5q-12 6 -33 6q-37 0 -59 -11.5 t-45 -33.5q-33 -37 -57.5 -94.5t-53.5 -149.5q-35 -111 -64.5 -183.5t-82.5 -130t-135 -75.5q158 -16 224.5 -77.5t66.5 -192.5q0 -23 -4 -80l-23 -215q-1 -7 -1 -14q0 -62 52 -62q39 0 65.5 29.5t49.5 93.5l35 104h41l-54 -158q-37 -111 -108.5 -165t-165.5 -54 q-117 0 -177.5 55.5t-60.5 153.5q0 16 4 49l39 287q6 49 7 86q0 51 -12.5 82t-41.5 51q-86 -22 -122 -22h-3q-51 0 -51 35z" />
<glyph unicode="L" horiz-adv-x="1239" d="M-88 0l10 41q74 4 110 16.5t58.5 47t42.5 112.5l270 1016q16 70 17 98q0 45 -30 59.5t-107 18.5l10 41q109 -6 338 -6q193 0 319 6l-10 -41q-76 -4 -111.5 -16.5t-58 -47t-43.5 -112.5l-270 -1016q-18 -78 -19 -100q0 -43 30 -56.5t107 -13.5h82q145 0 256 89t193 294h45 q-20 -55 -49 -168q-33 -115 -55 -262q-139 6 -465 6q-446 0 -670 -6z" />
<glyph unicode="M" horiz-adv-x="1878" d="M-86 0l10 41q98 4 146.5 59.5t74.5 163.5l261 969q16 70 16 98q0 45 -30 59.5t-107 18.5l10 41q92 -6 280 -6q106 0 185 6l117 -1047l663 1041h160q197 0 330 6l-11 -41q-76 -4 -111.5 -16.5t-57 -47t-42.5 -112.5l-270 -1016q-16 -70 -16 -98q0 -45 29.5 -59.5 t107.5 -18.5l-8 -41q-129 6 -328 6q-223 0 -328 -6l9 41q76 4 111.5 16.5t57 47t41.5 112.5l297 1104l-849 -1331h-46l-165 1257l-258 -983q-16 -59 -17 -100q0 -59 39 -90t131 -33l-8 -41q-74 6 -229 6q-123 0 -195 -6z" />
<glyph unicode="N" horiz-adv-x="1689" d="M-164 23q0 80 52.5 133t134.5 53q66 0 103.5 -34t37.5 -89q0 -68 -44 -119t-112 -71q10 -8 35 -9q104 0 172 111q76 121 158 432t178 803q12 59 12 92q0 49 -32.5 64.5t-124.5 19.5l10 41q66 -6 182 -6q94 0 166 6l424 -971q172 735 307 934q90 131 221 131 q90 0 142.5 -49t52.5 -125q0 -80 -53.5 -133t-133.5 -53q-68 0 -104.5 33.5t-36.5 89.5q0 68 43 119t111 71q-8 8 -33 8q-98 0 -172 -108q-90 -135 -188.5 -476t-223.5 -931h-45l-508 1112q-88 -434 -166.5 -731t-152.5 -394q-45 -59 -95.5 -94t-123.5 -35 q-90 0 -141.5 49.5t-51.5 125.5z" />
<glyph unicode="O" horiz-adv-x="1591" d="M86 463q0 231 118 468.5t331 392.5t479 155q262 0 409.5 -129t147.5 -365q0 -231 -119 -467.5t-332 -391.5t-479 -155q-262 0 -408.5 129t-146.5 363zM438 436q0 -199 61.5 -313.5t159.5 -114.5q139 0 268.5 147.5t209.5 381t80 477.5q0 199 -61.5 313.5t-160.5 114.5 q-139 0 -268 -147.5t-209 -381t-80 -477.5z" />
<glyph unicode="P" horiz-adv-x="1316" d="M-86 0l8 41q74 4 111 16.5t58.5 47t41.5 112.5l270 1016q14 68 15 96q0 41 -30 59.5t-105 20.5l10 41q104 -6 325 -6q98 0 148 2l152 2q481 0 481 -309q0 -160 -106.5 -287t-299 -198.5t-440.5 -71.5l-96 -365q-14 -49 -15 -90q0 -43 30 -63.5t106 -22.5l-9 -41 q-123 6 -315 6q-231 0 -340 -6zM565 623h8q170 0 279 81.5t157 209.5t48 272q0 113 -47 168t-152 55q-43 0 -63.5 -14.5t-33.5 -47t-34 -114.5z" />
<glyph unicode="Q" horiz-adv-x="1701" d="M-78 -2q0 100 81 164.5t206 64.5q109 0 209 -49t239 -145q186 96 338 249.5t240 345t88 398.5q0 197 -80 306.5t-229 109.5q-139 0 -248 -93.5t-168 -238.5t-59 -299q0 -125 50 -189.5t159 -64.5q123 0 216 78t117 182q10 36 10 77q0 10 -1 21q-20 -61 -72.5 -91.5 t-108.5 -30.5q-68 0 -107.5 43t-39.5 108q0 80 56 134.5t138 54.5q86 0 135.5 -60.5t49.5 -165.5q0 -117 -64.5 -211t-180.5 -146t-261 -52q-199 0 -319.5 97t-120.5 267q0 172 120.5 313.5t320.5 222.5t421 81q180 0 319.5 -51.5t217 -145.5t77.5 -219 q0 -176 -142.5 -373.5t-366.5 -376t-470 -305.5q152 -106 269.5 -162.5t248.5 -56.5q188 0 265 145q-57 -45 -132 -45q-70 0 -114.5 40t-44.5 110q0 74 52 123t134 49q76 0 122 -44t46 -128q0 -102 -77 -200.5t-208 -161t-286 -62.5q-119 0 -218.5 38t-174 93t-166.5 139 q-156 -53 -273 -53q-100 0 -156.5 42t-56.5 124zM-35 -16q0 -55 49 -86t138 -31q90 0 227 47q-94 86 -158.5 128t-134.5 42q-53 0 -87 -26.5t-34 -73.5z" />
<glyph unicode="R" horiz-adv-x="1456" d="M-86 0l8 41q74 4 111 16.5t58.5 47t41.5 112.5l268 1016q18 74 19 96q0 41 -30 59.5t-107 20.5l10 41q104 -6 309 -6l176 2q47 2 131 2q250 0 370 -69.5t120 -215.5q0 -180 -163 -302t-439 -152q186 -18 282.5 -67.5t96.5 -170.5q0 -12 -5 -45l-28 -211q-2 -16 -2 -45 q0 -98 65 -98q39 0 68 35.5t57 111.5l10 29h48l-9 -27q-39 -129 -112.5 -189.5t-200.5 -60.5q-125 0 -187.5 53.5t-62.5 145.5q0 27 2 39l31 233q4 49 4 68q0 94 -58.5 138t-209.5 48l-127 -479q-20 -72 -21 -100q0 -39 31 -56.5t109 -19.5l-9 -41q-123 6 -319 6 q-227 0 -336 -6zM594 733h16q207 0 333 122t126 339q0 111 -47 163t-143 52q-61 0 -91 -27.5t-51 -107.5z" />
<glyph unicode="S" horiz-adv-x="1202" d="M-57 -14q33 78 64.5 187.5t74.5 303.5h41q-18 -78 -19 -145q0 -154 85 -235t249 -81q264 0 264 215q0 115 -54 206t-163 210q-74 84 -116.5 140.5t-72.5 128t-30 153.5q0 131 75 224t191.5 139.5t237.5 46.5q106 0 182 -24.5t142 -65.5q53 -33 67 -33q16 0 31.5 25.5 t36.5 82.5h41q-78 -196 -121 -417h-41q12 59 12 114q0 123 -75.5 196t-217.5 73q-111 0 -179 -55.5t-68 -168.5q0 -94 56 -177t171 -206q86 -90 135 -151.5t84 -135t35 -155.5q0 -137 -88 -229.5t-218 -136.5t-259 -44q-131 0 -203 22.5t-152 72.5q-44 30 -69 30h-2 q-27 0 -42.5 -21.5t-43.5 -88.5h-41z" />
<glyph unicode="T" horiz-adv-x="1394" d="M176 1198q0 57 32 110.5t101 88.5q100 49 275 49q135 0 381 -25q225 -20 327 -20q137 0 217 26q-31 29 -51 71t-20 91q0 74 44 121t117 47q72 0 115 -42t43 -101q0 -125 -141 -195q-125 -59 -342 -59q-37 0 -119 4l-301 -1126q-16 -61 -16 -95q0 -53 37.5 -75.5 t132.5 -26.5l-9 -41q-129 6 -378 6q-244 0 -361 -6l8 41q88 4 136.5 21.5t76 57.5t47.5 118l310 1157q-154 14 -246 14q-170 0 -232 -35q53 -16 88 -60t35 -106q0 -72 -45 -122t-114 -50q-68 0 -108 46t-40 116z" />
<glyph unicode="U" horiz-adv-x="1421" d="M154 324q0 98 45 266l170 643q16 70 16 98q0 45 -29.5 59.5t-107.5 18.5l12 41q104 -6 338 -6q190 0 317 6l-12 -41q-76 -4 -111.5 -16.5t-57 -47t-42.5 -112.5l-180 -678q-49 -180 -49 -299q0 -106 45 -159.5t139 -53.5q215 0 339 139.5t190 390.5l141 541 q33 121 33 174q0 59 -35 85t-121 36l10 41q76 -6 219 -6q113 0 181 6l-11 -41q-70 -10 -108.5 -34.5t-64 -78t-52.5 -157.5l-139 -543q-74 -283 -201 -434q-76 -88 -185.5 -139.5t-234.5 -51.5q-150 0 -250 42t-149 120q-55 80 -55 191z" />
<glyph unicode="V" horiz-adv-x="1353" d="M188 1409l11 41q104 -6 295 -6q207 0 313 6l-10 -41q-92 -4 -129 -27.5t-37 -95.5q0 -31 2 -49l102 -907l539 827q61 94 61 152q0 49 -43 72.5t-127 27.5l11 41q80 -6 268 -6q87 0 153 6l-10 -41q-68 -18 -122 -64.5t-122 -152.5l-782 -1202l-51 2l-53 -2l-162 1288 q-8 68 -40 98.5t-67 32.5z" />
<glyph unicode="W" horiz-adv-x="2011" d="M176 1409l10 41q100 -6 287 -6q174 0 266 6l-10 -41q-59 -4 -83.5 -28.5t-24.5 -92.5q0 -33 2 -51l98 -889l375 617l-43 313q-8 68 -33 98.5t-55 32.5l10 41q96 -6 266 -6q213 0 320 6l-11 -41q-92 -4 -128 -27.5t-36 -89.5q0 -14 5 -55l108 -856l422 776q51 96 51 152 q0 51 -42 73.5t-130 26.5l10 41q84 -6 269 -6q92 0 155 6l-10 -41q-72 -20 -127 -64.5t-115 -152.5l-645 -1202h-106l-127 913l-551 -913h-107l-161 1288q-8 70 -39 99.5t-70 31.5z" />
<glyph unicode="X" horiz-adv-x="1517" d="M-82 158q0 86 51 142t131 56q61 0 96 -35.5t35 -97.5q0 -70 -42 -126t-111 -79q8 -8 35 -8q63 0 135 47q88 61 199.5 200.5t211.5 336.5l-73 606q-16 143 -115 143q-47 0 -81 -32.5t-58 -104.5l-35 -104h-41l53 158q41 115 115 167t184 52q147 0 216 -82t89 -238l31 -256 q72 158 163 294t173 208q92 74 186 74q86 0 134.5 -53.5t48.5 -133.5q0 -86 -51.5 -142t-131.5 -56q-63 0 -98 36.5t-35 100.5q2 68 45 123t111 78q-10 8 -35 8q-70 0 -133 -47q-78 -61 -176 -205t-193 -350l68 -582q10 -66 37.5 -102.5t79.5 -36.5q49 0 81.5 29.5 t57.5 97.5l35 104h41l-54 -158q-41 -115 -111.5 -167t-172.5 -52q-158 0 -228.5 83t-89.5 237l-28 237q-80 -152 -182.5 -283.5t-196.5 -203.5q-90 -70 -191 -70q-86 0 -133 53.5t-47 133.5z" />
<glyph unicode="Y" horiz-adv-x="1503" d="M170 1102l51 158q39 117 112 168t177 51q133 0 210 -83t114.5 -235.5t66.5 -412.5q68 193 154 346t182 258q117 127 242 127q88 0 139 -50.5t51 -125.5q0 -78 -52 -131.5t-134 -53.5q-68 0 -105 34t-37 91q2 68 45.5 118t110.5 71q-10 8 -35 8q-61 0 -123 -47 q-92 -66 -208.5 -253.5t-210.5 -461.5l-117 -461q-12 -49 -12 -82q0 -53 34.5 -71.5t122.5 -22.5l-10 -41q-117 6 -352 6q-221 0 -330 -6l10 41q74 4 111 16.5t59.5 48t40.5 111.5l111 440q-33 281 -90.5 475.5t-145.5 194.5q-35 0 -56.5 -24.5t-37.5 -71.5l-43 -129h-45z " />
<glyph unicode="Z" horiz-adv-x="1347" d="M-66 16q0 29 38 63t116 64l576 566h-332l14 41h359l571 561q-100 -88 -206.5 -136.5t-209.5 -48.5q-72 0 -129 13.5t-127 38.5q-55 20 -92 29.5t-76 9.5q-45 0 -68.5 -21.5t-23.5 -60.5q0 -43 36 -73t114 -46l-11 -39q-113 18 -189.5 74.5t-76.5 162.5q0 117 81 191 t216 74q80 0 139.5 -23.5t141.5 -69.5q84 -47 141 -68.5t133 -21.5q55 0 101.5 13.5t115.5 42.5q37 53 79 85.5t73 32.5q18 0 28 -10q13 -8 13 -26q0 -29 -38 -63t-116 -64l-567 -557h311l-16 -41h-336l-580 -570q100 88 207 136.5t211 48.5q72 0 128 -13.5t126 -38.5 q59 -20 95 -29.5t75 -9.5q43 0 67.5 21.5t24.5 60.5q0 86 -149 119l8 39q113 -18 189.5 -74.5t76.5 -162.5q0 -117 -81 -191t-216 -74q-80 0 -139.5 23.5t-141.5 68.5q-84 47 -141 69t-133 22q-55 0 -101 -13.5t-116 -42.5q-37 -53 -79 -85.5t-73 -32.5q-18 0 -28 10 q-12 8 -13 26z" />
<glyph unicode="[" horiz-adv-x="741" d="M-45 -371l485 1952h471l-8 -39h-166l-469 -1874h166l-8 -39h-471z" />
<glyph unicode="\" horiz-adv-x="1005" d="M268 1479h64l467 -1508h-68z" />
<glyph unicode="]" horiz-adv-x="743" d="M-168 -371l8 39h166l469 1874h-166l8 39h471l-485 -1952h-471z" />
<glyph unicode="^" horiz-adv-x="1081" d="M139 664q154 66 291 179t221 238h37q18 -127 95 -238.5t200 -176.5l-16 -31q-115 25 -225.5 71t-196.5 101q-76 -49 -183.5 -95t-214.5 -77z" />
<glyph unicode="_" horiz-adv-x="1429" d="M-113 -266l60 178h1126l-61 -178h-1125z" />
<glyph unicode="`" horiz-adv-x="663" d="M383 1642q0 27 13 49.5t36 37.5q23 14 53 14q35 0 64.5 -17.5t48.5 -48.5q18 -31 29.5 -65.5t27.5 -98.5q31 -141 82 -272l-24 -14q-80 98 -195 213q-35 35 -64.5 66.5t-48.5 62.5q-23 39 -22 73z" />
<glyph unicode="a" horiz-adv-x="1142" d="M-2 223q0 182 97.5 386t247 341t292.5 137q55 0 89 -32.5t40 -98.5l29 101q164 2 297 30l-269 -913q-10 -35 -10 -57q0 -45 39 -45q72 0 127 161l37 99h39l-52 -150q-41 -115 -113.5 -163t-156.5 -48q-106 0 -151 64q-29 37 -29 102q0 53 18 121q-70 -152 -154.5 -219.5 t-187.5 -67.5q-113 0 -171 66.5t-58 185.5zM301 209q0 -68 13.5 -97.5t43.5 -29.5q45 0 99.5 62.5t109 180t95.5 279.5l-11 -49l90 322q2 10 2 30q0 51 -17 78t-52 27q-70 0 -159 -125t-151.5 -313.5t-62.5 -364.5z" />
<glyph unicode="b" horiz-adv-x="1120" d="M-49 -18q27 55 43 120l371 1264q8 27 8 57q0 41 -31 59.5t-106 18.5l12 43q141 2 253.5 22.5t219.5 61.5l-240 -831q76 152 154 221t172 69q125 0 189.5 -80.5t64.5 -234.5q0 -168 -79 -355.5t-224.5 -316.5t-333.5 -129q-57 0 -104.5 22.5t-69.5 63.5q-57 -4 -122 -27.5 t-146 -62.5zM274 76q39 -45 93 -45q96 0 188 131t149.5 322.5t57.5 353.5q0 76 -17.5 108.5t-52.5 32.5q-57 0 -127.5 -101.5t-134.5 -263.5z" />
<glyph unicode="c" horiz-adv-x="948" d="M16 287q0 176 88.5 363.5t248 312t362.5 124.5q113 0 181.5 -56t68.5 -140q0 -55 -27 -108.5t-74 -86t-102 -32.5q-51 0 -84 32.5t-33 85.5q0 80 55.5 142.5t130.5 81.5q-35 41 -98 41q-100 0 -195.5 -110t-154.5 -287t-59 -363q0 -205 155 -205q147 0 271 180l41 -16 q-74 -119 -188 -197t-259 -78q-150 0 -239 80t-89 236z" />
<glyph unicode="d" horiz-adv-x="1185" d="M8 258q0 166 86 361.5t242 331.5t354 136q96 0 125 -69l92 348q10 37 11 57q0 41 -32 59.5t-108 18.5l13 43q141 2 256.5 22.5t222.5 61.5l-402 -1454q-10 -29 -10 -55q0 -47 39 -47q31 0 61.5 35.5t63.5 125.5l35 99h39l-49 -150q-37 -117 -110 -164t-161 -47 q-127 0 -162 95q-16 37 -16 86q0 59 25 145l2 8q-78 -174 -165 -254t-208 -80q-109 0 -176.5 72t-67.5 215zM311 215q0 -72 15.5 -106.5t50.5 -34.5q41 0 96 60.5t115.5 175t109.5 272.5l103 387q-23 71 -80 71h-2q-88 0 -183.5 -126t-160 -318.5t-64.5 -380.5z" />
<glyph unicode="e" horiz-adv-x="960" d="M6 260q0 182 98.5 376.5t268.5 322.5t372 128q94 0 153.5 -41.5t59.5 -119.5q0 -170 -190 -297t-442 -197q-12 -70 -13 -139q0 -109 40 -154t118 -45q63 0 143 40t156 128l33 -16q-74 -115 -198 -195t-277 -80q-141 0 -231.5 76t-90.5 213zM332 471q145 63 225 137 q82 74 129 169t47 204q0 39 -8 53.5t-25 14.5q-59 0 -135 -84t-139.5 -218.5t-93.5 -275.5z" />
<glyph unicode="f" horiz-adv-x="698" d="M-92 -385l377 1403h-172l12 41h170q45 166 102.5 275.5t134.5 172.5q115 94 289 95q127 0 199 -53.5t72 -143.5q0 -68 -54.5 -123t-134.5 -55q-61 0 -96 28.5t-35 81.5q0 68 43 121t115 80q-10 12 -28.5 19.5t-41.5 7.5q-61 0 -108 -41q-37 -33 -63.5 -104.5 t-61.5 -202.5l-43 -158h219l-12 -41h-218l-368 -1374q-172 -2 -297 -29z" />
<glyph unicode="g" horiz-adv-x="966" d="M-211 -236q0 72 114.5 122.5t260.5 66.5l8 -31q-127 -70 -127 -162q0 -57 43 -86.5t119 -29.5t159 29.5t138 79.5t55 108q0 33 -23.5 48t-82.5 32l-291 84q-55 16 -89 50t-34 83q0 74 87 137t280 145h-21q-137 0 -222 57.5t-85 172.5q0 94 58.5 190t173 160.5t272.5 64.5 q86 0 159 -22q37 51 93.5 83t115.5 32q64 0 98.5 -35t34.5 -96q0 -55 -28.5 -87t-67.5 -32q-41 0 -71.5 31.5t-30.5 87.5q0 39 18 90q-80 -35 -123 -93q53 -27 82 -74.5t29 -115.5q0 -86 -48 -171t-136.5 -147.5t-204.5 -84.5q-115 -51 -165 -82t-50 -60q0 -18 22.5 -31.5 t69.5 -27.5l172 -57q109 -37 171 -85.5t62 -136.5q0 -98 -85 -181t-228 -132t-309 -49q-160 0 -266.5 43t-106.5 112zM354 598q0 -66 16.5 -93.5t49.5 -27.5q92 0 141 138.5t49 304.5q0 61 -13 95t-52 34q-59 0 -103.5 -72t-66 -177.5t-21.5 -201.5z" />
<glyph unicode="h" horiz-adv-x="1167" d="M-37 0l406 1366q10 37 10 57q0 41 -32 59.5t-107 18.5l12 43q143 2 257 22.5t220 61.5l-278 -952q104 231 205.5 321t230.5 90q96 0 141 -44t45 -119q0 -66 -29 -146l-200 -604q-12 -37 -13 -59q0 -43 41 -43q68 0 127 161l37 99h39l-51 -150q-74 -211 -274 -211 q-186 0 -187 166q0 74 31 160l182 553q18 59 19 90q0 45 -39 45q-57 0 -136 -106.5t-161 -286.5t-150 -393l-49 -172q-2 -2 -2 -7v3l-6 -23h-289z" />
<glyph unicode="i" horiz-adv-x="659" d="M51 721l58 156q76 210 282 210h2q94 0 137 -46t43 -119q0 -59 -22 -121l-215 -627q-12 -37 -12 -59q0 -43 41 -43q31 0 62.5 34.5t66.5 126.5l36 99h39l-53 -150q-72 -211 -276 -211q-186 0 -187 170q0 68 31 156l201 588q14 47 14 61q0 41 -37 41t-67.5 -38t-63.5 -124 l-41 -104h-39zM362 1401q3 84 62 133t147 49q72 0 112 -33.5t40 -93.5q0 -82 -61.5 -135t-151.5 -53q-74 0 -113 36q-35 32 -35 86v11z" />
<glyph unicode="j" horiz-adv-x="616" d="M-283 -385l9 37q104 4 181 81t113 230l259 922q12 41 12 63q0 39 -37 39q-35 0 -66.5 -38t-62.5 -124l-39 -104h-39l55 156q39 113 115 161.5t170 48.5q176 0 176 -161q0 -57 -20 -125l-170 -608q-41 -172 -102.5 -283t-159.5 -184q-150 -111 -394 -111zM352 1395 q0 86 59.5 139t151.5 53q72 0 111.5 -32.5t39.5 -92.5q0 -80 -61.5 -135t-151.5 -55q-72 0 -110.5 31.5t-38.5 91.5z" />
<glyph unicode="k" horiz-adv-x="1130" d="M-37 0l406 1366q10 37 10 57q0 41 -32 59.5t-107 18.5l12 43q143 2 257 22.5t220 61.5l-297 -1016q76 12 124 50t74.5 85.5t55.5 122.5q23 63 44.5 103.5t53.5 66.5q57 47 127 47q95 0 143 -52t48 -132q0 -78 -47 -129t-125 -51q-61 0 -96 32.5t-35 82.5q0 61 39 111 t96 81q-10 16 -33 17q-49 0 -86 -31q-27 -23 -44 -56.5t-46 -101.5q-41 -106 -88 -171.5t-135 -88.5q342 -8 342 -223q0 -31 -6 -66l-31 -151q-6 -27 -6 -45q0 -23 9 -32t28 -9q68 0 125 161l36 99h39l-51 -150q-74 -211 -295 -211q-82 0 -126 41t-44 119q0 41 8 76l35 158 q12 49 13 84q0 59 -36 89.5t-120 43.5l-170 -582h-289z" />
<glyph unicode="l" horiz-adv-x="614" d="M14 154q0 63 25 143l321 1069q10 37 11 57q0 41 -32 59.5t-108 18.5l15 43q141 2 253.5 22.5t221.5 61.5l-430 -1454q-8 -26 -8 -51q0 -51 43 -51q63 0 123 161l36 99h39l-51 -150q-39 -115 -112.5 -163t-159.5 -48q-92 0 -139.5 48.5t-47.5 134.5z" />
<glyph unicode="m" horiz-adv-x="1753" d="M31 0l250 885q10 35 10 59q0 43 -37 43t-66.5 -38t-62.5 -124l-39 -104h-39l55 156q41 113 114 161.5t163 48.5q88 0 127 -45t39 -118q0 -53 -19 -123l-45 -176q100 250 206 356t253 106q162 0 162 -159q0 -57 -25 -150l-37 -131q102 244 208 342t243 98q86 0 127 -43 t41 -116q0 -68 -29 -150l-200 -604q-12 -39 -13 -59q0 -43 39 -43q70 0 129 161l37 99h39l-51 -150q-74 -211 -277 -211q-119 0 -164 74q-22 34 -22 87q0 73 31 165l184 553q16 53 16 82q0 41 -28 41q-84 0 -202 -202t-237 -587v6l-53 -190h-293l250 850q16 53 16 84 q0 39 -32 39q-92 0 -208 -213t-218 -555v2l-54 -207h-288z" />
<glyph unicode="n" horiz-adv-x="1234" d="M33 0l248 885q12 37 12 65q0 37 -35 37q-39 0 -68.5 -36t-62.5 -126l-39 -104h-39l55 156q39 113 104.5 161.5t160.5 48.5q176 0 176 -167q0 -57 -17 -119l-63 -248q84 209 160.5 324.5t155.5 162.5t175 47q184 0 185 -163q0 -61 -27 -146l-201 -604q-12 -37 -12 -59 q0 -43 39 -43q33 0 64.5 34.5t64.5 126.5l37 99h39l-51 -150q-74 -211 -275 -211q-115 0 -164 68q-26 38 -26 92q0 70 33 166l184 553q18 55 18 88q0 47 -39 47q-61 0 -148 -125t-175 -328.5t-154 -429.5l-26 -102h-289z" />
<glyph unicode="o" horiz-adv-x="1083" d="M25 309q0 168 76.5 350.5t227 305t359.5 122.5q160 0 246 -87t86 -250q0 -168 -77 -350.5t-227.5 -305.5t-359.5 -123q-160 0 -245.5 87t-85.5 251zM299 152q0 -74 16.5 -107t53.5 -33q76 0 165 141.5t150 351.5t61 398q0 80 -16 112t-51 32q-76 0 -166 -145.5 t-151.5 -356.5t-61.5 -393z" />
<glyph unicode="p" horiz-adv-x="1193" d="M-186 -371l12 43q74 0 106.5 27t53.5 100l370 1329q-57 -127 -130.5 -228t-180.5 -210l-22 27q90 98 149 171t119.5 178t120.5 257l6 25q166 12 305 57l-176 -625q74 160 155.5 233.5t176.5 73.5q125 0 189.5 -80.5t64.5 -234.5q0 -168 -75 -355.5t-214 -316.5t-324 -129 q-57 0 -106 18.5t-78 53.5l-55 -197q-12 -43 -13 -73q0 -57 41 -78t129 -23l-12 -43l-47 2q-209 6 -277 7q-68 0 -288 -9zM346 78q39 -47 94 -47q97 0 188 124t148.5 307t57.5 347q0 96 -17.5 133t-50.5 37q-61 0 -139 -119t-144 -301z" />
<glyph unicode="q" horiz-adv-x="1128" d="M16 287q0 164 83 353t229.5 318t324.5 129q59 0 106.5 -23.5t69.5 -64.5q104 8 267 91l32 -15q-25 -49 -45 -121l-303 -1132q-10 -35 -10 -58q0 -45 34 -66.5t101 -25.5l-12 -43l-49 2q-209 6 -269 7q-72 0 -301 -9l13 43q94 2 139 35t66 109l131 491q-80 -178 -164 -257 t-189 -79q-125 0 -189.5 81t-64.5 235zM315 221q0 -70 17.5 -99.5t52.5 -29.5q49 0 110.5 72t118 191.5t88.5 254.5l-6 -30l109 401q-39 47 -94 47q-96 0 -187.5 -135t-150 -327.5t-58.5 -344.5z" />
<glyph unicode="r" horiz-adv-x="962" d="M31 0l250 885q10 33 10 63q0 39 -33 39q-39 0 -69.5 -37t-63.5 -125l-39 -104h-39l55 156q76 210 281 210h2q158 0 158 -165q0 -59 -17 -121l-16 -66q76 195 154.5 273.5t189.5 78.5q78 0 122 -46t44 -119q0 -88 -56.5 -150.5t-138.5 -62.5q-59 0 -92 31.5t-33 90.5 q0 72 49.5 130.5t120.5 74.5q-4 0 -12 3t-14 3q-104 0 -213 -151.5t-221 -540.5l-91 -350h-288z" />
<glyph unicode="s" horiz-adv-x="860" d="M-39 209q0 61 31 104t84 43t85 -45t32 -114q0 -45 -10.5 -81t-30.5 -87q30 -15 79 -15q78 0 125 47.5t47 128.5q0 66 -28.5 135.5t-85.5 157.5q-8 12 -48 73.5t-59.5 118t-19.5 111.5q0 133 99 217t274 84q133 0 222 -48t89 -165q0 -57 -33 -104t-92 -47q-51 0 -82 39 t-31 98q0 51 18.5 95t45.5 75q-27 16 -72 17q-74 0 -116 -46.5t-44 -128.5q0 -55 21.5 -100t73.5 -127l28 -43q66 -109 93.5 -178.5t27.5 -138.5q0 -90 -47 -161t-134 -112t-204 -41q-145 0 -241.5 56.5t-96.5 181.5z" />
<glyph unicode="t" horiz-adv-x="722" d="M66 174q0 59 18 123l207 721h-185l11 41h186l88 305q174 2 297 29l-96 -334h231l-6 -41h-237l-244 -844q-6 -20 -6 -41q0 -31 16 -46t45 -15q45 0 87 44t75 132l31 84h39l-41 -119q-80 -242 -308 -242q-104 0 -156 54.5t-52 148.5z" />
<glyph unicode="u" horiz-adv-x="1222" d="M49 727l51 150q74 210 273 210h2q186 0 186 -169q0 -63 -29 -156l-184 -553q-18 -55 -18 -88q0 -47 39 -47q61 0 145 120.5t169 320.5t151 429l30 115q182 4 297 28l-256 -913q-12 -43 -12 -68q0 -35 35 -34q39 0 69.5 36.5t61.5 124.5l39 105h39l-56 -156 q-39 -113 -111.5 -162t-162.5 -49q-55 0 -94 18.5t-58 51.5q-18 37 -18 84t20 133l56 211q-80 -193 -154 -301.5t-149.5 -152.5t-169.5 -44q-92 0 -138.5 43t-46.5 125q0 63 27 142l199 604q12 37 12 59q0 43 -39 43q-33 0 -64.5 -34.5t-64.5 -127.5l-37 -98h-39z" />
<glyph unicode="v" horiz-adv-x="1075" d="M59 723l45 149q59 217 193 218q25 0 43 -7.5t47 -23.5q31 -18 56.5 -27.5t62.5 -9.5q84 0 149 43l21 39l43 -21q-152 -219 -242 -455.5t-90 -412.5q0 -78 22.5 -115t69.5 -37q121 0 221.5 94.5t166 236t89.5 280.5q-88 43 -144 114.5t-56 159.5q0 66 35.5 102.5 t97.5 36.5q73 0 107 -62q30 -55 30 -150v-23q-10 -207 -88 -410.5t-225.5 -337t-352.5 -133.5q-154 0 -221 70t-67 174q0 338 549 789q-49 -6 -87 -29t-90 -66q-43 -37 -71.5 -54t-59.5 -17q-27 0 -63 20q-33 18 -53 19q-29 0 -46.5 -21.5t-35.5 -77.5l-17 -55h-39z" />
<glyph unicode="w" horiz-adv-x="1392" d="M4 221q0 121 88 245t227.5 244.5t366.5 290.5q-51 -8 -93 -31.5t-95 -62.5q-45 -35 -76 -52t-64 -17q-29 0 -65 20q-29 18 -53 19q-27 0 -45.5 -23t-34.5 -76l-19 -55h-39l45 149q37 117 86.5 163t108.5 46q25 0 45.5 -6t48.5 -20q6 -2 31 -12.5t52.5 -15.5t55.5 -5 q84 0 158 43l23 39l43 -21q-213 -217 -347.5 -449.5t-134.5 -420.5q0 -78 25 -115t80 -37q72 0 143 54q-24 53 -24 131v6q0 119 54 231.5t133 182t142 69.5q78 0 78 -135q0 -111 -44 -215t-132 -195q51 -94 156 -94q102 0 174 81t106.5 205t34.5 249q0 45 -2 65 q-115 45 -191.5 108.5t-76.5 164.5q0 49 32.5 83.5t88.5 34.5q94 0 138 -108.5t52 -247.5q4 -53 4 -80q0 -166 -54 -322.5t-161.5 -257t-259.5 -100.5q-164 0 -233 113q-129 -113 -301 -113q-133 0 -204 71t-71 179zM737 352q0 -68 19 -123q68 78 106.5 174.5t38.5 190.5 q0 96 -35 96q-26 0 -57 -49t-51.5 -128t-20.5 -161z" />
<glyph unicode="x" horiz-adv-x="1157" d="M-84 100q0 68 45 111t111 43q121 0 178 -137q106 121 178 301l-53 469q-8 49 -25.5 67.5t-46.5 18.5q-31 0 -59.5 -34t-63.5 -134l-26 -76h-39l51 150q41 119 114.5 163.5t168.5 44.5q100 0 155 -48t68 -169l14 -120q53 123 125 213q97 124 223 124h2q66 0 108 -35.5 t42 -99.5q0 -63 -43 -105t-111 -42q-61 0 -110.5 33.5t-71.5 103.5q-90 -102 -156 -272l56 -498q8 -51 25.5 -72.5t43.5 -21.5q33 0 61.5 37t63.5 139l27 76h39l-52 -150q-70 -209 -274 -209q-96 0 -155.5 46t-71.5 155l-19 164q-68 -145 -145 -240q-109 -125 -227 -125 q-70 0 -110 35t-40 94z" />
<glyph unicode="y" horiz-adv-x="987" d="M-221 -270q0 55 40 91t101 36q121 0 219 -142q147 72 267 189l-160 979q-10 57 -21.5 76.5t-31.5 19.5q-23 0 -43.5 -30.5t-53.5 -121.5l-37 -100h-39l52 150q41 117 103.5 163.5t148.5 46.5q88 0 137 -49t67 -172l95 -702q90 129 155.5 263t95.5 257q-84 45 -137 114 q-51 67 -51 144v6q0 63 37 101t100 38q135 0 135 -186q0 -184 -118.5 -439t-284.5 -454q-104 -125 -230 -221t-259 -141q-82 -31 -146 -31q-66 0 -103.5 30.5t-37.5 84.5z" />
<glyph unicode="z" horiz-adv-x="950" d="M-106 0l995 956q-53 -25 -166 -98q-72 -49 -120 -73.5t-91 -24.5q-35 0 -59.5 8t-59.5 27q-29 16 -50 23t-46 7q-37 0 -56.5 -18.5t-19.5 -52.5q0 -41 30 -70t89 -47l-12 -31q-217 51 -217 213q0 104 75.5 180t216.5 76q57 0 100.5 -13t100.5 -40q55 -27 98 -40t99 -13 q61 0 103 19.5t85 68.5h60l-981 -942q53 25 139 82q76 47 115.5 67.5t80.5 20.5q33 0 57.5 -8.5t63.5 -26.5q29 -16 50.5 -23.5t46.5 -7.5q37 0 56 20.5t19 51.5q0 45 -33.5 74.5t-84.5 42.5l12 30q111 -25 164 -78t53 -141q0 -104 -66.5 -173t-193.5 -69q-57 0 -102.5 14.5 t-98.5 41.5q-63 29 -106 42t-101 13q-59 0 -102 -19.5t-84 -68.5h-59z" />
<glyph unicode="{" horiz-adv-x="739" d="M57 -151q0 80 39 240q68 272 67 376q-2 61 -24.5 89t-71.5 32h-10l6 37h10q66 6 111 50t83 147.5t87 300.5q47 193 119.5 297t180 144t275.5 40l-10 -39q-72 -2 -110.5 -29.5t-73.5 -116.5t-86 -296q-45 -178 -116 -283.5t-170 -157t-245 -75.5q166 -37 236 -110t70 -191 q0 -84 -33 -215q-59 -242 -60 -324q0 -63 27 -86t90 -25l-10 -39q-211 -2 -296 55.5t-85 178.5z" />
<glyph unicode="|" horiz-adv-x="755" d="M307 -399v2156h180v-2156h-180z" />
<glyph unicode="}" horiz-adv-x="739" d="M-188 -385l10 39q72 2 110.5 29.5t73.5 116.5t86 296q45 178 116 283.5t170 157t245 75.5q-166 37 -236 110t-70 191q0 84 33 215q59 242 60 324q0 63 -27 86t-90 25l10 39q211 2 296 -55.5t85 -178.5q0 -80 -39 -240q-68 -272 -67 -376q2 -61 24.5 -89t71.5 -32h10 l-6 -37h-10q-66 -6 -111 -50t-83 -147.5t-87 -300.5q-47 -193 -119.5 -297t-180 -144t-275.5 -40z" />
<glyph unicode="~" horiz-adv-x="1320" d="M100 487q57 147 167 232.5t245 85.5q72 0 126 -20.5t128 -61.5q72 -39 120 -58.5t109 -19.5q135 0 209 119l29 -10q-57 -147 -167 -232.5t-245 -85.5q-71 0 -126.5 21.5t-127.5 62.5q-74 39 -121 57.5t-108 18.5q-135 0 -209 -119z" />
<glyph unicode="&#xa1;" horiz-adv-x="606" d="M-86 -246q6 68 42 150t114 231q88 172 138 283.5t83 234.5l37 -6q-35 -137 -46.5 -273t-15.5 -319q-4 -166 -10 -241q-4 -96 -55 -147.5t-146 -51.5q-72 0 -109.5 36t-31.5 103zM229 895q0 82 57.5 137t141.5 55q66 0 102.5 -32.5t36.5 -91.5q0 -74 -60.5 -132.5 t-139.5 -58.5q-66 0 -102 33t-36 90z" />
<glyph unicode="&#xa2;" horiz-adv-x="976" d="M18 287q0 162 77 337t216.5 303t319.5 154l98 369h45l-98 -365q14 2 41 2q113 0 181.5 -56t68.5 -140q0 -55 -27 -108.5t-74 -86t-102 -32.5q-51 0 -84 32.5t-33 85.5q0 80 55.5 142.5t131.5 81.5q-35 41 -99 41q-35 0 -73 -17l-252 -934q29 -14 71 -14q147 0 271 180 l41 -16q-70 -111 -175.5 -187.5t-240.5 -87.5l-92 -342h-45l92 342q-143 4 -228.5 84t-85.5 232zM326 287q0 -111 47 -162l235 874q-78 -55 -142.5 -165.5t-102 -255t-37.5 -291.5z" />
<glyph unicode="&#xa3;" horiz-adv-x="1376" d="M-57 -8q0 39 53 84t149 65q41 82 75 168t71 219l20 80h-198l12 41h199l43 164h-199l12 41h197l12 45q74 276 244 442t448 166q111 0 176.5 -53t65.5 -133q0 -90 -53 -148.5t-133 -58.5q-63 0 -100.5 34t-37.5 95q0 74 44 129t116 72q-4 14 -28.5 23.5t-57.5 9.5 q-121 0 -187.5 -89.5t-113.5 -265.5l-70 -268h279l-12 -41h-279l-10 -43q-18 -70 -43 -121h289l-13 -41h-297q-39 -68 -87 -118t-126 -115q-72 -61 -123 -112.5t-96 -117.5q193 166 379 166q68 0 120 -11t126 -34q53 -18 89 -26.5t73 -8.5q45 0 75.5 24t30.5 64 q0 86 -143 115l10 37q113 -18 187.5 -73.5t74.5 -151.5q0 -74 -41 -137.5t-112.5 -100.5t-161.5 -37q-78 0 -136.5 21.5t-142.5 64.5q-80 43 -139 64.5t-135 21.5q-86 0 -168 -30q-41 -70 -95.5 -106t-105.5 -36q-14 0 -20 4.5t-6 16.5z" />
<glyph unicode="&#xa4;" horiz-adv-x="1347" d="M170 283l119 118q-57 96 -58 213q0 111 60 213l-121 119l174 174l119 -119q94 59 215 60q117 0 213 -60l121 121l174 -174l-121 -121q59 -102 59 -213q0 -113 -59 -215l119 -118l-174 -175l-121 121q-96 -57 -211 -57q-123 0 -213 57l-119 -118zM444 614q0 -110 69 -181 t167 -71t166.5 71t68.5 181q0 111 -68.5 182.5t-166.5 71.5t-167 -71.5t-69 -182.5z" />
<glyph unicode="&#xa5;" horiz-adv-x="1589" d="M207 1102l51 158q39 117 111.5 168t177.5 51q133 0 210 -83t114.5 -235.5t66.5 -412.5q68 193 154 346t182 258q117 127 242 127q88 0 139 -50.5t51 -125.5q0 -78 -52 -131.5t-134 -53.5q-68 0 -105 34t-37 91q2 68 45 118t111 71q-10 8 -35 8q-61 0 -123 -47 q-92 -66 -208.5 -253.5t-211.5 -461.5l-18 -70h272l-10 -41h-272l-31 -123h268l-10 -41h-268l-47 -186q-12 -49 -13 -82q0 -53 35 -71.5t123 -22.5l-10 -41q-117 6 -352 6q-221 0 -330 -6l10 41q74 4 111 16.5t59.5 48t40.5 111.5l47 186h-289l11 41h288l31 123h-285l11 41 h284l13 49q-33 281 -90.5 475.5t-145.5 194.5q-35 0 -56.5 -24.5t-37.5 -71.5l-43 -129h-45z" />
<glyph unicode="&#xa6;" horiz-adv-x="761" d="M311 -399v1067h181v-1067h-181zM311 786v971h181v-971h-181z" />
<glyph unicode="&#xa7;" horiz-adv-x="1179" d="M-25 -199q0 78 55.5 135.5t137.5 57.5q57 0 90 -28.5t33 -76.5q0 -63 -41 -113t-105 -75q8 -20 53.5 -33.5t94.5 -13.5q113 0 192.5 67.5t79.5 190.5q0 72 -43 125t-145 137q-12 8 -22.5 18.5t-22.5 18.5q-94 80 -144.5 128t-80 102.5t-29.5 117.5q0 246 336 408 q-92 104 -92 213q0 129 82.5 225t213 146.5t265.5 50.5q117 0 221 -43t104 -144q0 -78 -56 -135t-138 -57q-59 0 -92 30.5t-33 81.5q0 58 43 107t104 74q-10 23 -54 35t-93 12q-113 0 -194 -66.5t-81 -189.5q0 -70 42 -122t145 -141l47 -38q96 -82 146 -130.5t80 -101.5 t30 -117q0 -246 -338 -407q94 -104 94 -213q0 -129 -84 -225.5t-213 -146.5t-264 -50q-121 0 -222.5 42t-101.5 144zM324 731q0 -68 56 -134.5t193 -174.5q86 -68 164 -141q49 35 78 77.5t37 102.5q2 10 2 33q0 68 -54.5 130t-193.5 171q-117 94 -162 141 q-121 -90 -120 -205z" />
<glyph unicode="&#xa8;" horiz-adv-x="983" d="M322 1384q0 78 52 125t124 47q63 0 98 -36.5t35 -98.5q0 -80 -53 -126t-125 -46q-66 0 -98.5 37t-32.5 98zM787 1384q0 78 52 125t124 47q63 0 98 -36.5t35 -98.5q0 -80 -52 -126t-124 -46q-66 0 -99.5 37t-33.5 98z" />
<glyph unicode="&#xa9;" horiz-adv-x="1865" d="M166 786q0 222 109.5 409t297 297t408.5 110t408.5 -110t297 -297t109.5 -409q0 -221 -109.5 -408.5t-297 -297t-408.5 -109.5t-408.5 109.5t-297 297t-109.5 408.5zM248 786q0 -202 98 -374t267 -273.5t368 -101.5t368 101.5t267 273.5t98 374q0 203 -98 375t-267 273.5 t-368 101.5t-368 -101.5t-267 -273.5t-98 -375zM520 782q0 180 64.5 307.5t180.5 192t263 64.5q145 0 257 -66t112 -188q0 -72 -45 -118t-117 -46t-115 42t-43 111q0 61 38 105.5t97 60.5q-20 23 -60 37t-83 14q-115 0 -177.5 -108.5t-62.5 -380.5q0 -238 77 -343.5 t194 -105.5q170 0 268 205l37 -14q-41 -133 -144.5 -227.5t-263.5 -94.5q-213 0 -345 138.5t-132 414.5z" />
<glyph unicode="&#xaa;" horiz-adv-x="1089" d="M203 928q0 123 79.5 252t203.5 214t247 85q78 0 86 -72l15 53q150 0 266 19l-176 -557q-10 -35 -11 -52q0 -33 35 -32q59 0 90 90l19 51h39l-27 -74q-31 -88 -91 -128t-149 -40q-72 0 -110.5 31t-38.5 102q0 37 8 76q-59 -115 -131 -162t-156 -47q-96 0 -147 49.5 t-51 141.5zM475 938q0 -104 49 -104q45 0 106.5 83.5t106.5 204.5l66 230q-2 78 -49 78q-53 0 -120 -74t-113 -188.5t-46 -229.5z" />
<glyph unicode="&#xab;" horiz-adv-x="1200" d="M39 506l6 24q176 111 339 248t333 309h37q-62 -135 -187 -312t-221 -257q63 -76 120.5 -246t68.5 -301h-37q-106 166 -217 298t-242 237zM487 506l7 24q162 100 308 225.5t304 282.5h37q-51 -120 -163 -283t-198 -237q55 -68 105.5 -223.5t60.5 -274.5h-37 q-102 154 -202.5 273t-221.5 213z" />
<glyph unicode="&#xac;" horiz-adv-x="1323" d="M176 696l19 62h1026l-121 -420h-74l102 358h-952z" />
<glyph unicode="&#xad;" horiz-adv-x="1036" />
<glyph unicode="&#xae;" horiz-adv-x="1402" d="M244 1030q0 156 76.5 287t207.5 208t287 77t287 -77t207.5 -208t76.5 -287t-76.5 -287t-207.5 -207.5t-287 -76.5t-287 76.5t-207.5 207.5t-76.5 287zM330 1030q0 -137 64.5 -252.5t176 -184.5t244.5 -69t244.5 69t176 184.5t64.5 252.5t-64.5 253t-176 184.5 t-244.5 68.5t-244.5 -68.5t-176 -184.5t-64.5 -253zM537 721v31q31 4 39 16t8 59v449q0 47 -8.5 60.5t-38.5 17.5v30q29 -2 127 -2l176 2q250 0 250 -161q0 -55 -47.5 -101.5t-163.5 -66.5q94 -8 132 -35t50 -84l31 -133q6 -27 12 -38t18 -11q14 0 23 12l16 -21 q-31 -37 -106 -36q-66 0 -98.5 21.5t-43.5 66.5l-30 149q-8 37 -18.5 54.5t-35 26.5t-75.5 11v-211q0 -47 8 -59t39 -16v-31l-129 2zM754 1073h24q139 0 140 137q0 72 -27 108t-84 36q-33 0 -43 -11.5t-10 -46.5v-223z" />
<glyph unicode="&#xaf;" horiz-adv-x="892" d="M321 1407l12 51h688l-12 -51h-688z" />
<glyph unicode="&#xb0;" horiz-adv-x="681" d="M287 1434q0 111 72.5 178t175.5 67q104 0 176.5 -67.5t72.5 -177.5q0 -111 -72.5 -179.5t-176.5 -68.5q-102 0 -175 68.5t-73 179.5zM336 1434q0 -98 60.5 -153.5t138.5 -55.5q77 0 138.5 55t61.5 154q0 94 -62.5 150t-137.5 56q-76 0 -137.5 -56t-61.5 -150z" />
<glyph unicode="&#xb1;" horiz-adv-x="1265" d="M-49 0l18 62h1026l-18 -62h-1026zM145 696l19 62h477l137 483h74l-137 -483h475l-19 -62h-475l-137 -481h-74l138 481h-478z" />
<glyph unicode="&#xb2;" horiz-adv-x="729" d="M156 895l8 37q27 18 67 45q168 113 272.5 209t104.5 196q0 84 -102 84q-111 0 -203 -98l-29 23q57 66 145.5 109.5t198.5 43.5q84 0 134.5 -28.5t50.5 -85.5q0 -80 -79 -150t-220 -158q-84 -53 -107 -69q43 0 127 -19q12 -2 55.5 -10t69.5 -8q39 0 61.5 15.5t22.5 45.5 q0 20 -8 37l35 14q33 -51 33 -100q0 -61 -49.5 -101t-141.5 -40q-41 0 -131 16q-106 20 -178 21q-39 0 -67.5 -6.5t-69.5 -22.5z" />
<glyph unicode="&#xb3;" horiz-adv-x="694" d="M78 711v37q117 10 227.5 50t181 108.5t70.5 158.5q0 96 -88 106q-39 -20 -66 -20q-14 0 -25 6t-11 21q0 39 90 34q76 33 121 80t45 103q0 39 -24 57t-64 18q-111 0 -222 -104l-28 25q55 59 146 106t196 47q86 0 137 -27.5t51 -82.5q0 -80 -107.5 -144.5t-226.5 -89.5 q125 -2 199 -38t74 -113q0 -96 -106.5 -169t-263.5 -116t-306 -53z" />
<glyph unicode="&#xb4;" horiz-adv-x="606" d="M281 1247q83 121 151 240q47 78 73 115.5t56 68.5q23 25 53.5 39t59.5 14q43 0 74 -30q29 -29 28 -62q0 -53 -59 -112q-49 -49 -170 -125q-143 -92 -246 -168z" />
<glyph unicode="&#xb6;" horiz-adv-x="1449" d="M82 469q0 268 128 493.5t349 357.5t488 132q74 0 200 -4l168 -2q133 0 197 4l-10 -39q-94 -4 -134.5 -36t-60.5 -103l-293 -1116q-68 -256 -214 -398.5t-400 -142.5q-129 0 -208 37t-79 117q0 68 48 112.5t128 44.5q68 0 110 -30.5t42 -83.5q0 -98 -109 -156q18 -6 57 -6 q88 0 140.5 75.5t103.5 247.5q-340 0 -495.5 131.5t-155.5 364.5zM299 719q-2 -10 167 -25.5t380 -15.5q-41 -174 -60.5 -323.5t-19.5 -223.5q0 -33 4 -33q51 193 165 620t169 625q-8 0 -49 -84.5t-92.5 -218t-94.5 -278.5q-141 0 -270 -8.5t-213 -19.5t-86 -15z" />
<glyph unicode="&#xb7;" horiz-adv-x="591" d="M111 506q0 82 57.5 137.5t141.5 55.5q66 0 102.5 -33t36.5 -92q0 -74 -60.5 -132.5t-140.5 -58.5q-66 0 -101.5 33t-35.5 90z" />
<glyph unicode="&#xb8;" horiz-adv-x="694" d="M-115 -344l13 31q4 -2 37.5 -12.5t87.5 -10.5q55 0 107 20.5t52 73.5q0 23 -15 35t-42 12q-35 0 -63 -14l141 209h57l-90 -141q61 20 111 20q55 0 89 -22.5t34 -63.5q0 -90 -101.5 -134t-234.5 -44q-57 0 -106.5 12.5t-76.5 28.5z" />
<glyph unicode="&#xb9;" horiz-adv-x="548" d="M219 1298l10 39q145 39 232.5 86t187.5 119h39l-207 -647h-194l155 479q-12 -6 -74.5 -30.5t-148.5 -45.5z" />
<glyph unicode="&#xba;" horiz-adv-x="1005" d="M215 989q0 101 61.5 215.5t180 194.5t278.5 80q152 0 237 -63.5t85 -188.5q0 -100 -61.5 -215t-180.5 -194t-278 -79q-150 0 -236 62.5t-86 187.5zM473 895q0 -119 74 -119q61 0 119.5 84t95.5 213t37 250q0 119 -74 119q-59 0 -118.5 -85t-96.5 -213t-37 -249z" />
<glyph unicode="&#xbb;" horiz-adv-x="1198" d="M20 20q51 121 162 283t195 236q-53 70 -103.5 226.5t-60.5 272.5h37q104 -155 203.5 -274t220.5 -213l-6 -25q-164 -102 -311.5 -226t-299.5 -280h-37zM408 -29q61 135 187 312.5t220 255.5q-63 76 -120.5 246.5t-67.5 301.5h37q108 -167 217.5 -299.5t242.5 -236.5 l-6 -25q-178 -113 -342 -249t-332 -306h-36z" />
<glyph unicode="&#xbc;" horiz-adv-x="1368" d="M-232 -86l1706 1774l31 -27l-1706 -1774zM219 1298l10 39q145 39 232.5 86t187.5 119h39l-207 -647h-194l155 479q-12 -6 -74.5 -30.5t-148.5 -45.5zM282 16l10 37l689 596h38l-149 -512h106l-34 -121h-107l-55 -190h-156l56 190h-398zM446 137h268l90 309z" />
<glyph unicode="&#xbd;" horiz-adv-x="1271" d="M-232 -86l1706 1774l31 -27l-1706 -1774zM219 1298l10 39q145 39 232.5 86t187.5 119h39l-207 -647h-194l155 479q-12 -6 -74.5 -30.5t-148.5 -45.5zM497 0l9 37q27 18 67 45q168 113 272.5 209t104.5 196q0 84 -102 84q-111 0 -203 -98l-29 23q57 66 145.5 109.5 t198.5 43.5q84 0 134.5 -28.5t50.5 -85.5q0 -80 -79 -150t-220 -158q-84 -53 -107 -69q43 0 127 -19q12 -2 55 -10t70 -8q39 0 61.5 15.5t22.5 45.5q0 20 -8 37l35 14q33 -51 32 -100q0 -61 -49 -101t-141 -40q-41 0 -131 16q-106 20 -178 21q-39 0 -68 -6.5t-70 -22.5z" />
<glyph unicode="&#xbe;" horiz-adv-x="1536" d="M-27 -86l1706 1774l31 -27l-1706 -1774zM78 711v37q117 10 227.5 50t181 108.5t70.5 158.5q0 96 -88 106q-39 -20 -66 -20q-14 0 -25 6t-11 21q0 39 90 34q76 33 121 80t45 103q0 39 -24 57t-64 18q-111 0 -222 -104l-28 25q55 59 146 106t196 47q86 0 137 -27.5 t51 -82.5q0 -80 -107.5 -144.5t-226.5 -89.5q125 -2 199 -38t74 -113q0 -96 -106.5 -169t-263.5 -116t-306 -53zM487 16l10 37l689 596h38l-149 -512h106l-34 -121h-107l-55 -190h-156l56 190h-398zM651 137h268l90 309z" />
<glyph unicode="&#xbf;" horiz-adv-x="999" d="M-90 -156q0 59 32.5 109.5t97 100.5t189.5 134q113 78 161 116t77 81t29 96t-34 89t-102 36q-45 0 -90 -13t-65 -36q39 -2 70.5 -32.5t31.5 -75.5q0 -49 -40 -84t-101 -35q-51 0 -82 26.5t-31 77.5q0 74 61.5 122t153.5 70.5t183 22.5q147 0 242 -56t95 -157 q0 -66 -41.5 -123t-100 -103t-169.5 -122q-152 -100 -209 -157.5t-57 -131.5q0 -66 46 -102.5t126 -36.5q47 0 100.5 13.5t77.5 37.5q-51 6 -87 43t-36 88q2 57 47 95t109 38q57 0 96 -32.5t39 -94.5q0 -117 -133 -175t-305 -58q-174 0 -277.5 60.5t-103.5 168.5zM428 895 q0 82 57.5 137t141.5 55q66 0 102.5 -32.5t36.5 -91.5q0 -74 -60.5 -132.5t-140.5 -58.5q-66 0 -101.5 33t-35.5 90z" />
<glyph unicode="&#xc0;" horiz-adv-x="1337" d="M-188 0l8 41q53 14 103 61.5t128 155.5l854 1202q18 -2 53 -2q37 0 52 2l82 -1288q6 -68 34.5 -98.5t65.5 -32.5l-8 -41q-104 6 -297 6q-209 0 -307 -6l8 41q70 4 108.5 17.5t55 49t12.5 105.5l-19 336h-442l-180 -256q-66 -92 -66 -152q0 -49 44 -72.5t128 -27.5 l-10 -41q-172 6 -266 6q-76 0 -141 -6zM332 590h411l-26 543zM600 1843q0 29 15 51q29 49 92 50q43 0 78 -23q29 -18 50 -43t62 -76q10 -12 57.5 -72.5t116.5 -127.5l-16 -23q-113 51 -246 96q-14 6 -62 23.5t-83 40.5q-29 16 -46.5 44.5t-17.5 59.5z" />
<glyph unicode="&#xc1;" horiz-adv-x="1337" d="M-188 0l8 41q53 14 103 61.5t128 155.5l854 1202q18 -2 53 -2q37 0 52 2l82 -1288q6 -68 34.5 -98.5t65.5 -32.5l-8 -41q-104 6 -297 6q-209 0 -307 -6l8 41q70 4 108.5 17.5t55 49t12.5 105.5l-19 336h-442l-180 -256q-66 -92 -66 -152q0 -49 44 -72.5t128 -27.5 l-10 -41q-172 6 -266 6q-76 0 -141 -6zM332 590h411l-26 543zM928 1606q80 63 141.5 120.5t73.5 67.5q63 59 99 89t75 52q39 23 88 23q72 0 99 -55q10 -18 10 -41q0 -35 -24.5 -65t-67.5 -52q-35 -18 -87.5 -36.5t-109.5 -35.5q-154 -41 -283 -92z" />
<glyph unicode="&#xc2;" horiz-adv-x="1337" d="M-188 0l8 41q53 14 103 61.5t128 155.5l854 1202q18 -2 53 -2q37 0 52 2l82 -1288q6 -68 34.5 -98.5t65.5 -32.5l-8 -41q-104 6 -297 6q-209 0 -307 -6l8 41q70 4 108.5 17.5t55 49t12.5 105.5l-19 336h-442l-180 -256q-66 -92 -66 -152q0 -49 44 -72.5t128 -27.5 l-10 -41q-172 6 -266 6q-76 0 -141 -6zM332 590h411l-26 543zM514 1608q170 53 317.5 138t237.5 179h37q47 -115 111.5 -189.5t172.5 -127.5l-8 -29q-133 23 -222 50.5t-190 70.5q-213 -78 -446 -121z" />
<glyph unicode="&#xc3;" horiz-adv-x="1337" d="M-188 0l8 41q53 14 103 61.5t128 155.5l854 1202q18 -2 53 -2q37 0 52 2l82 -1288q6 -68 34.5 -98.5t65.5 -32.5l-8 -41q-104 6 -297 6q-209 0 -307 -6l8 41q70 4 108.5 17.5t55 49t12.5 105.5l-19 336h-442l-180 -256q-66 -92 -66 -152q0 -49 44 -72.5t128 -27.5 l-10 -41q-172 6 -266 6q-76 0 -141 -6zM332 590h411l-26 543zM555 1614q55 143 146.5 213.5t193.5 70.5q72 0 120 -21.5t105 -59.5q49 -35 83 -51.5t81 -16.5q45 0 83 27.5t75 91.5l37 -10q-55 -143 -147.5 -214t-192.5 -71q-74 0 -121 21.5t-106 62.5q-49 33 -82 49t-80 16 q-45 0 -83 -27.5t-75 -90.5z" />
<glyph unicode="&#xc4;" horiz-adv-x="1337" d="M-188 0l8 41q53 14 103 61.5t128 155.5l854 1202q18 -2 53 -2q37 0 52 2l82 -1288q6 -68 34.5 -98.5t65.5 -32.5l-8 -41q-104 6 -297 6q-209 0 -307 -6l8 41q70 4 108.5 17.5t55 49t12.5 105.5l-19 336h-442l-180 -256q-66 -92 -66 -152q0 -49 44 -72.5t128 -27.5 l-10 -41q-172 6 -266 6q-76 0 -141 -6zM332 590h411l-26 543zM596 1704q0 80 51.5 127t124.5 47q63 0 98 -38t35 -99q0 -80 -53 -126t-125 -46q-63 0 -97 36.5t-34 98.5zM1088 1704q0 80 51 127t125 47q63 0 98 -38t35 -99q0 -80 -53.5 -126t-124.5 -46q-66 0 -98.5 36.5 t-32.5 98.5z" />
<glyph unicode="&#xc5;" horiz-adv-x="1337" d="M-188 0l8 41q53 14 103 61.5t128 155.5l854 1202q18 -2 53 -2q37 0 52 2l82 -1288q6 -68 34.5 -98.5t65.5 -32.5l-8 -41q-104 6 -297 6q-209 0 -307 -6l8 41q70 4 108.5 17.5t55 49t12.5 105.5l-19 336h-442l-180 -256q-66 -92 -66 -152q0 -49 44 -72.5t128 -27.5 l-10 -41q-172 6 -266 6q-76 0 -141 -6zM332 590h411l-26 543zM770 1696q0 94 72 158.5t176 64.5q86 0 143.5 -48t57.5 -126q0 -61 -36 -112.5t-94 -82t-124 -30.5q-86 0 -140.5 47t-54.5 129zM826 1696q0 -61 44 -97t103 -36q76 0 134.5 52t58.5 128q0 63 -46 98t-108 35 q-76 0 -131 -54.5t-55 -125.5z" />
<glyph unicode="&#xc6;" horiz-adv-x="1853" d="M-176 0v41q63 4 176 131l991 1167q-2 39 -31.5 52.5t-105.5 17.5l10 41q135 -4 217 -4l117 137h53l-116 -137q156 -2 391 -2q295 0 424 6q-27 -74 -78 -242q-18 -61 -27 -127h-45q14 80 15 146q0 96 -43 136t-138 40h-129q-72 0 -107.5 -11.5t-56 -46t-41.5 -112.5 l-129 -483h160q57 0 96 30.5t62.5 75.5t52.5 123h45q-33 -100 -55 -195l-14 -55q-23 -84 -54 -250h-45q0 33 6 64q4 45 5 63q0 45 -23 72t-84 31h-162l-131 -492q-18 -78 -18 -100q0 -43 29.5 -56.5t105.5 -13.5h149q98 0 162 34t111 110.5t94 218.5h45q-16 -45 -43 -148 q-35 -121 -53 -262q-139 6 -463 6q-440 0 -664 -6l9 41q74 4 110.5 16.5t58 47t42.5 112.5l131 492h-328l-438 -516q-31 -37 -45.5 -58.5t-14.5 -38.5q0 -47 127 -55v-41q-55 6 -176 6q-88 0 -137 -6zM543 750h303l129 483q4 10 8 35z" />
<glyph unicode="&#xc7;" horiz-adv-x="1419" d="M88 479q0 242 128 474.5t353.5 379t497.5 146.5q115 0 181.5 -35t123.5 -98q16 -18 31 -19q37 0 82 123h43q-68 -176 -131 -471h-45q16 94 16 162q0 94 -35 155q-72 133 -241 134q-164 0 -312.5 -144.5t-237.5 -375t-89 -472.5q0 -203 72.5 -304t203.5 -101 q78 0 162 35.5t145 99.5q53 57 93 128t92 196h45q-96 -354 -121 -492h-45q6 43 6 70q0 53 -27 53q-16 0 -41 -19q-94 -63 -188 -98t-213 -35q-274 0 -411.5 131t-137.5 377zM301 -344l13 31q82 -23 165 -23q68 0 126.5 20.5t58.5 73.5q0 47 -66 47q-37 0 -71 -14l98 221h55 l-63 -141q57 20 118 20q63 0 100.5 -25.5t37.5 -72.5q0 -90 -105.5 -134t-243.5 -44q-70 0 -129 12.5t-94 28.5z" />
<glyph unicode="&#xc8;" horiz-adv-x="1282" d="M-88 0l10 41q74 4 110 16.5t58.5 47t42.5 112.5l270 1016q16 70 17 98q0 45 -30 59.5t-107 18.5l10 41q223 -6 665 -6q291 0 416 6q-57 -156 -78 -242q-10 -45 -26 -127h-45q2 27 2 74q0 137 -51.5 192.5t-176.5 55.5h-63q-72 0 -107.5 -11.5t-57 -46t-42.5 -112.5 l-129 -483h76q102 0 172 71.5t108 173.5h48q-39 -117 -64 -215l-12 -51q-25 -96 -60 -266h-45q2 14 2 45q0 201 -172 201h-63l-131 -492q-18 -63 -19 -100q0 -43 30 -56.5t105 -13.5h76q111 0 186.5 34t135 111.5t121.5 217.5h47q-23 -59 -45 -148q-35 -121 -54 -262 q-139 6 -464 6q-442 0 -666 -6zM518 1843q0 29 15 51q29 49 92 50q43 0 78 -23q29 -18 50 -43t62 -76q10 -12 57.5 -72.5t116.5 -127.5l-16 -23q-113 51 -246 96q-14 6 -62 23.5t-83 40.5q-29 16 -46.5 44.5t-17.5 59.5z" />
<glyph unicode="&#xc9;" horiz-adv-x="1282" d="M-88 0l10 41q74 4 110 16.5t58.5 47t42.5 112.5l270 1016q16 70 17 98q0 45 -30 59.5t-107 18.5l10 41q223 -6 665 -6q291 0 416 6q-57 -156 -78 -242q-10 -45 -26 -127h-45q2 27 2 74q0 137 -51.5 192.5t-176.5 55.5h-63q-72 0 -107.5 -11.5t-57 -46t-42.5 -112.5 l-129 -483h76q102 0 172 71.5t108 173.5h48q-39 -117 -64 -215l-12 -51q-25 -96 -60 -266h-45q2 14 2 45q0 201 -172 201h-63l-131 -492q-18 -63 -19 -100q0 -43 30 -56.5t105 -13.5h76q111 0 186.5 34t135 111.5t121.5 217.5h47q-23 -59 -45 -148q-35 -121 -54 -262 q-139 6 -464 6q-442 0 -666 -6zM846 1606q80 63 141.5 120.5t73.5 67.5q63 59 99 89t75 52q39 23 88 23q72 0 99 -55q10 -18 10 -41q0 -35 -24.5 -65t-67.5 -52q-35 -18 -87.5 -36.5t-109.5 -35.5q-154 -41 -283 -92z" />
<glyph unicode="&#xca;" horiz-adv-x="1282" d="M-88 0l10 41q74 4 110 16.5t58.5 47t42.5 112.5l270 1016q16 70 17 98q0 45 -30 59.5t-107 18.5l10 41q223 -6 665 -6q291 0 416 6q-57 -156 -78 -242q-10 -45 -26 -127h-45q2 27 2 74q0 137 -51.5 192.5t-176.5 55.5h-63q-72 0 -107.5 -11.5t-57 -46t-42.5 -112.5 l-129 -483h76q102 0 172 71.5t108 173.5h48q-39 -117 -64 -215l-12 -51q-25 -96 -60 -266h-45q2 14 2 45q0 201 -172 201h-63l-131 -492q-18 -63 -19 -100q0 -43 30 -56.5t105 -13.5h76q111 0 186.5 34t135 111.5t121.5 217.5h47q-23 -59 -45 -148q-35 -121 -54 -262 q-139 6 -464 6q-442 0 -666 -6zM432 1608q170 53 317.5 138t237.5 179h37q47 -115 111.5 -189.5t172.5 -127.5l-8 -29q-133 23 -222 50.5t-190 70.5q-213 -78 -446 -121z" />
<glyph unicode="&#xcb;" horiz-adv-x="1282" d="M-88 0l10 41q74 4 110 16.5t58.5 47t42.5 112.5l270 1016q16 70 17 98q0 45 -30 59.5t-107 18.5l10 41q223 -6 665 -6q291 0 416 6q-57 -156 -78 -242q-10 -45 -26 -127h-45q2 27 2 74q0 137 -51.5 192.5t-176.5 55.5h-63q-72 0 -107.5 -11.5t-57 -46t-42.5 -112.5 l-129 -483h76q102 0 172 71.5t108 173.5h48q-39 -117 -64 -215l-12 -51q-25 -96 -60 -266h-45q2 14 2 45q0 201 -172 201h-63l-131 -492q-18 -63 -19 -100q0 -43 30 -56.5t105 -13.5h76q111 0 186.5 34t135 111.5t121.5 217.5h47q-23 -59 -45 -148q-35 -121 -54 -262 q-139 6 -464 6q-442 0 -666 -6zM514 1704q0 80 51.5 127t124.5 47q63 0 98 -38t35 -99q0 -80 -53 -126t-125 -46q-63 0 -97 36.5t-34 98.5zM1006 1704q0 80 51 127t125 47q63 0 98 -38t35 -99q0 -80 -53.5 -126t-124.5 -46q-66 0 -98.5 36.5t-32.5 98.5z" />
<glyph unicode="&#xcc;" d="M-84 0l10 41q72 4 108 16.5t57.5 48t41.5 111.5l270 1016q16 70 17 98q0 45 -30 59.5t-107 18.5l10 41q100 -6 321 -6q203 0 336 6l-10 -41q-76 -4 -111.5 -16.5t-57 -47t-42.5 -112.5l-270 -1016q-19 -77 -19 -100q0 -43 30 -57.5t110 -18.5l-9 -41q-119 6 -333 6 q-215 0 -322 -6zM288 1843q0 29 15 51q29 49 92 50q43 0 78 -23q29 -18 50 -43t62 -76q10 -12 57.5 -72.5t116.5 -127.5l-16 -23q-113 51 -246 96q-14 6 -62 23.5t-83 40.5q-29 16 -46.5 44.5t-17.5 59.5z" />
<glyph unicode="&#xcd;" d="M-84 0l10 41q72 4 108 16.5t57.5 48t41.5 111.5l270 1016q16 70 17 98q0 45 -30 59.5t-107 18.5l10 41q100 -6 321 -6q203 0 336 6l-10 -41q-76 -4 -111.5 -16.5t-57 -47t-42.5 -112.5l-270 -1016q-19 -77 -19 -100q0 -43 30 -57.5t110 -18.5l-9 -41q-119 6 -333 6 q-215 0 -322 -6zM616 1606q80 63 141.5 120.5t73.5 67.5q63 59 99 89t75 52q39 23 88 23q72 0 99 -55q10 -18 10 -41q0 -35 -24.5 -65t-67.5 -52q-35 -18 -87.5 -36.5t-109.5 -35.5q-154 -41 -283 -92z" />
<glyph unicode="&#xce;" d="M-84 0l10 41q72 4 108 16.5t57.5 48t41.5 111.5l270 1016q16 70 17 98q0 45 -30 59.5t-107 18.5l10 41q100 -6 321 -6q203 0 336 6l-10 -41q-76 -4 -111.5 -16.5t-57 -47t-42.5 -112.5l-270 -1016q-19 -77 -19 -100q0 -43 30 -57.5t110 -18.5l-9 -41q-119 6 -333 6 q-215 0 -322 -6zM203 1608q170 53 317.5 138t237.5 179h37q47 -115 111.5 -189.5t172.5 -127.5l-8 -29q-133 23 -222 50.5t-190 70.5q-213 -78 -446 -121z" />
<glyph unicode="&#xcf;" d="M-84 0l10 41q72 4 108 16.5t57.5 48t41.5 111.5l270 1016q16 70 17 98q0 45 -30 59.5t-107 18.5l10 41q100 -6 321 -6q203 0 336 6l-10 -41q-76 -4 -111.5 -16.5t-57 -47t-42.5 -112.5l-270 -1016q-19 -77 -19 -100q0 -43 30 -57.5t110 -18.5l-9 -41q-119 6 -333 6 q-215 0 -322 -6zM284 1704q0 80 51.5 127t124.5 47q63 0 98 -38t35 -99q0 -80 -53 -126t-125 -46q-63 0 -97 36.5t-34 98.5zM776 1704q0 80 51 127t125 47q63 0 98 -38t35 -99q0 -80 -53.5 -126t-124.5 -46q-66 0 -98.5 36.5t-32.5 98.5z" />
<glyph unicode="&#xd0;" horiz-adv-x="1579" d="M-78 0l6 41q70 4 106 16.5t57.5 48t41.5 111.5l268 1016q16 55 17 88q0 45 -30 65.5t-105 22.5l6 41q92 -6 270 -6h66q215 6 305 6q301 0 459.5 -124t158.5 -365q0 -236 -114.5 -457t-343 -362.5t-551.5 -141.5l-101 2q-119 4 -209 4q-199 0 -307 -6zM39 699l12 51h868 l-12 -51h-868zM436 100q0 -35 23.5 -49t79.5 -14q209 0 362.5 145.5t234.5 373.5t81 470q0 193 -80 290t-252 97q-53 0 -79 -13.5t-42 -48t-37 -114.5l-268 -1024q-23 -90 -23 -113z" />
<glyph unicode="&#xd1;" horiz-adv-x="1689" d="M-164 23q0 80 52.5 133t134.5 53q66 0 103.5 -34t37.5 -89q0 -68 -44 -119t-112 -71q10 -8 35 -9q104 0 172 111q76 121 158 432t178 803q12 59 12 92q0 49 -32.5 64.5t-124.5 19.5l10 41q66 -6 182 -6q94 0 166 6l424 -971q172 735 307 934q90 131 221 131 q90 0 142.5 -49t52.5 -125q0 -80 -53.5 -133t-133.5 -53q-68 0 -104.5 33.5t-36.5 89.5q0 68 43 119t111 71q-8 8 -33 8q-98 0 -172 -108q-90 -135 -188.5 -476t-223.5 -931h-45l-508 1112q-88 -434 -166.5 -731t-152.5 -394q-45 -59 -95.5 -94t-123.5 -35 q-90 0 -141.5 49.5t-51.5 125.5zM672 1614q55 143 146.5 213.5t193.5 70.5q72 0 120 -21.5t105 -59.5q49 -35 83 -51.5t81 -16.5q45 0 83 27.5t75 91.5l37 -10q-55 -143 -147.5 -214t-192.5 -71q-74 0 -121 21.5t-106 62.5q-49 33 -82 49t-80 16q-45 0 -83 -27.5t-75 -90.5z " />
<glyph unicode="&#xd2;" horiz-adv-x="1591" d="M86 463q0 231 118 468.5t331 392.5t479 155q262 0 409.5 -129t147.5 -365q0 -231 -119 -467.5t-332 -391.5t-479 -155q-262 0 -408.5 129t-146.5 363zM438 436q0 -199 61.5 -313.5t159.5 -114.5q139 0 268.5 147.5t209.5 381t80 477.5q0 199 -61.5 313.5t-160.5 114.5 q-139 0 -268 -147.5t-209 -381t-80 -477.5zM649 1843q0 29 15 51q29 49 92 50q43 0 78 -23q29 -18 50 -43t62 -76q10 -12 57.5 -72.5t116.5 -127.5l-16 -23q-113 51 -246 96q-14 6 -62 23.5t-83 40.5q-29 16 -46.5 44.5t-17.5 59.5z" />
<glyph unicode="&#xd3;" horiz-adv-x="1591" d="M86 463q0 231 118 468.5t331 392.5t479 155q262 0 409.5 -129t147.5 -365q0 -231 -119 -467.5t-332 -391.5t-479 -155q-262 0 -408.5 129t-146.5 363zM438 436q0 -199 61.5 -313.5t159.5 -114.5q139 0 268.5 147.5t209.5 381t80 477.5q0 199 -61.5 313.5t-160.5 114.5 q-139 0 -268 -147.5t-209 -381t-80 -477.5zM977 1606q80 63 141.5 120.5t73.5 67.5q63 59 99 89t75 52q39 23 88 23q72 0 99 -55q10 -18 10 -41q0 -35 -24.5 -65t-67.5 -52q-35 -18 -87.5 -36.5t-109.5 -35.5q-154 -41 -283 -92z" />
<glyph unicode="&#xd4;" horiz-adv-x="1591" d="M86 463q0 231 118 468.5t331 392.5t479 155q262 0 409.5 -129t147.5 -365q0 -231 -119 -467.5t-332 -391.5t-479 -155q-262 0 -408.5 129t-146.5 363zM438 436q0 -199 61.5 -313.5t159.5 -114.5q139 0 268.5 147.5t209.5 381t80 477.5q0 199 -61.5 313.5t-160.5 114.5 q-139 0 -268 -147.5t-209 -381t-80 -477.5zM563 1608q170 53 317.5 138t237.5 179h37q47 -115 111.5 -189.5t172.5 -127.5l-8 -29q-133 23 -222 50.5t-190 70.5q-213 -78 -446 -121z" />
<glyph unicode="&#xd5;" horiz-adv-x="1591" d="M86 463q0 231 118 468.5t331 392.5t479 155q262 0 409.5 -129t147.5 -365q0 -231 -119 -467.5t-332 -391.5t-479 -155q-262 0 -408.5 129t-146.5 363zM438 436q0 -199 61.5 -313.5t159.5 -114.5q139 0 268.5 147.5t209.5 381t80 477.5q0 199 -61.5 313.5t-160.5 114.5 q-139 0 -268 -147.5t-209 -381t-80 -477.5zM604 1614q55 143 146.5 213.5t193.5 70.5q72 0 120 -21.5t105 -59.5q49 -35 83 -51.5t81 -16.5q45 0 83 27.5t75 91.5l37 -10q-55 -143 -147.5 -214t-192.5 -71q-74 0 -121 21.5t-106 62.5q-49 33 -82 49t-80 16q-45 0 -83 -27.5 t-75 -90.5z" />
<glyph unicode="&#xd6;" horiz-adv-x="1591" d="M86 463q0 231 118 468.5t331 392.5t479 155q262 0 409.5 -129t147.5 -365q0 -231 -119 -467.5t-332 -391.5t-479 -155q-262 0 -408.5 129t-146.5 363zM438 436q0 -199 61.5 -313.5t159.5 -114.5q139 0 268.5 147.5t209.5 381t80 477.5q0 199 -61.5 313.5t-160.5 114.5 q-139 0 -268 -147.5t-209 -381t-80 -477.5zM645 1704q0 80 51.5 127t124.5 47q63 0 98 -38t35 -99q0 -80 -53 -126t-125 -46q-63 0 -97 36.5t-34 98.5zM1137 1704q0 80 51 127t125 47q63 0 98 -38t35 -99q0 -80 -53.5 -126t-124.5 -46q-66 0 -98.5 36.5t-32.5 98.5z" />
<glyph unicode="&#xd7;" horiz-adv-x="1015" d="M39 373l457 354l-256 358l53 37l252 -358l465 362l32 -45l-464 -360l256 -354l-52 -37l-254 354l-458 -356z" />
<glyph unicode="&#xd8;" horiz-adv-x="1591" d="M-6 -121l225 234q-133 127 -133 350q0 231 118 468.5t331 392.5t479 155q248 0 393 -115l209 219l31 -27l-209 -221q133 -127 133 -350q0 -231 -119 -467.5t-332 -391.5t-479 -155q-242 0 -387 111l-225 -232zM438 436q0 -78 8 -133l758 866q-20 129 -75.5 201t-133.5 72 q-139 0 -268 -147.5t-209 -381t-80 -477.5zM457 246q25 -113 78 -175.5t124 -62.5q140 0 269 147.5t209 381t80 477.5q0 39 -5 100z" />
<glyph unicode="&#xd9;" horiz-adv-x="1421" d="M154 324q0 98 45 266l170 643q16 70 16 98q0 45 -29.5 59.5t-107.5 18.5l12 41q104 -6 338 -6q190 0 317 6l-12 -41q-76 -4 -111.5 -16.5t-57 -47t-42.5 -112.5l-180 -678q-49 -180 -49 -299q0 -106 45 -159.5t139 -53.5q215 0 339 139.5t190 390.5l141 541 q33 121 33 174q0 59 -35 85t-121 36l10 41q76 -6 219 -6q113 0 181 6l-11 -41q-70 -10 -108.5 -34.5t-64 -78t-52.5 -157.5l-139 -543q-74 -283 -201 -434q-76 -88 -185.5 -139.5t-234.5 -51.5q-150 0 -250 42t-149 120q-55 80 -55 191zM643 1843q0 29 15 51q29 49 92 50 q43 0 78 -23q29 -18 50 -43t62 -76q10 -12 57.5 -72.5t116.5 -127.5l-16 -23q-113 51 -246 96q-14 6 -62 23.5t-83 40.5q-29 16 -46.5 44.5t-17.5 59.5z" />
<glyph unicode="&#xda;" horiz-adv-x="1421" d="M154 324q0 98 45 266l170 643q16 70 16 98q0 45 -29.5 59.5t-107.5 18.5l12 41q104 -6 338 -6q190 0 317 6l-12 -41q-76 -4 -111.5 -16.5t-57 -47t-42.5 -112.5l-180 -678q-49 -180 -49 -299q0 -106 45 -159.5t139 -53.5q215 0 339 139.5t190 390.5l141 541 q33 121 33 174q0 59 -35 85t-121 36l10 41q76 -6 219 -6q113 0 181 6l-11 -41q-70 -10 -108.5 -34.5t-64 -78t-52.5 -157.5l-139 -543q-74 -283 -201 -434q-76 -88 -185.5 -139.5t-234.5 -51.5q-150 0 -250 42t-149 120q-55 80 -55 191zM971 1606q80 63 141.5 120.5 t73.5 67.5q63 59 99 89t75 52q39 23 88 23q72 0 99 -55q10 -18 10 -41q0 -35 -24.5 -65t-67.5 -52q-35 -18 -87.5 -36.5t-109.5 -35.5q-154 -41 -283 -92z" />
<glyph unicode="&#xdb;" horiz-adv-x="1421" d="M154 324q0 98 45 266l170 643q16 70 16 98q0 45 -29.5 59.5t-107.5 18.5l12 41q104 -6 338 -6q190 0 317 6l-12 -41q-76 -4 -111.5 -16.5t-57 -47t-42.5 -112.5l-180 -678q-49 -180 -49 -299q0 -106 45 -159.5t139 -53.5q215 0 339 139.5t190 390.5l141 541 q33 121 33 174q0 59 -35 85t-121 36l10 41q76 -6 219 -6q113 0 181 6l-11 -41q-70 -10 -108.5 -34.5t-64 -78t-52.5 -157.5l-139 -543q-74 -283 -201 -434q-76 -88 -185.5 -139.5t-234.5 -51.5q-150 0 -250 42t-149 120q-55 80 -55 191zM557 1608q170 53 317.5 138 t237.5 179h37q47 -115 111.5 -189.5t172.5 -127.5l-8 -29q-133 23 -222 50.5t-190 70.5q-213 -78 -446 -121z" />
<glyph unicode="&#xdc;" horiz-adv-x="1421" d="M154 324q0 98 45 266l170 643q16 70 16 98q0 45 -29.5 59.5t-107.5 18.5l12 41q104 -6 338 -6q190 0 317 6l-12 -41q-76 -4 -111.5 -16.5t-57 -47t-42.5 -112.5l-180 -678q-49 -180 -49 -299q0 -106 45 -159.5t139 -53.5q215 0 339 139.5t190 390.5l141 541 q33 121 33 174q0 59 -35 85t-121 36l10 41q76 -6 219 -6q113 0 181 6l-11 -41q-70 -10 -108.5 -34.5t-64 -78t-52.5 -157.5l-139 -543q-74 -283 -201 -434q-76 -88 -185.5 -139.5t-234.5 -51.5q-150 0 -250 42t-149 120q-55 80 -55 191zM639 1704q0 80 51.5 127t124.5 47 q63 0 98 -38t35 -99q0 -80 -53 -126t-125 -46q-63 0 -97 36.5t-34 98.5zM1131 1704q0 80 51 127t125 47q63 0 98 -38t35 -99q0 -80 -53.5 -126t-124.5 -46q-66 0 -98.5 36.5t-32.5 98.5z" />
<glyph unicode="&#xdd;" horiz-adv-x="1503" d="M170 1102l51 158q39 117 112 168t177 51q133 0 210 -83t114.5 -235.5t66.5 -412.5q68 193 154 346t182 258q117 127 242 127q88 0 139 -50.5t51 -125.5q0 -78 -52 -131.5t-134 -53.5q-68 0 -105 34t-37 91q2 68 45.5 118t110.5 71q-10 8 -35 8q-61 0 -123 -47 q-92 -66 -208.5 -253.5t-210.5 -461.5l-117 -461q-12 -49 -12 -82q0 -53 34.5 -71.5t122.5 -22.5l-10 -41q-117 6 -352 6q-221 0 -330 -6l10 41q74 4 111 16.5t59.5 48t40.5 111.5l111 440q-33 281 -90.5 475.5t-145.5 194.5q-35 0 -56.5 -24.5t-37.5 -71.5l-43 -129h-45z M956 1606q80 63 141.5 120.5t73.5 67.5q63 59 99 89t75 52q39 23 88 23q72 0 99 -55q10 -18 10 -41q0 -35 -24.5 -65t-67.5 -52q-35 -18 -87.5 -36.5t-109.5 -35.5q-154 -41 -283 -92z" />
<glyph unicode="&#xde;" horiz-adv-x="1353" d="M-84 0l10 41q72 4 108 16.5t57.5 48t41.5 111.5l270 1016q16 70 17 98q0 45 -30 59.5t-107 18.5l10 41q100 -6 321 -6q203 0 336 6l-10 -41q-76 -4 -111.5 -16.5t-57 -47t-42.5 -112.5l-22 -82l161 2q238 0 360 -83t122 -226q0 -160 -106.5 -287t-299 -198.5 t-440.5 -71.5h-27l-18 -70q-18 -78 -19 -100q0 -43 30 -57.5t110 -18.5l-9 -41q-119 6 -333 6q-215 0 -322 -6zM487 328h37q162 0 270.5 75.5t161 199.5t52.5 274q0 113 -56.5 175t-167.5 62q-65 0 -88 -2z" />
<glyph unicode="&#xdf;" horiz-adv-x="1245" d="M-121 -385l377 1434q51 193 124 312.5t187.5 180t286.5 60.5q195 0 288 -59.5t93 -143.5q0 -78 -53.5 -135.5t-173.5 -145.5q-74 -51 -142 -106q-61 -49 -80.5 -82t-19.5 -68q0 -59 38 -109.5t114 -121.5l36 -35q90 -88 131 -149.5t41 -143.5q0 -104 -59 -180 t-156.5 -114t-214.5 -38q-129 0 -206.5 59.5t-77.5 159.5q0 63 32.5 107.5t85.5 44.5q57 0 89 -52t32 -122q0 -41 -13 -81t-36 -67q25 -8 51 -8q66 0 110 55.5t44 143.5q0 63 -17.5 123.5t-54.5 134.5q-8 16 -34.5 71.5t-43 108.5t-16.5 99q0 70 29.5 111.5t99.5 109.5 l64 61q66 68 95 158t29 186q0 100 -39.5 148.5t-103.5 48.5q-74 0 -123 -73t-92 -234l-426 -1620q-176 -4 -295 -29z" />
<glyph unicode="&#xe0;" horiz-adv-x="1142" d="M-2 223q0 182 97.5 386t247 341t292.5 137q55 0 89 -32.5t40 -98.5l29 101q164 2 297 30l-269 -913q-10 -35 -10 -57q0 -45 39 -45q72 0 127 161l37 99h39l-52 -150q-41 -115 -113.5 -163t-156.5 -48q-106 0 -151 64q-29 37 -29 102q0 53 18 121q-70 -152 -154.5 -219.5 t-187.5 -67.5q-113 0 -171 66.5t-58 185.5zM301 209q0 -68 13.5 -97.5t43.5 -29.5q45 0 99.5 62.5t109 180t95.5 279.5l-11 -49l90 322q2 10 2 30q0 51 -17 78t-52 27q-70 0 -159 -125t-151.5 -313.5t-62.5 -364.5zM434 1642q0 27 13 49.5t36 37.5q23 14 53 14 q35 0 64.5 -17.5t48.5 -48.5q18 -31 29.5 -65.5t27.5 -98.5q31 -141 82 -272l-24 -14q-80 98 -195 213q-35 35 -64.5 66.5t-48.5 62.5q-23 39 -22 73z" />
<glyph unicode="&#xe1;" horiz-adv-x="1142" d="M-2 223q0 182 97.5 386t247 341t292.5 137q55 0 89 -32.5t40 -98.5l29 101q164 2 297 30l-269 -913q-10 -35 -10 -57q0 -45 39 -45q72 0 127 161l37 99h39l-52 -150q-41 -115 -113.5 -163t-156.5 -48q-106 0 -151 64q-29 37 -29 102q0 53 18 121q-70 -152 -154.5 -219.5 t-187.5 -67.5q-113 0 -171 66.5t-58 185.5zM301 209q0 -68 13.5 -97.5t43.5 -29.5q45 0 99.5 62.5t109 180t95.5 279.5l-11 -49l90 322q2 10 2 30q0 51 -17 78t-52 27q-70 0 -159 -125t-151.5 -313.5t-62.5 -364.5zM643 1247q83 121 151 240q47 78 73 115.5t56 68.5 q23 25 53.5 39t59.5 14q43 0 74 -30q29 -29 28 -62q0 -53 -59 -112q-49 -49 -170 -125q-143 -92 -246 -168z" />
<glyph unicode="&#xe2;" horiz-adv-x="1142" d="M-2 223q0 182 97.5 386t247 341t292.5 137q55 0 89 -32.5t40 -98.5l29 101q164 2 297 30l-269 -913q-10 -35 -10 -57q0 -45 39 -45q72 0 127 161l37 99h39l-52 -150q-41 -115 -113.5 -163t-156.5 -48q-106 0 -151 64q-29 37 -29 102q0 53 18 121q-70 -152 -154.5 -219.5 t-187.5 -67.5q-113 0 -171 66.5t-58 185.5zM301 209q0 -68 13.5 -97.5t43.5 -29.5q45 0 99.5 62.5t109 180t95.5 279.5l-11 -49l90 322q2 10 2 30q0 51 -17 78t-52 27q-70 0 -159 -125t-151.5 -313.5t-62.5 -364.5zM356 1278q147 63 277.5 172t212.5 229h37q29 -145 84 -238 t159 -163l-8 -29q-127 27 -214 64t-167 88q-165 -95 -370 -152z" />
<glyph unicode="&#xe3;" horiz-adv-x="1142" d="M-2 223q0 182 97.5 386t247 341t292.5 137q55 0 89 -32.5t40 -98.5l29 101q164 2 297 30l-269 -913q-10 -35 -10 -57q0 -45 39 -45q72 0 127 161l37 99h39l-52 -150q-41 -115 -113.5 -163t-156.5 -48q-106 0 -151 64q-29 37 -29 102q0 53 18 121q-70 -152 -154.5 -219.5 t-187.5 -67.5q-113 0 -171 66.5t-58 185.5zM301 209q0 -68 13.5 -97.5t43.5 -29.5q45 0 99.5 62.5t109 180t95.5 279.5l-11 -49l90 322q2 10 2 30q0 51 -17 78t-52 27q-70 0 -159 -125t-151.5 -313.5t-62.5 -364.5zM395 1325q53 143 138 214t178 71q59 0 98 -21.5t84 -62.5 q37 -33 64.5 -49.5t64.5 -16.5q41 0 75.5 28t69.5 91l37 -10q-53 -143 -137 -214t-178 -71q-59 0 -98.5 21.5t-84.5 62.5q-37 33 -64.5 49.5t-64.5 16.5q-80 0 -145 -119z" />
<glyph unicode="&#xe4;" horiz-adv-x="1142" d="M-2 223q0 182 97.5 386t247 341t292.5 137q55 0 89 -32.5t40 -98.5l29 101q164 2 297 30l-269 -913q-10 -35 -10 -57q0 -45 39 -45q72 0 127 161l37 99h39l-52 -150q-41 -115 -113.5 -163t-156.5 -48q-106 0 -151 64q-29 37 -29 102q0 53 18 121q-70 -152 -154.5 -219.5 t-187.5 -67.5q-113 0 -171 66.5t-58 185.5zM301 209q0 -68 13.5 -97.5t43.5 -29.5q45 0 99.5 62.5t109 180t95.5 279.5l-11 -49l90 322q2 10 2 30q0 51 -17 78t-52 27q-70 0 -159 -125t-151.5 -313.5t-62.5 -364.5zM420 1384q0 78 52 125t124 47q63 0 98 -36.5t35 -98.5 q0 -80 -53 -126t-125 -46q-66 0 -98.5 37t-32.5 98zM885 1384q0 78 52 125t124 47q63 0 98 -36.5t35 -98.5q0 -80 -52 -126t-124 -46q-66 0 -99.5 37t-33.5 98z" />
<glyph unicode="&#xe5;" horiz-adv-x="1142" d="M-2 223q0 182 97.5 386t247 341t292.5 137q55 0 89 -32.5t40 -98.5l29 101q164 2 297 30l-269 -913q-10 -35 -10 -57q0 -45 39 -45q72 0 127 161l37 99h39l-52 -150q-41 -115 -113.5 -163t-156.5 -48q-106 0 -151 64q-29 37 -29 102q0 53 18 121q-70 -152 -154.5 -219.5 t-187.5 -67.5q-113 0 -171 66.5t-58 185.5zM301 209q0 -68 13.5 -97.5t43.5 -29.5q45 0 99.5 62.5t109 180t95.5 279.5l-11 -49l90 322q2 10 2 30q0 51 -17 78t-52 27q-70 0 -159 -125t-151.5 -313.5t-62.5 -364.5zM594 1409q0 94 71.5 158.5t176.5 64.5q88 0 144 -48 t56 -126q0 -61 -35.5 -112.5t-94 -82t-124.5 -30.5q-86 0 -140 47t-54 129zM649 1409q0 -61 44 -97t104 -36q75 0 133.5 52t58.5 128q0 63 -46 98t-108 35q-76 0 -131 -54t-55 -126z" />
<glyph unicode="&#xe6;" horiz-adv-x="1505" d="M-12 215q0 182 122.5 380t312 329t374.5 131q104 0 147 -72q154 104 328 104q102 0 165.5 -43t63.5 -126q0 -168 -190.5 -293t-442.5 -193q-12 -70 -12 -139q0 -109 40 -154t118 -45q63 0 141 40t154 128l37 -16q-74 -115 -198 -195t-278 -80q-113 0 -193.5 48.5 t-111.5 138.5q-68 -92 -155.5 -139.5t-188.5 -47.5q-117 0 -175 63.5t-58 180.5zM291 213q0 -63 26.5 -97t69.5 -34q92 0 168 108q-6 31 -6 70q0 186 100.5 385t263.5 318q-29 39 -82 38q-111 0 -238.5 -114.5t-214.5 -297.5t-87 -376zM874 469q160 68 224 123 q86 74 132 174t46 215q0 68 -49 68q-58 0 -130.5 -84t-133 -218.5t-89.5 -277.5z" />
<glyph unicode="&#xe7;" horiz-adv-x="948" d="M-5 -344l13 31q4 -2 37.5 -12.5t87.5 -10.5q55 0 107 20.5t52 73.5q0 23 -15 35t-42 12q-35 0 -63 -14l141 209h57l-90 -141q61 20 111 20q55 0 89 -22.5t34 -63.5q0 -90 -101.5 -134t-234.5 -44q-57 0 -106.5 12.5t-76.5 28.5zM16 287q0 176 88.5 363.5t248 312 t362.5 124.5q113 0 181.5 -56t68.5 -140q0 -55 -27 -108.5t-74 -86t-102 -32.5q-51 0 -84 32.5t-33 85.5q0 80 55.5 142.5t130.5 81.5q-35 41 -98 41q-100 0 -195.5 -110t-154.5 -287t-59 -363q0 -205 155 -205q147 0 271 180l41 -16q-74 -119 -188 -197t-259 -78 q-150 0 -239 80t-89 236z" />
<glyph unicode="&#xe8;" horiz-adv-x="960" d="M6 260q0 182 98.5 376.5t268.5 322.5t372 128q94 0 153.5 -41.5t59.5 -119.5q0 -170 -190 -297t-442 -197q-12 -70 -13 -139q0 -109 40 -154t118 -45q63 0 143 40t156 128l33 -16q-74 -115 -198 -195t-277 -80q-141 0 -231.5 76t-90.5 213zM332 471q145 63 225 137 q82 74 129 169t47 204q0 39 -8 53.5t-25 14.5q-59 0 -135 -84t-139.5 -218.5t-93.5 -275.5zM389 1642q0 27 13 49.5t36 37.5q23 14 53 14q35 0 64.5 -17.5t48.5 -48.5q18 -31 29.5 -65.5t27.5 -98.5q31 -141 82 -272l-24 -14q-80 98 -195 213q-35 35 -64.5 66.5t-48.5 62.5 q-23 39 -22 73z" />
<glyph unicode="&#xe9;" horiz-adv-x="960" d="M6 260q0 182 98.5 376.5t268.5 322.5t372 128q94 0 153.5 -41.5t59.5 -119.5q0 -170 -190 -297t-442 -197q-12 -70 -13 -139q0 -109 40 -154t118 -45q63 0 143 40t156 128l33 -16q-74 -115 -198 -195t-277 -80q-141 0 -231.5 76t-90.5 213zM332 471q145 63 225 137 q82 74 129 169t47 204q0 39 -8 53.5t-25 14.5q-59 0 -135 -84t-139.5 -218.5t-93.5 -275.5zM598 1247q83 121 151 240q47 78 73 115.5t56 68.5q23 25 53.5 39t59.5 14q43 0 74 -30q29 -29 28 -62q0 -53 -59 -112q-49 -49 -170 -125q-143 -92 -246 -168z" />
<glyph unicode="&#xea;" horiz-adv-x="960" d="M6 260q0 182 98.5 376.5t268.5 322.5t372 128q94 0 153.5 -41.5t59.5 -119.5q0 -170 -190 -297t-442 -197q-12 -70 -13 -139q0 -109 40 -154t118 -45q63 0 143 40t156 128l33 -16q-74 -115 -198 -195t-277 -80q-141 0 -231.5 76t-90.5 213zM311 1278q147 63 277.5 172 t212.5 229h37q29 -145 84 -238t159 -163l-8 -29q-127 27 -214 64t-167 88q-165 -95 -370 -152zM332 471q145 63 225 137q82 74 129 169t47 204q0 39 -8 53.5t-25 14.5q-59 0 -135 -84t-139.5 -218.5t-93.5 -275.5z" />
<glyph unicode="&#xeb;" horiz-adv-x="960" d="M6 260q0 182 98.5 376.5t268.5 322.5t372 128q94 0 153.5 -41.5t59.5 -119.5q0 -170 -190 -297t-442 -197q-12 -70 -13 -139q0 -109 40 -154t118 -45q63 0 143 40t156 128l33 -16q-74 -115 -198 -195t-277 -80q-141 0 -231.5 76t-90.5 213zM332 471q145 63 225 137 q82 74 129 169t47 204q0 39 -8 53.5t-25 14.5q-59 0 -135 -84t-139.5 -218.5t-93.5 -275.5zM375 1384q0 78 52 125t124 47q63 0 98 -36.5t35 -98.5q0 -80 -53 -126t-125 -46q-66 0 -98.5 37t-32.5 98zM840 1384q0 78 52 125t124 47q63 0 98 -36.5t35 -98.5q0 -80 -52 -126 t-124 -46q-66 0 -99.5 37t-33.5 98z" />
<glyph unicode="&#xec;" horiz-adv-x="659" d="M51 721l55 156q76 211 285 210q94 0 137 -47t43 -120q0 -53 -20 -119l-217 -627q-12 -37 -12 -59q0 -43 40 -43q33 0 64 34.5t66 126.5l36 99h39l-51 -150q-74 -211 -276 -211q-94 0 -140.5 43t-46.5 125q0 70 31 158l201 588q12 36 12 61q0 41 -35 41q-39 0 -69.5 -38 t-63.5 -124l-39 -104h-39zM133 1642q0 27 13 49.5t36 37.5q23 14 53 14q35 0 64.5 -17.5t48.5 -48.5q18 -31 29.5 -65.5t27.5 -98.5q31 -141 82 -272l-24 -14q-80 98 -195 213q-35 35 -64.5 66.5t-48.5 62.5q-23 39 -22 73z" />
<glyph unicode="&#xed;" horiz-adv-x="659" d="M51 721l55 156q76 211 285 210q94 0 137 -47t43 -120q0 -53 -20 -119l-217 -627q-12 -37 -12 -59q0 -43 40 -43q33 0 64 34.5t66 126.5l36 99h39l-51 -150q-74 -211 -276 -211q-94 0 -140.5 43t-46.5 125q0 70 31 158l201 588q12 36 12 61q0 41 -35 41q-39 0 -69.5 -38 t-63.5 -124l-39 -104h-39zM342 1247q83 121 151 240q47 78 73 115.5t56 68.5q23 25 53.5 39t59.5 14q43 0 74 -30q29 -29 28 -62q0 -53 -59 -112q-49 -49 -170 -125q-143 -92 -246 -168z" />
<glyph unicode="&#xee;" horiz-adv-x="659" d="M51 721l55 156q76 211 285 210q94 0 137 -47t43 -120q0 -53 -20 -119l-217 -627q-12 -37 -12 -59q0 -43 40 -43q33 0 64 34.5t66 126.5l36 99h39l-51 -150q-74 -211 -276 -211q-94 0 -140.5 43t-46.5 125q0 70 31 158l201 588q12 36 12 61q0 41 -35 41q-39 0 -69.5 -38 t-63.5 -124l-39 -104h-39zM55 1278q147 63 277.5 172t212.5 229h37q29 -145 84 -238t159 -163l-8 -29q-127 27 -214 64t-167 88q-165 -95 -370 -152z" />
<glyph unicode="&#xef;" horiz-adv-x="659" d="M51 721l55 156q76 211 285 210q94 0 137 -47t43 -120q0 -53 -20 -119l-217 -627q-12 -37 -12 -59q0 -43 40 -43q33 0 64 34.5t66 126.5l36 99h39l-51 -150q-74 -211 -276 -211q-94 0 -140.5 43t-46.5 125q0 70 31 158l201 588q12 36 12 61q0 41 -35 41q-39 0 -69.5 -38 t-63.5 -124l-39 -104h-39zM119 1384q0 78 52 125t124 47q63 0 98 -36.5t35 -98.5q0 -80 -53 -126t-125 -46q-66 0 -98.5 37t-32.5 98zM584 1384q0 78 52 125t124 47q63 0 98 -36.5t35 -98.5q0 -80 -52 -126t-124 -46q-66 0 -99.5 37t-33.5 98z" />
<glyph unicode="&#xf0;" horiz-adv-x="1081" d="M25 309q0 164 74.5 345.5t213 304t316.5 122.5q45 0 76 -12q-27 147 -93 256l-348 -154l-12 37l340 150q-82 121 -223 209l24 35q195 -68 334 -183l309 137l13 -36l-291 -127q127 -115 194.5 -265.5t67.5 -328.5q0 -197 -78 -388.5t-229.5 -315.5t-356.5 -124 q-152 0 -241.5 82t-89.5 256zM324 158q0 -82 16 -114t53 -32q84 0 160 134.5t122 334t46 381.5q0 82 -10 168q-35 10 -64 10q-92 0 -166.5 -140t-115.5 -348t-41 -394z" />
<glyph unicode="&#xf1;" horiz-adv-x="1234" d="M33 0l248 885q12 37 12 65q0 37 -35 37q-39 0 -68.5 -36t-62.5 -126l-39 -104h-39l55 156q39 113 104.5 161.5t160.5 48.5q176 0 176 -167q0 -57 -17 -119l-63 -248q84 209 160.5 324.5t155.5 162.5t175 47q184 0 185 -163q0 -61 -27 -146l-201 -604q-12 -37 -12 -59 q0 -43 39 -43q33 0 64.5 34.5t64.5 126.5l37 99h39l-51 -150q-74 -211 -275 -211q-115 0 -164 68q-27 39 -26 96q0 66 33 162l184 553q18 55 18 88q0 47 -39 47q-61 0 -148 -125t-175 -328.5t-154 -429.5l-26 -102h-289zM389 1325q53 143 138 214t178 71q59 0 98 -21.5 t84 -62.5q37 -33 64.5 -49.5t64.5 -16.5q41 0 75.5 28t69.5 91l37 -10q-53 -143 -137 -214t-178 -71q-59 0 -98.5 21.5t-84.5 62.5q-37 33 -64.5 49.5t-64.5 16.5q-80 0 -145 -119z" />
<glyph unicode="&#xf2;" horiz-adv-x="1083" d="M25 309q0 168 76.5 350.5t227 305t359.5 122.5q160 0 246 -87t86 -250q0 -168 -77 -350.5t-227.5 -305.5t-359.5 -123q-160 0 -245.5 87t-85.5 251zM299 152q0 -74 16.5 -107t53.5 -33q76 0 165 141.5t150 351.5t61 398q0 80 -16 112t-51 32q-76 0 -166 -145.5 t-151.5 -356.5t-61.5 -393zM414 1642q0 27 13 49.5t36 37.5q23 14 53 14q35 0 64.5 -17.5t48.5 -48.5q18 -31 29.5 -65.5t27.5 -98.5q31 -141 82 -272l-24 -14q-80 98 -195 213q-35 35 -64.5 66.5t-48.5 62.5q-23 39 -22 73z" />
<glyph unicode="&#xf3;" horiz-adv-x="1083" d="M25 309q0 168 76.5 350.5t227 305t359.5 122.5q160 0 246 -87t86 -250q0 -168 -77 -350.5t-227.5 -305.5t-359.5 -123q-160 0 -245.5 87t-85.5 251zM299 152q0 -74 16.5 -107t53.5 -33q76 0 165 141.5t150 351.5t61 398q0 80 -16 112t-51 32q-76 0 -166 -145.5 t-151.5 -356.5t-61.5 -393zM623 1247q83 121 151 240q47 78 73 115.5t56 68.5q23 25 53.5 39t59.5 14q43 0 74 -30q29 -29 28 -62q0 -53 -59 -112q-49 -49 -170 -125q-143 -92 -246 -168z" />
<glyph unicode="&#xf4;" horiz-adv-x="1083" d="M25 309q0 168 76.5 350.5t227 305t359.5 122.5q160 0 246 -87t86 -250q0 -168 -77 -350.5t-227.5 -305.5t-359.5 -123q-160 0 -245.5 87t-85.5 251zM299 152q0 -74 16.5 -107t53.5 -33q76 0 165 141.5t150 351.5t61 398q0 80 -16 112t-51 32q-76 0 -166 -145.5 t-151.5 -356.5t-61.5 -393zM336 1278q147 63 277.5 172t212.5 229h37q29 -145 84 -238t159 -163l-8 -29q-127 27 -214 64t-167 88q-165 -95 -370 -152z" />
<glyph unicode="&#xf5;" horiz-adv-x="1083" d="M25 309q0 168 76.5 350.5t227 305t359.5 122.5q160 0 246 -87t86 -250q0 -168 -77 -350.5t-227.5 -305.5t-359.5 -123q-160 0 -245.5 87t-85.5 251zM299 152q0 -74 16.5 -107t53.5 -33q76 0 165 141.5t150 351.5t61 398q0 80 -16 112t-51 32q-76 0 -166 -145.5 t-151.5 -356.5t-61.5 -393zM375 1325q53 143 138 214t178 71q59 0 98 -21.5t84 -62.5q37 -33 64.5 -49.5t64.5 -16.5q41 0 75.5 28t69.5 91l37 -10q-53 -143 -137 -214t-178 -71q-59 0 -98.5 21.5t-84.5 62.5q-37 33 -64.5 49.5t-64.5 16.5q-80 0 -145 -119z" />
<glyph unicode="&#xf6;" horiz-adv-x="1083" d="M25 309q0 168 76.5 350.5t227 305t359.5 122.5q160 0 246 -87t86 -250q0 -168 -77 -350.5t-227.5 -305.5t-359.5 -123q-160 0 -245.5 87t-85.5 251zM299 152q0 -74 16.5 -107t53.5 -33q76 0 165 141.5t150 351.5t61 398q0 80 -16 112t-51 32q-76 0 -166 -145.5 t-151.5 -356.5t-61.5 -393zM399 1384q0 78 52 125t124 47q63 0 98 -36.5t35 -98.5q0 -80 -53 -126t-125 -46q-66 0 -98.5 37t-32.5 98zM864 1384q0 78 52 125t124 47q63 0 98 -36.5t35 -98.5q0 -80 -52 -126t-124 -46q-66 0 -99.5 37t-33.5 98z" />
<glyph unicode="&#xf7;" horiz-adv-x="1302" d="M160 696l18 62h1026l-18 -62h-1026zM514 399q0 56 47 101t103 45q39 0 62.5 -22.5t23.5 -59.5q0 -57 -47.5 -101.5t-104.5 -44.5q-37 0 -60.5 24t-23.5 58zM684 989q0 55 47 100.5t103 45.5q39 0 62.5 -22.5t23.5 -59.5q0 -57 -47.5 -100.5t-104.5 -43.5 q-39 0 -61.5 22.5t-22.5 57.5z" />
<glyph unicode="&#xf8;" horiz-adv-x="1083" d="M25 309q0 168 76.5 350.5t227 305t359.5 122.5q100 0 168 -32l123 174l31 -19l-121 -174q131 -83 131 -286q0 -168 -77 -350.5t-227.5 -305.5t-359.5 -123q-94 0 -161 31l-123 -170l-31 21l119 165q-135 82 -135 291zM299 121q4 -57 21.5 -83t48.5 -26q71 0 156 129 t147.5 326t70.5 383zM299 195l446 727q-2 70 -18 97.5t-49 27.5q-74 0 -160 -135.5t-148.5 -336t-70.5 -380.5z" />
<glyph unicode="&#xf9;" horiz-adv-x="1222" d="M49 727l51 150q74 211 275 210q186 0 186 -169q0 -63 -29 -156l-184 -553q-18 -55 -18 -88q0 -47 39 -47q61 0 145 120.5t169 320.5t151 429l30 115q182 4 297 28l-256 -913q-12 -43 -12 -68q0 -35 35 -34q39 0 69.5 36.5t61.5 124.5l39 105h39l-56 -156 q-39 -113 -111.5 -162t-162.5 -49q-55 0 -94 18.5t-58 51.5q-18 37 -18 84t20 133l56 211q-80 -193 -154 -301.5t-149.5 -152.5t-169.5 -44q-92 0 -138.5 43t-46.5 125q0 63 27 142l199 604q12 37 12 59q0 43 -39 43q-33 0 -64.5 -34.5t-64.5 -127.5l-37 -98h-39zM397 1642 q0 27 13 49.5t36 37.5q23 14 53 14q35 0 64.5 -17.5t48.5 -48.5q18 -31 29.5 -65.5t27.5 -98.5q31 -141 82 -272l-24 -14q-80 98 -195 213q-35 35 -64.5 66.5t-48.5 62.5q-23 39 -22 73z" />
<glyph unicode="&#xfa;" horiz-adv-x="1222" d="M49 727l51 150q74 211 275 210q186 0 186 -169q0 -63 -29 -156l-184 -553q-18 -55 -18 -88q0 -47 39 -47q61 0 145 120.5t169 320.5t151 429l30 115q182 4 297 28l-256 -913q-12 -43 -12 -68q0 -35 35 -34q39 0 69.5 36.5t61.5 124.5l39 105h39l-56 -156 q-39 -113 -111.5 -162t-162.5 -49q-55 0 -94 18.5t-58 51.5q-18 37 -18 84t20 133l56 211q-80 -193 -154 -301.5t-149.5 -152.5t-169.5 -44q-92 0 -138.5 43t-46.5 125q0 63 27 142l199 604q12 37 12 59q0 43 -39 43q-33 0 -64.5 -34.5t-64.5 -127.5l-37 -98h-39zM606 1247 q83 121 151 240q47 78 73 115.5t56 68.5q23 25 53.5 39t59.5 14q43 0 74 -30q29 -29 28 -62q0 -53 -59 -112q-49 -49 -170 -125q-143 -92 -246 -168z" />
<glyph unicode="&#xfb;" horiz-adv-x="1222" d="M49 727l51 150q74 211 275 210q186 0 186 -169q0 -63 -29 -156l-184 -553q-18 -55 -18 -88q0 -47 39 -47q61 0 145 120.5t169 320.5t151 429l30 115q182 4 297 28l-256 -913q-12 -43 -12 -68q0 -35 35 -34q39 0 69.5 36.5t61.5 124.5l39 105h39l-56 -156 q-39 -113 -111.5 -162t-162.5 -49q-55 0 -94 18.5t-58 51.5q-18 37 -18 84t20 133l56 211q-80 -193 -154 -301.5t-149.5 -152.5t-169.5 -44q-92 0 -138.5 43t-46.5 125q0 63 27 142l199 604q12 37 12 59q0 43 -39 43q-33 0 -64.5 -34.5t-64.5 -127.5l-37 -98h-39zM319 1278 q147 63 277.5 172t212.5 229h37q29 -145 84 -238t159 -163l-8 -29q-127 27 -214 64t-167 88q-165 -95 -370 -152z" />
<glyph unicode="&#xfc;" horiz-adv-x="1222" d="M49 727l51 150q74 211 275 210q186 0 186 -169q0 -63 -29 -156l-184 -553q-18 -55 -18 -88q0 -47 39 -47q61 0 145 120.5t169 320.5t151 429l30 115q182 4 297 28l-256 -913q-12 -43 -12 -68q0 -35 35 -34q39 0 69.5 36.5t61.5 124.5l39 105h39l-56 -156 q-39 -113 -111.5 -162t-162.5 -49q-55 0 -94 18.5t-58 51.5q-18 37 -18 84t20 133l56 211q-80 -193 -154 -301.5t-149.5 -152.5t-169.5 -44q-92 0 -138.5 43t-46.5 125q0 63 27 142l199 604q12 37 12 59q0 43 -39 43q-33 0 -64.5 -34.5t-64.5 -127.5l-37 -98h-39zM383 1384 q0 78 52 125t124 47q63 0 98 -36.5t35 -98.5q0 -80 -53 -126t-125 -46q-66 0 -98.5 37t-32.5 98zM848 1384q0 78 52 125t124 47q63 0 98 -36.5t35 -98.5q0 -80 -52 -126t-124 -46q-66 0 -99.5 37t-33.5 98z" />
<glyph unicode="&#xfd;" horiz-adv-x="987" d="M-221 -270q0 55 40 91t101 36q121 0 219 -142q147 72 267 189l-160 979q-10 57 -21.5 76.5t-31.5 19.5q-23 0 -43.5 -30.5t-53.5 -121.5l-37 -100h-39l52 150q41 117 103.5 163.5t148.5 46.5q88 0 137 -49t67 -172l95 -702q90 129 155.5 263t95.5 257q-84 45 -137 114.5 t-51 149.5q0 63 37 101t100 38q135 0 135 -186q0 -184 -118.5 -439t-284.5 -454q-104 -125 -230 -221t-259 -141q-82 -31 -146 -31q-66 0 -103.5 30.5t-37.5 84.5zM531 1247q83 121 151 240q47 78 73 115.5t56 68.5q23 25 53.5 39t59.5 14q43 0 74 -30q29 -29 28 -62 q0 -53 -59 -112q-49 -49 -170 -125q-143 -92 -246 -168z" />
<glyph unicode="&#xfe;" horiz-adv-x="1196" d="M-184 -371l12 43q74 0 106.5 27t53.5 100l372 1331q-57 -127 -132.5 -229t-182.5 -211l-22 27q94 100 153.5 173t119.5 180.5t120 260.5l67 240q166 12 305 57l-231 -817q72 145 149.5 210.5t174.5 65.5q125 0 189.5 -80.5t64.5 -234.5q0 -168 -76 -355.5t-215 -316.5 t-322 -129q-57 0 -106 18.5t-78 51.5l-55 -195q-12 -43 -13 -73q0 -57 41 -78t129 -23l-12 -43l-51 2q-215 6 -273 7q-68 0 -288 -9zM348 78q35 -47 92 -47q99 0 190 124t148.5 307t57.5 347q0 96 -17.5 133t-50.5 37q-57 0 -131 -97.5t-131 -244.5z" />
<glyph unicode="&#xff;" horiz-adv-x="987" d="M-221 -270q0 55 40 91t101 36q121 0 219 -142q147 72 267 189l-160 979q-10 57 -21.5 76.5t-31.5 19.5q-23 0 -43.5 -30.5t-53.5 -121.5l-37 -100h-39l52 150q41 117 103.5 163.5t148.5 46.5q88 0 137 -49t67 -172l95 -702q90 129 155.5 263t95.5 257q-84 45 -137 114.5 t-51 149.5q0 63 37 101t100 38q135 0 135 -186q0 -184 -118.5 -439t-284.5 -454q-104 -125 -230 -221t-259 -141q-82 -31 -146 -31q-66 0 -103.5 30.5t-37.5 84.5zM307 1384q0 78 52 125t124 47q63 0 98 -36.5t35 -98.5q0 -80 -53 -126t-125 -46q-66 0 -98.5 37t-32.5 98z M772 1384q0 78 52 125t124 47q63 0 98 -36.5t35 -98.5q0 -80 -52 -126t-124 -46q-66 0 -99.5 37t-33.5 98z" />
<glyph unicode="&#x131;" horiz-adv-x="659" d="M51 721l55 156q76 211 285 210q94 0 137 -47t43 -120q0 -53 -20 -119l-217 -627q-12 -37 -12 -59q0 -43 40 -43q33 0 64 34.5t66 126.5l36 99h39l-51 -150q-74 -211 -276 -211q-94 0 -140.5 43t-46.5 125q0 70 31 158l201 588q12 36 12 61q0 41 -35 41q-39 0 -69.5 -38 t-63.5 -124l-39 -104h-39z" />
<glyph unicode="&#x13f;" horiz-adv-x="1271" d="M-88 0l10 41q74 4 110 16.5t58.5 47t42.5 112.5l270 1016q16 70 17 98q0 45 -30 59.5t-107 18.5l10 41q109 -6 338 -6q193 0 319 6l-10 -41q-76 -4 -111.5 -16.5t-58 -47t-43.5 -112.5l-270 -1016q-18 -78 -19 -100q0 -43 30 -56.5t107 -13.5h82q145 0 256 89t193 294h45 q-20 -55 -49 -168q-33 -115 -55 -262q-139 6 -465 6q-446 0 -670 -6zM934 719q0 82 57.5 137.5t141.5 55.5q66 0 102.5 -33t36.5 -92q0 -74 -60.5 -132.5t-140.5 -58.5q-66 0 -101.5 33t-35.5 90z" />
<glyph unicode="&#x140;" horiz-adv-x="942" d="M14 154q0 63 25 143l321 1069q10 37 11 57q0 41 -32 59.5t-108 18.5l15 43q141 2 253.5 22.5t221.5 61.5l-430 -1454q-8 -26 -8 -51q0 -51 43 -51q63 0 123 161l36 99h39l-51 -150q-39 -115 -112.5 -163t-159.5 -48q-92 0 -139.5 48.5t-47.5 134.5zM580 567 q0 82 57.5 137.5t141.5 55.5q66 0 102.5 -33t36.5 -92q0 -74 -60.5 -132.5t-140.5 -58.5q-66 0 -101.5 33t-35.5 90z" />
<glyph unicode="&#x152;" horiz-adv-x="2035" d="M88 463q0 231 115.5 468.5t324.5 392.5t471 155q102 0 191 -33q92 -2 297 -2h239q283 0 408 6q-49 -131 -78 -242q-23 -70 -26 -127h-45q14 80 14 146q0 96 -43 136t-137 40h-121q-72 0 -108 -11.5t-56.5 -46t-40.5 -112.5l-129 -483h152q57 0 96 30.5t62.5 75.5 t51.5 123h46q-33 -100 -56 -195l-14 -55q-29 -106 -53 -250h-45q0 33 6 64q4 45 4 63q0 45 -22.5 72t-84.5 31h-153l-131 -492q-18 -78 -19 -100q0 -43 30 -56.5t105 -13.5h142q98 0 161.5 34t110.5 110.5t94 218.5h45q-14 -31 -43 -148q-39 -137 -53 -262q-137 6 -455 6 q-328 0 -499 -2q-109 -33 -215 -33q-254 0 -396.5 129t-142.5 363zM440 436q0 -201 60.5 -314.5t163.5 -113.5q92 0 143 32t74 114l286 1079q15 49 15 90q0 68 -44 93.5t-132 25.5q-147 0 -277.5 -146.5t-209.5 -381t-79 -478.5z" />
<glyph unicode="&#x153;" horiz-adv-x="1591" d="M12 309q0 162 94.5 343.5t262.5 304t376 122.5q88 0 139.5 -44t55.5 -122q90 82 196.5 128t221.5 46q102 0 165.5 -43t63.5 -126q0 -168 -190.5 -293t-442.5 -193q-12 -70 -12 -139q0 -109 40 -154t118 -45q63 0 141 40t154 128l37 -16q-74 -115 -198 -195t-278 -80 q-117 0 -200.5 52.5t-110.5 150.5q-57 -94 -139 -148.5t-180 -54.5q-147 0 -230.5 87t-83.5 251zM311 260q0 -182 119 -182q51 0 107.5 39t99.5 106q-2 10 -2 37q0 156 72.5 325t195.5 294q-2 55 -31.5 87.5t-85.5 32.5q-117 0 -227 -109.5t-179 -282.5t-69 -347zM961 469 q162 68 237 139q78 72 121 168t43 205q0 68 -49 68q-58 0 -130.5 -84t-134 -219.5t-87.5 -276.5z" />
<glyph unicode="&#x178;" horiz-adv-x="1503" d="M170 1102l51 158q39 117 112 168t177 51q133 0 210 -83t114.5 -235.5t66.5 -412.5q68 193 154 346t182 258q117 127 242 127q88 0 139 -50.5t51 -125.5q0 -78 -52 -131.5t-134 -53.5q-68 0 -105 34t-37 91q2 68 45.5 118t110.5 71q-10 8 -35 8q-61 0 -123 -47 q-92 -66 -208.5 -253.5t-210.5 -461.5l-117 -461q-12 -49 -12 -82q0 -53 34.5 -71.5t122.5 -22.5l-10 -41q-117 6 -352 6q-221 0 -330 -6l10 41q74 4 111 16.5t59.5 48t40.5 111.5l111 440q-33 281 -90.5 475.5t-145.5 194.5q-35 0 -56.5 -24.5t-37.5 -71.5l-43 -129h-45z M624 1704q0 80 51.5 127t124.5 47q63 0 98 -38t35 -99q0 -80 -53 -126t-125 -46q-63 0 -97 36.5t-34 98.5zM1116 1704q0 80 51 127t125 47q63 0 98 -38t35 -99q0 -80 -53.5 -126t-124.5 -46q-66 0 -98.5 36.5t-32.5 98.5z" />
<glyph unicode="&#x237;" horiz-adv-x="616" d="M-283 -385l9 37q104 4 181 81t113 230l259 922q12 41 12 63q0 39 -37 39q-35 0 -66.5 -38t-62.5 -124l-39 -104h-39l55 156q39 113 115 161.5t170 48.5q176 0 176 -161q0 -57 -20 -125l-170 -608q-41 -172 -102.5 -283t-159.5 -184q-150 -111 -394 -111z" />
<glyph unicode="&#x2c6;" horiz-adv-x="974" d="M288 1278q147 63 277.5 172t212.5 229h37q29 -145 84 -238t159 -163l-8 -29q-127 27 -214 64t-167 88q-165 -95 -370 -152z" />
<glyph unicode="&#x2dc;" horiz-adv-x="954" d="M301 1325q53 143 138 214t178 71q59 0 98 -21.5t84 -62.5q37 -33 64.5 -49.5t64.5 -16.5q41 0 75.5 28t69.5 91l37 -10q-53 -143 -137 -214t-178 -71q-59 0 -98.5 21.5t-84.5 62.5q-37 33 -64.5 49.5t-64.5 16.5q-80 0 -145 -119z" />
<glyph unicode="&#x2000;" horiz-adv-x="995" />
<glyph unicode="&#x2001;" horiz-adv-x="1991" />
<glyph unicode="&#x2002;" horiz-adv-x="995" />
<glyph unicode="&#x2003;" horiz-adv-x="1991" />
<glyph unicode="&#x2004;" horiz-adv-x="663" />
<glyph unicode="&#x2005;" horiz-adv-x="497" />
<glyph unicode="&#x2006;" horiz-adv-x="331" />
<glyph unicode="&#x2007;" horiz-adv-x="331" />
<glyph unicode="&#x2008;" horiz-adv-x="248" />
<glyph unicode="&#x2009;" horiz-adv-x="398" />
<glyph unicode="&#x200a;" horiz-adv-x="110" />
<glyph unicode="&#x2010;" horiz-adv-x="1036" d="M109 457l45 170h739l-45 -170h-739z" />
<glyph unicode="&#x2011;" horiz-adv-x="1036" d="M109 457l45 170h739l-45 -170h-739z" />
<glyph unicode="&#x2012;" horiz-adv-x="1036" d="M109 457l45 170h739l-45 -170h-739z" />
<glyph unicode="&#x2013;" horiz-adv-x="1413" d="M98 449l60 202h1126l-61 -202h-1125z" />
<glyph unicode="&#x2014;" horiz-adv-x="1998" d="M96 449l60 202h1710l-62 -202h-1708z" />
<glyph unicode="&#x2018;" horiz-adv-x="561" d="M248 1078q0 129 82 241.5t223 176.5l10 -33q-94 -47 -154.5 -120t-66.5 -157q55 59 127 60q61 0 94 -29t33 -82q0 -84 -62.5 -144.5t-150.5 -60.5q-66 0 -100.5 38t-34.5 110z" />
<glyph unicode="&#x2019;" horiz-adv-x="550" d="M281 1303q0 84 62.5 144t150.5 60q66 0 100.5 -37.5t34.5 -109.5q0 -129 -82 -241.5t-223 -176.5l-11 33q94 47 154.5 119.5t67.5 156.5q-55 -59 -127 -59q-61 0 -94 28.5t-33 82.5z" />
<glyph unicode="&#x201a;" horiz-adv-x="587" d="M-6 82q0 84 62.5 144.5t150.5 60.5q66 0 100.5 -38t34.5 -110q0 -129 -82 -241.5t-223 -176.5l-10 33q94 47 154.5 120t66.5 157q-55 -59 -127 -60q-61 0 -94 29t-33 82z" />
<glyph unicode="&#x201c;" horiz-adv-x="960" d="M248 1080q0 129 82 241.5t223 176.5l10 -33q-94 -47 -154.5 -120t-66.5 -157q55 59 127 60q57 0 88 -29t31 -82q0 -84 -60.5 -144.5t-144.5 -60.5q-135 0 -135 148zM651 1080q0 129 82 241.5t223 176.5l11 -33q-94 -47 -156 -120t-68 -157q59 59 129 60q57 0 88 -29 t31 -82q0 -84 -60.5 -144.5t-144.5 -60.5q-135 0 -135 148z" />
<glyph unicode="&#x201d;" horiz-adv-x="948" d="M287 1309q0 84 60.5 144.5t144.5 60.5q135 0 135 -148q0 -129 -82 -241.5t-223 -176.5l-11 33q94 47 156 120t68 157q-59 -59 -129 -60q-57 0 -88 29t-31 82zM690 1309q0 84 60.5 144.5t144.5 60.5q135 0 135 -148q0 -129 -82 -241.5t-223 -176.5l-10 33q94 47 154.5 120 t66.5 157q-55 -59 -127 -60q-57 0 -88 29t-31 82z" />
<glyph unicode="&#x201e;" horiz-adv-x="983" d="M-6 82q0 84 60.5 144.5t144.5 60.5q135 0 135 -148q0 -129 -82 -241.5t-223 -176.5l-11 33q94 47 156 120t68 157q-59 -59 -129 -60q-57 0 -88 29t-31 82zM397 82q0 84 60.5 144.5t144.5 60.5q135 0 135 -148q0 -129 -82 -241.5t-223 -176.5l-10 33q94 47 154.5 120 t66.5 157q-55 -59 -127 -60q-57 0 -88 29t-31 82z" />
<glyph unicode="&#x2022;" horiz-adv-x="882" d="M123 479q0 86 45 161t119.5 119t158.5 44q113 0 189 -75t76 -185q0 -86 -45 -161t-120 -119t-159 -44q-113 0 -188.5 75t-75.5 185z" />
<glyph unicode="&#x2026;" horiz-adv-x="1720" d="M-2 94q0 82 57.5 137.5t141.5 55.5q66 0 102.5 -33t36.5 -92q0 -74 -60.5 -132.5t-140.5 -58.5q-66 0 -101.5 33t-35.5 90zM573 94q0 82 57.5 137.5t141.5 55.5q66 0 102.5 -33t36.5 -92q0 -74 -60.5 -132.5t-140.5 -58.5q-66 0 -101.5 33t-35.5 90zM1147 94 q0 82 57.5 137.5t141.5 55.5q66 0 102.5 -33t36.5 -92q0 -74 -60.5 -132.5t-140.5 -58.5q-66 0 -101.5 33t-35.5 90z" />
<glyph unicode="&#x202f;" horiz-adv-x="398" />
<glyph unicode="&#x2039;" horiz-adv-x="786" d="M39 506l6 24q176 111 339 248t333 309h37q-62 -135 -187 -312t-221 -257q63 -76 120.5 -246t68.5 -301h-37q-106 166 -217 298t-242 237z" />
<glyph unicode="&#x203a;" horiz-adv-x="784" d="M-6 -29q66 137 189.5 313.5t217.5 254.5q-63 76 -120.5 246.5t-67.5 301.5h37q108 -167 218 -299.5t243 -236.5l-6 -25q-180 -111 -342 -247t-332 -308h-37z" />
<glyph unicode="&#x2044;" horiz-adv-x="122" d="M-758 -86l1706 1774l31 -27l-1706 -1774z" />
<glyph unicode="&#x205f;" horiz-adv-x="497" />
<glyph unicode="&#x20ac;" horiz-adv-x="1339" d="M74 608l12 41h170q20 88 51 164h-178l12 41h183q72 168 185.5 310.5t264 228.5t322.5 86q131 0 215 -70q41 -35 62.5 -82t21.5 -98q0 -82 -51.5 -136.5t-122.5 -54.5q-57 0 -92 35t-35 92q0 70 50 126.5t124 84.5q-10 23 -48 39.5t-81 16.5q-139 0 -269.5 -165 t-218.5 -413h359l-35 -41h-338q-25 -70 -45 -164h248l-37 -41h-221q-31 -147 -31 -280q0 -162 45 -237t145 -75q43 0 88 13.5t70 33.5q-35 18 -57.5 55.5t-22.5 82.5q0 84 54.5 141t127.5 57q61 0 93 -35.5t32 -95.5q0 -72 -49 -131t-127 -102q-115 -63 -264 -64 q-223 0 -341 115t-118 348q0 82 19 174h-172z" />
<glyph unicode="&#x2116;" horiz-adv-x="2437" d="M-84 23q0 80 52 133t134 53q66 0 104 -34t38 -89q0 -68 -44 -119t-112 -71q10 -8 35 -9q53 0 97 30t75 81q76 121 158 432t178 803q12 59 12 92q0 49 -32.5 64.5t-125.5 19.5l11 41q63 -6 182 -6q96 0 166 6l264 -895q158 666 289 858q90 131 221 131q92 0 148.5 -43 t56.5 -106q0 -74 -58.5 -124t-138.5 -50q-66 0 -103.5 31.5t-37.5 78.5q0 57 43 102.5t110 63.5q-8 8 -32 8q-98 1 -172 -108q-90 -135 -188.5 -476t-223.5 -931l-2 2v-2h-45l-330 1097q-86 -426 -166 -719.5t-151 -390.5q-45 -59 -95.5 -94t-123.5 -35q-90 0 -141.5 49.5 t-51.5 125.5zM1473 125l14 41h758l-13 -41h-759zM1520 274l14 41h758l-13 -41h-759zM1546 702q0 101 61.5 215.5t180.5 194.5t278 80q152 0 237 -63.5t85 -188.5q0 -100 -61.5 -215t-180 -193.5t-278.5 -78.5q-150 0 -236 62.5t-86 186.5zM1804 608q0 -119 74 -119 q61 0 119.5 84t95.5 213t37 250q0 119 -74 119q-59 0 -118.5 -85t-96.5 -213t-37 -249z" />
<glyph unicode="&#x2122;" horiz-adv-x="2373" d="M328 1450q115 -6 397 -6q279 0 395 6q-14 -106 -14 -193q0 -66 6 -106h-47q-16 133 -58 192.5t-98 59.5h-73v-612q0 -59 10 -86t39.5 -36.5t95.5 -13.5v-41q-102 6 -256 7q-174 0 -258 -7v41q66 4 94.5 13.5t39.5 36t11 86.5v612h-73q-56 0 -98 -59.5t-58 -192.5h-47 q6 37 6 106q0 86 -14 193zM1212 614v41q49 4 70 11.5t28 30t7 73.5v524q0 51 -7 74t-27.5 30t-70.5 11v41q68 -6 203 -6q72 0 139 6l209 -514l193 508h133q125 0 195 6v-41q-49 -4 -70 -11t-28 -29.5t-7 -74.5v-524q0 -51 7 -73.5t27.5 -30t70.5 -11.5v-41q-86 6 -216 7 q-133 0 -196 -7v41q37 4 54.5 12.5t23.5 30t6 72.5v545l-268 -711h-33l-291 715v-549q0 -51 6 -72.5t23.5 -30t54.5 -12.5v-41q-43 6 -107 7q-82 0 -129 -7z" />
<glyph unicode="&#x2190;" horiz-adv-x="1394" d="M51 541q147 43 251 136t173 247h35q-84 -178 -88 -367h256q127 47 219 136t156 231h34q-72 -156 -159.5 -247t-210.5 -136q123 -45 211 -136.5t159 -246.5h-34q-63 141 -155.5 230t-219.5 136h-256q4 -188 88 -366h-35q-70 154 -173 247t-251 136zM813 541 q147 43 250.5 136t173.5 247h35q-72 -156 -160 -247t-211 -136q123 -45 211 -136.5t160 -246.5h-35q-70 154 -173 247t-251 136z" />
<glyph unicode="&#x2191;" horiz-adv-x="1011" d="M123 14q154 70 247 173.5t136 250.5q43 -147 136 -250.5t247 -173.5v-34q-156 72 -247 159.5t-136 210.5q-45 -123 -136 -211t-247 -159v34zM123 164v35q141 63 230 155t136 219v256q-188 -4 -366 -88v35q154 70 247 173.5t136 250.5q43 -147 136 -250.5t247 -173.5v-35 q-179 84 -367 88v-256q47 -127 136.5 -219t230.5 -155v-35q-156 72 -247 160t-136 211q-45 -123 -136 -211t-247 -160z" />
<glyph unicode="&#x2192;" horiz-adv-x="1394" d="M123 158h35q70 154 173 247t251 136q-147 43 -250.5 136t-173.5 247h-35q72 -156 160 -247t211 -136q-123 -45 -211 -136.5t-160 -246.5zM308 158h34q63 141 155.5 230t219.5 136h256q-4 -188 -88 -366h35q70 154 173 247t251 136q-147 43 -251 136t-173 247h-35 q84 -178 88 -367h-256q-127 47 -219 136t-156 231h-34q72 -156 159.5 -247t210.5 -136q-123 -45 -211 -136.5t-159 -246.5z" />
<glyph unicode="&#x2193;" horiz-adv-x="1011" d="M123 403v35q178 -84 366 -88v256q-47 127 -136 219.5t-230 155.5v35q156 -72 247 -160t136 -211q45 123 136 211t247 160v-35q-141 -63 -230.5 -155.5t-136.5 -219.5v-256q188 4 367 88v-35q-154 -70 -247 -173t-136 -250q-43 147 -136.5 250.5t-246.5 172.5zM123 1165 v35q156 -72 247 -160t136 -211q45 123 136 211t247 160v-35q-154 -70 -247 -173t-136 -251q-43 147 -136.5 251t-246.5 173z" />
<glyph unicode="&#x2194;" horiz-adv-x="1382" d="M51 541q147 43 251 136t173 247h35q-84 -178 -88 -367h539q-4 188 -89 367h35q70 -154 173.5 -247t250.5 -136q-147 -43 -250.5 -136.5t-173.5 -246.5h-35q84 178 89 366h-539q4 -188 88 -366h-35q-70 154 -173 247t-251 136z" />
<glyph unicode="&#x2196;" horiz-adv-x="1400" d="M133 1114q145 -82 303 -82q125 0 269 53l24 -24q-193 -72 -321 -199l184 -182q127 -57 254 -57q123 0 266 53l25 -25q-160 -59 -295 -59q-123 0 -238 51q51 -115 51 -237q0 -135 -59 -295l-25 24q53 143 54 266q0 127 -58 254l-182 185q-127 -129 -199 -322l-24 25 q53 143 53 268q0 158 -82 303zM672 575q145 -82 303 -81q125 0 268 53l25 -25q-168 -61 -297 -61q-125 0 -236 51q51 -111 51 -236q0 -127 -61 -296l-25 24q53 143 54 268q0 158 -82 303z" />
<glyph unicode="&#x2197;" horiz-adv-x="1400" d="M133 522q168 -61 297 -61q125 0 236 51q-51 -111 -51 -236q0 -127 61 -296l25 24q-53 143 -54 268q0 158 82 303q-145 -82 -303 -81q-125 0 -268 53zM264 651q160 -59 295 -59q123 0 238 51q-51 -115 -51 -237q0 -135 59 -295l25 24q-53 143 -54 266q0 127 58 254 l182 185q127 -129 199 -322l24 25q-53 143 -53 268q0 158 82 303q-145 -82 -303 -82q-125 0 -269 53l-24 -24q193 -72 321 -199l-184 -182q-127 -57 -254 -57q-123 0 -266 53z" />
<glyph unicode="&#x2198;" horiz-adv-x="1400" d="M133 572q168 61 297 61q125 0 236 -51q-51 111 -51 236q0 127 61 296l25 -24q-53 -143 -54 -268q0 -158 82 -303q-145 82 -303 81q-125 0 -268 -53zM264 443q160 59 295 59q123 0 238 -51q-51 115 -51 237q0 135 59 295l25 -24q-53 -143 -54 -266q0 -127 58 -254 l182 -185q127 129 199 322l24 -25q-53 -143 -53 -268q0 -158 82 -303q-145 82 -303 82q-125 0 -269 -53l-24 24q193 72 321 199l-184 182q-127 57 -254 57q-123 0 -266 -53z" />
<glyph unicode="&#x2199;" horiz-adv-x="1400" d="M133 -20q82 145 82 303q0 125 -53 268l24 24q72 -193 199 -321l182 184q57 127 58 254q0 123 -54 266l25 25q59 -160 59 -295q0 -123 -51 -237q115 51 238 51q135 0 295 -60l-25 -24q-143 53 -266 53q-127 0 -254 -57l-184 -183q129 -127 321 -198l-24 -25 q-143 53 -269 53q-158 0 -303 -81zM672 518q82 145 82 303q0 125 -54 269l25 24q61 -168 61 -297q0 -125 -51 -235q111 51 236 51q129 0 297 -62l-25 -24q-143 53 -268 53q-158 0 -303 -82z" />
<glyph unicode="&#x25fc;" horiz-adv-x="1085" d="M0 0v1085h1085v-1085h-1085z" />
<glyph unicode="&#xfb03;" horiz-adv-x="1871" d="M-76 -385l373 1372l8 29h-199l13 41h198q41 121 97.5 210t122.5 140q145 113 346 113q166 0 264 -84q41 33 59 43q100 66 219 94.5t267 28.5q141 0 206 -58q47 -35 41 -96q-4 -80 -64 -130t-146 -50q-72 0 -111 32.5t-39 88.5q0 72 38 117.5t101 62.5h-26 q-150 0 -246 -64q-70 -45 -114 -128t-83 -228l-24 -92h297q172 4 297 30l-269 -913q-12 -37 -12 -59q0 -43 39 -43q33 0 63.5 34.5t65.5 126.5l39 99h39l-53 -150q-39 -113 -118 -162t-165 -49q-90 0 -133 45t-43 127q0 72 26 154l211 719h-297l-374 -1372q-172 -2 -297 -29 l385 1401h-332l-373 -1372q-172 -2 -297 -29zM606 1057h332q63 231 184 354q-72 55 -172 55q-94 0 -159 -47q-57 -39 -98.5 -115.5t-76.5 -207.5z" />
<glyph unicode="&#xfb04;" horiz-adv-x="1894" d="M-76 -385l373 1372l8 29h-199l13 41h198q41 121 97.5 210t122.5 140q145 113 346 113q166 0 268 -88q147 113 371 112h4q141 2 253.5 22.5t221.5 61.5l-430 -1454q-8 -27 -8 -51q0 -51 41 -51q66 0 125 161l36 99h39l-51 -150q-41 -115 -113.5 -163t-160.5 -48 q-92 0 -138.5 48.5t-46.5 134.5q0 63 25 143l321 1069q10 37 11 59q0 41 -32 60.5t-103 19.5q-70 0 -125 -37q-41 -27 -68 -84t-53 -159l-45 -168h194l-12 -41h-195l-370 -1372q-170 -2 -295 -29l379 1401h-332l-373 -1372q-172 -2 -297 -29zM606 1057h332q35 125 79 210 t107 142q-72 57 -174 57t-168 -53q-55 -41 -93 -115.5t-73 -201.5z" />
<glyph horiz-adv-x="1736" d="M33 0l10 41q70 4 104.5 16.5t56 47t46.5 112.5l225 746q-123 27 -196.5 94t-73.5 180q0 125 93 200.5t261 75.5q119 0 209 -26.5t209 -79.5q123 -51 205 -75.5t190 -24.5q209 0 406 79q78 119 129 119q16 0 26 -10q13 -13 13 -25q0 -49 -150 -106q-111 -98 -182.5 -245.5 t-130.5 -368.5h213l-8 -41h-215q-8 -23 -15 -54l-125 -522q-57 -231 -202.5 -374.5t-397.5 -143.5q-131 0 -210 38t-79 120q0 66 46.5 108.5t125.5 42.5q70 0 115 -33.5t45 -93.5q0 -90 -110 -141q18 -6 57 -6q78 0 126 58.5t76.5 147.5t80.5 287l110 420q23 82 45 146h-266 l8 41h275q55 133 136 233t175 177t248 181q-84 -27 -221 -86q-115 -49 -189 -71.5t-170 -22.5q-80 0 -146.5 12.5t-179.5 38.5q-92 25 -163.5 38.5t-151.5 13.5q-164 0 -164 -115q0 -76 81 -117t212 -41q98 0 169 18.5t140 57.5l17 -35q-92 -47 -170 -65l-226 -750 q-20 -61 -20 -100q0 -41 31.5 -57.5t109.5 -18.5l-8 -41q-119 6 -334 6q-213 0 -321 -6zM645 1606q80 63 141.5 120.5t73.5 67.5q63 59 99 89t75 52q39 23 88 23q72 0 99 -55q10 -18 10 -41q0 -35 -24.5 -65t-67.5 -52q-35 -18 -87.5 -36.5t-109.5 -35.5q-154 -41 -283 -92z M1458 1606q80 63 141.5 120.5t73.5 67.5q63 59 99 89t75 52q39 23 88 23q72 0 99 -55q10 -18 10 -41q0 -35 -24.5 -65t-67.5 -52q-35 -18 -87.5 -36.5t-109.5 -35.5q-154 -41 -283 -92z" />
<glyph horiz-adv-x="1591" d="M86 463q0 231 118 468.5t331 392.5t479 155q262 0 409.5 -129t147.5 -365q0 -231 -119 -467.5t-332 -391.5t-479 -155q-262 0 -408.5 129t-146.5 363zM438 436q0 -199 61.5 -313.5t159.5 -114.5q139 0 268.5 147.5t209.5 381t80 477.5q0 199 -61.5 313.5t-160.5 114.5 q-139 0 -268 -147.5t-209 -381t-80 -477.5zM987 1569q35 94 65 209q16 57 28.5 91t29.5 58q20 29 49.5 46.5t62.5 17.5q45 0 79 -31t34 -74q0 -41 -35 -94q-18 -27 -57 -54.5t-49 -35.5q-94 -68 -183 -148z" />
<glyph horiz-adv-x="659" d="M51 721l58 156q76 211 284 210q94 0 137 -46t43 -119q0 -59 -22 -121l-215 -627q-12 -37 -12 -59q0 -43 41 -43q31 0 62.5 34.5t66.5 126.5l36 99h39l-53 -150q-72 -211 -276 -211q-186 0 -187 170q0 68 31 156l201 588q14 47 14 61q0 41 -37 41t-67.5 -38t-63.5 -124 l-41 -104h-39zM362 1401q3 84 62 133t147 49q72 0 112 -33.5t40 -93.5q0 -82 -61.5 -135t-151.5 -53q-74 0 -113 35.5t-35 97.5z" />
<glyph horiz-adv-x="1304" d="M51 721l58 156q76 211 284 210q94 0 137 -45t43 -120q0 -57 -22 -121l-215 -627q-8 -25 -8 -49q0 -31 17 -48.5t52 -17.5q47 0 90 32t72 97q31 68 46.5 141.5t37.5 207.5q18 121 34.5 198.5t45.5 145.5q45 111 130 158.5t189 47.5q100 0 144.5 -47t44.5 -125 q0 -45 -19 -114l-155 -565q-61 -219 -133 -344t-176 -187q-121 -90 -291 -90q-99 0 -147 31.5t-48 89.5q0 59 46 104t110 45q55 0 88 -31.5t33 -76.5q0 -35 -20.5 -71t-57.5 -60q78 10 125 59t78 162l286 1018q6 25 6 45q0 57 -51 57q-49 0 -88 -38t-72 -122 q-33 -92 -59 -280q-20 -133 -40.5 -224.5t-57.5 -170.5q-47 -102 -124 -141.5t-175 -39.5q-113 0 -172.5 49.5t-59.5 139.5q0 53 27 137l201 588q14 37 14 63q0 39 -37 39t-67.5 -38t-63.5 -124l-41 -104h-39zM391 1243q84 121 152 240q47 78 72.5 115.5t56.5 68.5 q23 25 53.5 39t58.5 14q43 0 74 -30q29 -29 29 -62q0 -53 -60 -112q-49 -49 -170 -125q-143 -92 -245 -168zM1061 1243q83 121 151 240q47 78 73 115.5t56 68.5q23 25 53.5 39t59.5 14q43 0 74 -30q29 -29 28 -62q0 -53 -59 -112q-49 -49 -170 -125q-143 -92 -246 -168z" />
<glyph horiz-adv-x="1083" d="M25 309q0 168 76.5 350.5t227 305t359.5 122.5q160 0 246 -87t86 -250q0 -168 -77 -350.5t-227.5 -305.5t-359.5 -123q-160 0 -245.5 87t-85.5 251zM299 152q0 -74 16.5 -107t53.5 -33q76 0 165 141.5t150 351.5t61 398q0 80 -16 112t-51 32q-76 0 -166 -145.5 t-151.5 -356.5t-61.5 -393zM657 1235q33 106 56 233q10 49 20 91.5t27 68.5q18 33 50 53.5t67 20.5t61 -16q51 -29 51 -87q0 -43 -26 -86q-14 -27 -44 -55t-63 -59q-10 -10 -62.5 -59.5t-109.5 -116.5z" />
<glyph horiz-adv-x="1665" d="M16 287q0 176 88.5 363.5t248 312t362.5 124.5q109 0 178 -53q29 37 29 86q0 27 -10.5 51.5t-30.5 59.5q-37 61 -37 100q0 80 44 141.5t117.5 95.5t159.5 34q92 0 147.5 -45.5t55.5 -139.5q0 -16 -4 -53q158 6 266 29l-96 -334h231l-6 -41h-237l-244 -844q-6 -20 -6 -41 q0 -31 16.5 -46t44.5 -15q45 0 87 44t75 132l31 84h39l-41 -119q-80 -242 -307 -242q-104 0 -156.5 54.5t-52.5 148.5q0 59 18 123l207 721h-184l10 41h186l70 239q14 66 14 103q0 80 -43 123t-127 43q-111 0 -190.5 -61.5t-79.5 -166.5q0 -23 7 -41t15.5 -35.5t12.5 -23.5 q18 -33 28.5 -58.5t10.5 -54.5q0 -27 -11.5 -57.5t-33.5 -56.5q47 -51 47 -121q0 -55 -27 -108.5t-74 -86t-102 -32.5q-51 0 -84 32.5t-33 85.5q0 80 55.5 142.5t130.5 81.5q-35 41 -98 41q-100 0 -195.5 -110t-154.5 -287t-59 -363q0 -205 155 -205q147 0 271 180l41 -16 q-74 -119 -188 -197t-259 -78q-150 0 -239 80t-89 236z" />
<glyph horiz-adv-x="1980" d="M-39 209q0 61 31 104t84 43t85 -45t32 -114q0 -45 -10.5 -81t-30.5 -87q31 -14 79 -15q78 0 125 47.5t47 128.5q0 66 -28.5 135.5t-85.5 157.5q-8 12 -48 73.5t-59.5 118t-19.5 111.5q0 133 99 217t274 84q96 0 163 -22q18 37 19 80q0 41 -23 94q-2 6 -12 38t-10 66 q0 117 107.5 188t256.5 71q98 0 153.5 -45.5t55.5 -139.5q0 -31 -6 -67q143 14 270 55l-176 -625q74 160 156 233.5t176 73.5q125 0 189.5 -80.5t64.5 -234.5q0 -168 -75 -355.5t-214 -316.5t-323 -129q-57 0 -106.5 18.5t-78.5 53.5l-55 -197q-12 -43 -12 -73q0 -57 41 -78 t129 -23l-13 -43l-47 2q-209 6 -276 7q-68 0 -289 -9l12 43q74 0 107 27t53 100l424 1522q10 47 10 80q0 166 -176 166q-127 0 -220 -58.5t-93 -160.5q0 -29 8 -60t10 -37q20 -61 21 -100q0 -55 -23 -100q113 -53 113 -177q0 -57 -33 -104t-92 -47q-51 0 -82 39t-31 98 q0 51 18.5 95t45.5 75q-27 16 -72 17q-74 0 -116 -46.5t-44 -128.5q0 -55 21.5 -100t73.5 -127l28 -43q66 -109 93.5 -178.5t27.5 -138.5q0 -90 -47 -161t-134 -112t-204 -41q-145 0 -241.5 56.5t-96.5 181.5zM1133 78q39 -47 94 -47q96 0 187 124t148.5 307t57.5 347 q0 96 -17.5 133t-50.5 37q-61 0 -139 -119t-143 -301z" />
<glyph horiz-adv-x="1333" d="M-186 0l6 41q55 20 105 69.5t132 153.5l799 996l53 -3l52 3l126 -1088q9 -68 37.5 -98.5t63.5 -32.5l-10 -41q-104 6 -297 6q-209 0 -308 -6l11 41q96 4 137 30.5t41 100.5q0 27 -2 41l-31 254h-459l-151 -188q-63 -80 -64 -134q0 -86 164 -104l-4 -41q-135 6 -250 6 q-90 0 -151 -6zM303 508h420l-55 453z" />
<glyph horiz-adv-x="1333" d="M-186 0l6 41q55 20 105 69.5t132 153.5l799 996l53 -3l52 3l126 -1088q9 -68 37.5 -98.5t63.5 -32.5l-10 -41q-104 6 -297 6q-209 0 -308 -6l11 41q96 4 137 30.5t41 100.5q0 27 -2 41l-31 254h-459l-151 -188q-63 -80 -64 -134q0 -86 164 -104l-4 -41q-135 6 -250 6 q-90 0 -151 -6zM303 508h420l-55 453zM756 1401q80 63 141.5 120.5t73.5 67.5q63 59 99 89t75 53t88 22q72 0 99 -55q10 -18 10 -41q0 -35 -24.5 -64.5t-67.5 -52.5q-35 -18 -87.5 -36.5t-109.5 -35.5q-154 -41 -283 -92z" />
<glyph horiz-adv-x="1333" d="M-186 0l6 41q55 20 105 69.5t132 153.5l799 996l53 -3l52 3l126 -1088q9 -68 37.5 -98.5t63.5 -32.5l-10 -41q-104 6 -297 6q-209 0 -308 -6l11 41q96 4 137 30.5t41 100.5q0 27 -2 41l-31 254h-459l-151 -188q-63 -80 -64 -134q0 -86 164 -104l-4 -41q-135 6 -250 6 q-90 0 -151 -6zM303 508h420l-55 453zM463 1403q170 53 317.5 138t237.5 179h37q47 -115 111.5 -189.5t173.5 -127.5l-9 -29q-133 23 -222 50.5t-189 70.5q-214 -78 -447 -121z" />
<glyph horiz-adv-x="1333" d="M-186 0l6 41q55 20 105 69.5t132 153.5l799 996l53 -3l52 3l126 -1088q9 -68 37.5 -98.5t63.5 -32.5l-10 -41q-104 6 -297 6q-209 0 -308 -6l11 41q96 4 137 30.5t41 100.5q0 27 -2 41l-31 254h-459l-151 -188q-63 -80 -64 -134q0 -86 164 -104l-4 -41q-135 6 -250 6 q-90 0 -151 -6zM303 508h420l-55 453zM541 1499q0 80 51 127t125 47q63 0 98 -38t35 -99q0 -80 -53 -126t-125 -46q-63 0 -97 37t-34 98zM1032 1499q0 80 51.5 127t124.5 47q63 0 98.5 -38t35.5 -99q0 -80 -53.5 -126t-125.5 -46q-66 0 -98.5 37t-32.5 98z" />
<glyph horiz-adv-x="1333" d="M-186 0l6 41q55 20 105 69.5t132 153.5l799 996l53 -3l52 3l126 -1088q9 -68 37.5 -98.5t63.5 -32.5l-10 -41q-104 6 -297 6q-209 0 -308 -6l11 41q96 4 137 30.5t41 100.5q0 27 -2 41l-31 254h-459l-151 -188q-63 -80 -64 -134q0 -86 164 -104l-4 -41q-135 6 -250 6 q-90 0 -151 -6zM303 508h420l-55 453zM563 1638q0 29 15 52q29 49 92 49q43 0 78 -23q29 -18 50 -42.5t62 -76.5q10 -12 57.5 -72.5t117.5 -127.5l-17 -23q-113 51 -246 96q-14 6 -62 23.5t-83 40.5q-29 16 -46.5 45t-17.5 59z" />
<glyph horiz-adv-x="1333" d="M-186 0l6 41q55 20 105 69.5t132 153.5l799 996l53 -3l52 3l126 -1088q9 -68 37.5 -98.5t63.5 -32.5l-10 -41q-104 6 -297 6q-209 0 -308 -6l11 41q96 4 137 30.5t41 100.5q0 27 -2 41l-31 254h-459l-151 -188q-63 -80 -64 -134q0 -86 164 -104l-4 -41q-135 6 -250 6 q-90 0 -151 -6zM303 508h420l-55 453zM742 1491q0 94 71.5 158.5t176.5 64.5q86 0 143 -48t57 -126q0 -61 -35.5 -112.5t-94 -82t-124.5 -30.5q-86 0 -140 47t-54 129zM797 1491q0 -61 44 -97t103 -36q76 0 134.5 52t58.5 128q0 63 -46 98t-108 35q-76 0 -131 -54t-55 -126z " />
<glyph horiz-adv-x="1333" d="M-186 0l6 41q55 20 105 69.5t132 153.5l799 996l53 -3l52 3l126 -1088q9 -68 37.5 -98.5t63.5 -32.5l-10 -41q-104 6 -297 6q-209 0 -308 -6l11 41q96 4 137 30.5t41 100.5q0 27 -2 41l-31 254h-459l-151 -188q-63 -80 -64 -134q0 -86 164 -104l-4 -41q-135 6 -250 6 q-90 0 -151 -6zM303 508h420l-55 453zM508 1409q55 143 146.5 214t193.5 71q72 0 120 -21.5t105 -60.5q49 -35 83 -51.5t81 -16.5q45 0 83 27.5t75 91.5l37 -10q-55 -143 -147.5 -214t-192.5 -71q-74 0 -121 21.5t-107 62.5q-49 33 -81.5 49.5t-79.5 16.5q-45 0 -83 -28 t-75 -91z" />
<glyph horiz-adv-x="1871" d="M-168 0v41q63 4 176 131l897 1016q-27 12 -102 16l10 41q45 -2 141 -2l99 111h53l-100 -113q180 -2 469 -2q294 0 423 6q-27 -74 -77 -241q-18 -61 -27 -127h-45q14 80 14 145q0 96 -43 136t-137 40h-129q-72 0 -107.5 -11t-56 -46t-41.5 -113l-102 -381h153 q57 0 96.5 31t63 76t51.5 123h45q-33 -100 -55 -195l-14 -55q-23 -84 -53 -250h-45q0 33 6 63q4 45 4 64q0 45 -22.5 71.5t-84.5 30.5h-155l-105 -389q-18 -78 -18 -100q0 -43 29.5 -56.5t105.5 -13.5h149q98 0 162 34t111 110.5t94 218.5h45q-16 -45 -43 -148 q-35 -121 -53 -262q-139 6 -463 6q-440 0 -664 -6l9 41q74 4 110.5 16.5t58 47t42.5 112.5l104 389h-367l-366 -413q-31 -37 -45.5 -58.5t-14.5 -38.5q0 -47 127 -55v-41q-55 6 -176 6q-88 0 -137 -6zM481 647h340l103 381q16 66 16 98q0 20 -6 35z" />
<glyph horiz-adv-x="1361" d="M-86 0l8 41q74 4 111 16.5t58.5 47t41.5 112.5l217 811q18 74 19 98q0 41 -31 58.5t-109 19.5l11 41q104 -6 317 -6q92 0 139 2l150 2q231 0 342.5 -59.5t111.5 -177.5q0 -132 -140 -224t-374 -120q229 -12 332 -87t103 -184q0 -123 -82 -211t-224.5 -134t-324.5 -46 l-150 2q-123 4 -202 4q-215 0 -324 -6zM440 117q0 -35 17.5 -52.5t60.5 -17.5q362 0 363 377q0 96 -52.5 152.5t-166.5 56.5h-93l-110 -416q-18 -70 -19 -100zM578 668h57q104 0 180 49t116 132t40 181q0 174 -160 174q-55 0 -78.5 -20.5t-40.5 -83.5z" />
<glyph horiz-adv-x="1390" d="M61 401q0 207 114 410t323 333t477 130q113 0 181.5 -36t121.5 -97q16 -18 29 -19q41 0 84 123h45q-63 -184 -133 -471h-46q12 104 13 158q0 45 -7.5 77.5t-25.5 67.5q-37 78 -111.5 119t-169.5 41q-145 0 -273 -135t-205 -341t-77 -401q0 -170 60.5 -261t167.5 -91 q94 0 194.5 42t173.5 118q53 55 92 126t93 198h45q-96 -354 -121 -492h-45q6 43 6 70q0 53 -27 53q-16 0 -41 -19q-94 -66 -183 -99.5t-206 -33.5q-260 0 -404.5 112t-144.5 318z" />
<glyph horiz-adv-x="1390" d="M61 401q0 207 114 410t323 333t477 130q113 0 181.5 -36t121.5 -97q16 -18 29 -19q41 0 84 123h45q-63 -184 -133 -471h-46q12 104 13 158q0 45 -7.5 77.5t-25.5 67.5q-37 78 -111.5 119t-169.5 41q-145 0 -273 -135t-205 -341t-77 -401q0 -170 60.5 -261t167.5 -91 q94 0 194.5 42t173.5 118q53 55 92 126t93 198h45q-96 -354 -121 -492h-45q6 43 6 70q0 53 -27 53q-16 0 -41 -19q-94 -66 -183 -99.5t-206 -33.5q-260 0 -404.5 112t-144.5 318zM270 -344l12 31q82 -23 166 -23q68 0 126 20.5t58 73.5q0 47 -65 47q-37 0 -72 -14l98 219h56 l-64 -139q57 20 119 20q63 0 100 -25.5t37 -72.5q0 -90 -105.5 -134t-242.5 -44q-70 0 -129 12.5t-94 28.5z" />
<glyph horiz-adv-x="1585" d="M-78 0l6 41q70 4 106 16.5t57.5 48t41.5 111.5l217 811q18 74 19 98q0 41 -31 58.5t-109 19.5l7 41q88 -6 260 -6h63q221 6 305 6q334 0 495 -115.5t161 -347.5q0 -217 -123 -396t-347.5 -282.5t-519.5 -103.5l-112 2q-115 4 -199 4q-197 0 -297 -6zM438 104 q0 -39 23.5 -53t83.5 -14q209 0 354 106.5t217 281.5t72 384q0 197 -90 298t-267 101q-49 0 -75.5 -13t-45 -49t-36.5 -114l-215 -819q-20 -78 -21 -109z" />
<glyph horiz-adv-x="1585" d="M-78 0l6 41q70 4 106 16.5t57.5 48t41.5 111.5l217 811q18 74 19 98q0 41 -31 58.5t-109 19.5l7 41q88 -6 260 -6h63q221 6 305 6q334 0 495 -115.5t161 -347.5q0 -217 -123 -396t-347.5 -282.5t-519.5 -103.5l-112 2q-115 4 -199 4q-197 0 -297 -6zM28 602l13 51h868 l-12 -51h-869zM438 104q0 -39 23.5 -53t83.5 -14q209 0 354 106.5t217 281.5t72 384q0 197 -90 298t-267 101q-49 0 -75.5 -13t-45 -49t-36.5 -114l-215 -819q-20 -78 -21 -109z" />
<glyph horiz-adv-x="1298" d="M-88 0l8 41q74 4 111 16.5t58.5 47t41.5 112.5l219 811q16 70 17 98q0 45 -30 59.5t-108 18.5l11 41q219 -6 655 -6q301 0 432 6q-45 -111 -76 -233q-18 -66 -30 -135h-45q8 70 8 96q0 123 -58.5 174t-179.5 51h-63q-72 0 -108 -11t-57.5 -46t-41.5 -113l-103 -381h95 q94 0 162.5 68.5t105.5 161.5h45q-35 -104 -70 -250q-14 -51 -27.5 -105.5t-27.5 -144.5h-45q6 96 -31 162.5t-143 66.5h-76l-104 -389q-18 -78 -19 -100q0 -43 30 -56.5t107 -13.5h76q158 0 259.5 82t181.5 281h45q-25 -66 -45 -156q-27 -92 -54 -254q-139 6 -469 6 q-436 0 -657 -6z" />
<glyph horiz-adv-x="1298" d="M-88 0l8 41q74 4 111 16.5t58.5 47t41.5 112.5l219 811q16 70 17 98q0 45 -30 59.5t-108 18.5l11 41q219 -6 655 -6q301 0 432 6q-45 -111 -76 -233q-18 -66 -30 -135h-45q8 70 8 96q0 123 -58.5 174t-179.5 51h-63q-72 0 -108 -11t-57.5 -46t-41.5 -113l-103 -381h95 q94 0 162.5 68.5t105.5 161.5h45q-35 -104 -70 -250q-14 -51 -27.5 -105.5t-27.5 -144.5h-45q6 96 -31 162.5t-143 66.5h-76l-104 -389q-18 -78 -19 -100q0 -43 30 -56.5t107 -13.5h76q158 0 259.5 82t181.5 281h45q-25 -66 -45 -156q-27 -92 -54 -254q-139 6 -469 6 q-436 0 -657 -6zM676 1401q80 63 141.5 120.5t73.5 67.5q63 59 99 89t75 53t88 22q72 0 99 -55q10 -18 10 -41q0 -35 -24.5 -64.5t-67.5 -52.5q-35 -18 -87.5 -36.5t-109.5 -35.5q-154 -41 -283 -92z" />
<glyph horiz-adv-x="1298" d="M-88 0l8 41q74 4 111 16.5t58.5 47t41.5 112.5l219 811q16 70 17 98q0 45 -30 59.5t-108 18.5l11 41q219 -6 655 -6q301 0 432 6q-45 -111 -76 -233q-18 -66 -30 -135h-45q8 70 8 96q0 123 -58.5 174t-179.5 51h-63q-72 0 -108 -11t-57.5 -46t-41.5 -113l-103 -381h95 q94 0 162.5 68.5t105.5 161.5h45q-35 -104 -70 -250q-14 -51 -27.5 -105.5t-27.5 -144.5h-45q6 96 -31 162.5t-143 66.5h-76l-104 -389q-18 -78 -19 -100q0 -43 30 -56.5t107 -13.5h76q158 0 259.5 82t181.5 281h45q-25 -66 -45 -156q-27 -92 -54 -254q-139 6 -469 6 q-436 0 -657 -6zM383 1403q170 53 317.5 138t237.5 179h37q47 -115 111.5 -189.5t173.5 -127.5l-9 -29q-133 23 -222 50.5t-189 70.5q-214 -78 -447 -121z" />
<glyph horiz-adv-x="1298" d="M-88 0l8 41q74 4 111 16.5t58.5 47t41.5 112.5l219 811q16 70 17 98q0 45 -30 59.5t-108 18.5l11 41q219 -6 655 -6q301 0 432 6q-45 -111 -76 -233q-18 -66 -30 -135h-45q8 70 8 96q0 123 -58.5 174t-179.5 51h-63q-72 0 -108 -11t-57.5 -46t-41.5 -113l-103 -381h95 q94 0 162.5 68.5t105.5 161.5h45q-35 -104 -70 -250q-14 -51 -27.5 -105.5t-27.5 -144.5h-45q6 96 -31 162.5t-143 66.5h-76l-104 -389q-18 -78 -19 -100q0 -43 30 -56.5t107 -13.5h76q158 0 259.5 82t181.5 281h45q-25 -66 -45 -156q-27 -92 -54 -254q-139 6 -469 6 q-436 0 -657 -6zM461 1499q0 80 51 127t125 47q63 0 98 -38t35 -99q0 -80 -53 -126t-125 -46q-63 0 -97 37t-34 98zM952 1499q0 80 51.5 127t124.5 47q63 0 98.5 -38t35.5 -99q0 -80 -53.5 -126t-125.5 -46q-66 0 -98.5 37t-32.5 98z" />
<glyph horiz-adv-x="1298" d="M-88 0l8 41q74 4 111 16.5t58.5 47t41.5 112.5l219 811q16 70 17 98q0 45 -30 59.5t-108 18.5l11 41q219 -6 655 -6q301 0 432 6q-45 -111 -76 -233q-18 -66 -30 -135h-45q8 70 8 96q0 123 -58.5 174t-179.5 51h-63q-72 0 -108 -11t-57.5 -46t-41.5 -113l-103 -381h95 q94 0 162.5 68.5t105.5 161.5h45q-35 -104 -70 -250q-14 -51 -27.5 -105.5t-27.5 -144.5h-45q6 96 -31 162.5t-143 66.5h-76l-104 -389q-18 -78 -19 -100q0 -43 30 -56.5t107 -13.5h76q158 0 259.5 82t181.5 281h45q-25 -66 -45 -156q-27 -92 -54 -254q-139 6 -469 6 q-436 0 -657 -6zM483 1638q0 29 15 52q29 49 92 49q43 0 78 -23q29 -18 50 -42.5t62 -76.5q10 -12 57.5 -72.5t117.5 -127.5l-17 -23q-113 51 -246 96q-14 6 -62 23.5t-83 40.5q-29 16 -46.5 45t-17.5 59z" />
<glyph horiz-adv-x="1218" d="M-88 0l8 41q74 4 111 16.5t58.5 47t41.5 112.5l219 811q16 70 17 98q0 45 -30 59.5t-108 18.5l11 41q219 -6 655 -6q303 0 434 6q-39 -102 -78 -241q-25 -98 -37 -164h-45q8 74 9 102q0 256 -232 256h-63q-72 0 -108 -11t-57.5 -46t-41.5 -113l-105 -383h117 q92 0 159.5 61.5t106.5 155.5h45q-41 -121 -71 -250q-4 -20 -8.5 -35.5t-6.5 -25.5q-33 -164 -39 -201h-45q2 119 -32.5 186.5t-130.5 67.5h-105l-104 -387q-14 -51 -15 -90q0 -49 37 -65.5t139 -20.5l-8 -41q-125 6 -364 6q-223 0 -334 -6z" />
<glyph horiz-adv-x="1484" d="M61 399q0 201 112 405t319.5 337t482.5 133q117 0 199.5 -36t148.5 -97q18 -18 35 -19q20 0 39.5 29t42.5 94h45q-66 -188 -131 -471h-45q10 88 10 154q0 49 -6 84t-23 65q-45 78 -128 119t-199 41q-190 0 -320.5 -154.5t-193 -367.5t-62.5 -383q0 -319 283 -320 q90 0 152.5 39t82.5 125l37 137q16 59 16 93q0 55 -38.5 77.5t-131.5 26.5l9 41q127 -6 350 -6q193 0 287 6l-9 -41q-51 -4 -75.5 -16.5t-42 -46t-37.5 -113.5l-90 -334h-41q4 25 4 35q0 61 -45 61q-49 0 -148 -49q-92 -43 -161.5 -59.5t-155.5 -16.5q-276 0 -424 111 t-148 317z" />
<glyph horiz-adv-x="1658" d="M-84 0l10 41q72 4 108 16.5t57.5 48t41.5 111.5l215 811q16 70 17 98q0 45 -30 59.5t-108 18.5l11 41q104 -6 333 -6q199 0 324 6l-10 -41q-76 -4 -112 -16t-57.5 -47t-41.5 -113l-101 -381h535l100 381q18 66 19 98q0 45 -31 59.5t-109 18.5l11 41q111 -6 319 -6 q227 0 338 6l-10 -41q-76 -4 -112 -16t-57.5 -47t-41.5 -113l-215 -811q-18 -78 -19 -100q0 -43 30 -57.5t110 -18.5l-8 -41q-106 6 -336 6q-207 0 -322 -6l8 41q74 4 111 16.5t58.5 47t41.5 112.5l103 389h-535l-102 -389q-18 -78 -19 -100q0 -43 30 -57.5t110 -18.5 l-9 -41q-113 6 -321 6q-223 0 -334 -6z" />
<glyph d="M-84 0l10 41q72 4 108 16.5t57.5 48t41.5 111.5l215 811q16 70 17 98q0 45 -30 59.5t-108 18.5l11 41q100 -6 321 -6q205 0 336 6l-10 -41q-76 -4 -112 -16t-57.5 -47t-41.5 -113l-215 -811q-19 -77 -19 -100q0 -43 30 -57.5t110 -18.5l-9 -41q-117 6 -333 6 q-215 0 -322 -6z" />
<glyph d="M-84 0l10 41q72 4 108 16.5t57.5 48t41.5 111.5l215 811q16 70 17 98q0 45 -30 59.5t-108 18.5l11 41q100 -6 321 -6q205 0 336 6l-10 -41q-76 -4 -112 -16t-57.5 -47t-41.5 -113l-215 -811q-19 -77 -19 -100q0 -43 30 -57.5t110 -18.5l-9 -41q-117 6 -333 6 q-215 0 -322 -6zM451 1401q80 63 141.5 120.5t73.5 67.5q63 59 99 89t75 53t88 22q72 0 99 -55q10 -18 10 -41q0 -35 -24.5 -64.5t-67.5 -52.5q-35 -18 -87.5 -36.5t-109.5 -35.5q-154 -41 -283 -92z" />
<glyph d="M-84 0l10 41q72 4 108 16.5t57.5 48t41.5 111.5l215 811q16 70 17 98q0 45 -30 59.5t-108 18.5l11 41q100 -6 321 -6q205 0 336 6l-10 -41q-76 -4 -112 -16t-57.5 -47t-41.5 -113l-215 -811q-19 -77 -19 -100q0 -43 30 -57.5t110 -18.5l-9 -41q-117 6 -333 6 q-215 0 -322 -6zM158 1403q170 53 317.5 138t237.5 179h37q47 -115 111.5 -189.5t173.5 -127.5l-9 -29q-133 23 -222 50.5t-189 70.5q-214 -78 -447 -121z" />
<glyph d="M-84 0l10 41q72 4 108 16.5t57.5 48t41.5 111.5l215 811q16 70 17 98q0 45 -30 59.5t-108 18.5l11 41q100 -6 321 -6q205 0 336 6l-10 -41q-76 -4 -112 -16t-57.5 -47t-41.5 -113l-215 -811q-19 -77 -19 -100q0 -43 30 -57.5t110 -18.5l-9 -41q-117 6 -333 6 q-215 0 -322 -6zM236 1499q0 80 51 127t125 47q63 0 98 -38t35 -99q0 -80 -53 -126t-125 -46q-63 0 -97 37t-34 98zM727 1499q0 80 51.5 127t124.5 47q63 0 98.5 -38t35.5 -99q0 -80 -53.5 -126t-125.5 -46q-66 0 -98.5 37t-32.5 98z" />
<glyph d="M-84 0l10 41q72 4 108 16.5t57.5 48t41.5 111.5l215 811q16 70 17 98q0 45 -30 59.5t-108 18.5l11 41q100 -6 321 -6q205 0 336 6l-10 -41q-76 -4 -112 -16t-57.5 -47t-41.5 -113l-215 -811q-19 -77 -19 -100q0 -43 30 -57.5t110 -18.5l-9 -41q-117 6 -333 6 q-215 0 -322 -6zM258 1638q0 29 15 52q29 49 92 49q43 0 78 -23q29 -18 50 -42.5t62 -76.5q10 -12 57.5 -72.5t117.5 -127.5l-17 -23q-113 51 -246 96q-14 6 -62 23.5t-83 40.5q-29 16 -46.5 45t-17.5 59z" />
<glyph horiz-adv-x="1759" d="M31 0l10 41q72 4 106.5 16.5t55 47t45.5 112.5l162 524q-117 29 -185.5 95.5t-68.5 175.5q0 125 94 200.5t260 75.5q117 0 205 -26.5t205 -79.5q119 -51 198.5 -76t186.5 -25q215 0 424 80q78 119 129 119q16 0 26 -10q12 -9 12 -25q0 -49 -149 -106 q-113 -96 -184.5 -242.5t-137.5 -372.5h205l-6 -41h-211l-14 -53l-92 -354q-55 -207 -205 -334t-402 -127q-131 0 -208.5 38t-77.5 120q0 66 46 108.5t126 42.5q68 0 112.5 -32.5t46.5 -90.5q0 -96 -112 -145q18 -6 55 -6q80 0 128 46t82 131t83 259l72 252q20 74 49 145 h-271l7 41h282q59 133 141 233.5t177.5 177.5t247.5 181q-78 -25 -226 -84q-119 -49 -196.5 -72.5t-176.5 -23.5q-78 0 -141 12.5t-172 38.5q-90 25 -159.5 38t-147.5 13t-121 -28.5t-43 -85.5q0 -76 81 -117t212 -41q100 0 176 17.5t152 50.5l12 -35q-102 -47 -203 -64 l-160 -518q-20 -72 -20 -100q0 -43 31.5 -57.5t109.5 -18.5l-8 -41q-117 6 -334 6q-213 0 -321 -6z" />
<glyph horiz-adv-x="1390" d="M2 -227q0 63 47 107t127 44q70 0 114 -32.5t44 -90.5q0 -47 -30 -85t-83 -60q18 -6 64 -6q78 0 126 41t78.5 111.5t71.5 207.5l111 369q16 55 37 104h-260l6 41h270q61 137 147 236.5t179.5 168t275.5 187.5q-70 -25 -221 -90q-102 -47 -165.5 -68.5t-133.5 -21.5 q-55 0 -104.5 14.5t-118.5 40.5q-59 25 -100.5 36t-84.5 11q-57 0 -91 -29.5t-32 -86.5q0 -137 230 -158l-4 -39q-162 12 -259.5 87t-97.5 208q0 123 75 195.5t216 72.5q86 0 151.5 -25.5t151.5 -76.5t152.5 -78t157.5 -27q78 0 161.5 20.5t159.5 59.5q80 119 129 119 q16 0 29 -12q10 -9 10 -23q0 -45 -149 -106q-129 -104 -202 -242.5t-145 -372.5h205l-6 -41h-211l-4 -12l-143 -481q-49 -166 -196.5 -270.5t-360.5 -104.5q-154 0 -238 37t-86 121z" />
<glyph horiz-adv-x="1480" d="M-84 0l10 41q72 4 108 16.5t57.5 48t41.5 111.5l215 811q16 70 17 98q0 45 -30 59.5t-108 18.5l11 41q104 -6 333 -6q199 0 324 6l-10 -41q-76 -4 -112 -16t-57.5 -47t-41.5 -113l-215 -811q-19 -77 -19 -100q0 -43 30 -57.5t110 -18.5l-9 -41q-113 6 -321 6 q-223 0 -334 -6zM610 647q0 39 56 39q39 0 112 -20q82 8 132.5 55t78 110.5t58.5 163.5q23 78 43 127t49 80q39 41 76.5 56.5t87.5 15.5q88 0 139 -46t51 -126q0 -82 -50 -141.5t-130 -59.5q-68 0 -105 35t-37 94q0 61 39 120.5t99 80.5q-8 4 -27 4q-37 0 -61.5 -13.5 t-51.5 -43.5q-23 -29 -40 -73t-37 -112q-31 -98 -58.5 -162.5t-77 -115.5t-125.5 -66q141 -20 213 -70.5t72 -160.5q0 -29 -2 -45l-16 -180q-2 -35 12 -53.5t43 -18.5q39 0 65.5 28.5t49.5 94.5l35 104h40l-53 -158q-39 -117 -110.5 -168t-175.5 -51q-106 0 -165 50.5 t-59 154.5q0 31 6 68l29 188q6 37 6 68q0 94 -49 129q-68 -20 -106 -21q-55 0 -56 39z" />
<glyph horiz-adv-x="1249" d="M-90 0l10 41q74 4 111 16.5t58.5 47t41.5 112.5l219 811q18 78 19 100q0 43 -30 57.5t-108 18.5l11 41q104 -6 336 -6q195 0 319 6l-10 -41q-76 -4 -112 -16t-57.5 -47t-41.5 -113l-221 -811q-16 -70 -17 -100q0 -43 27 -56.5t96 -13.5h86q135 0 257 92t200 291h47 q-33 -92 -53 -176q-27 -92 -54 -254q-139 6 -471 6q-442 0 -663 -6z" />
<glyph horiz-adv-x="1812" d="M-88 0l8 41q100 4 143 46t72 144l215 809q16 70 17 99q0 45 -30 59t-108 19l11 40q63 -6 182 -6q141 0 246 6l155 -952l662 946h98q199 0 330 6l-10 -40q-76 -4 -112 -16.5t-57.5 -47.5t-41.5 -113l-217 -823q-16 -70 -17 -98q0 -45 30 -59.5t107 -18.5l-8 -41 q-129 6 -327 6q-223 0 -328 -6l8 41q76 4 111.5 16.5t57 47t42.5 112.5l209 772l-701 -999q-18 2 -53 2t-53 -2l-170 1009l-203 -768q-14 -57 -14 -86q0 -51 40 -76.5t138 -27.5l-10 -41q-74 6 -230 6q-125 0 -192 -6z" />
<glyph horiz-adv-x="1789" d="M-160 23q0 80 52.5 133t132.5 53q68 0 104.5 -34t36.5 -89q0 -68 -43 -119t-111 -71q8 -8 33 -9q100 2 174 111q78 115 164 396.5t184 713.5q2 41 -11 60.5t-46 26.5t-100 9l10 41q63 -6 182 -6q129 0 227 6l406 -811q172 604 301 774q98 131 221 131q90 0 141.5 -49 t51.5 -125q0 -80 -53.5 -133t-133.5 -53q-66 0 -102.5 34t-36.5 89q0 68 44 120t110 70q-10 8 -33 8q-55 0 -95 -27.5t-77 -80.5q-90 -129 -191.5 -422t-220.5 -780h-45l-530 1009q-203 -862 -334 -1022q-49 -61 -99.5 -95t-119.5 -34q-92 0 -142.5 49.5t-50.5 125.5z" />
<glyph horiz-adv-x="1789" d="M-160 23q0 80 52.5 133t132.5 53q68 0 104.5 -34t36.5 -89q0 -68 -43 -119t-111 -71q8 -8 33 -9q100 2 174 111q78 115 164 396.5t184 713.5q2 41 -11 60.5t-46 26.5t-100 9l10 41q63 -6 182 -6q129 0 227 6l406 -811q172 604 301 774q98 131 221 131q90 0 141.5 -49 t51.5 -125q0 -80 -53.5 -133t-133.5 -53q-66 0 -102.5 34t-36.5 89q0 68 44 120t110 70q-10 8 -33 8q-55 0 -95 -27.5t-77 -80.5q-90 -129 -191.5 -422t-220.5 -780h-45l-530 1009q-203 -862 -334 -1022q-49 -61 -99.5 -95t-119.5 -34q-92 0 -142.5 49.5t-50.5 125.5z M745 1409q55 143 146.5 214t193.5 71q72 0 120 -21.5t105 -60.5q49 -35 83 -51.5t81 -16.5q45 0 83 27.5t75 91.5l37 -10q-55 -143 -147.5 -214t-192.5 -71q-74 0 -121 21.5t-107 62.5q-49 33 -81.5 49.5t-79.5 16.5q-45 0 -83 -28t-75 -91z" />
<glyph horiz-adv-x="1595" d="M70 465q0 186 113.5 374.5t317.5 311.5t457 123q264 0 421 -125t157 -369q0 -186 -113.5 -374.5t-317.5 -311.5t-458 -123q-264 0 -420.5 125t-156.5 369zM424 436q0 -221 64.5 -324.5t177.5 -103.5q145 0 263 117t185.5 302t67.5 382q0 221 -64.5 324.5t-177.5 103.5 q-145 0 -263 -116.5t-185.5 -302t-67.5 -382.5z" />
<glyph horiz-adv-x="1595" d="M70 465q0 186 113.5 374.5t317.5 311.5t457 123q264 0 421 -125t157 -369q0 -186 -113.5 -374.5t-317.5 -311.5t-458 -123q-264 0 -420.5 125t-156.5 369zM424 436q0 -221 64.5 -324.5t177.5 -103.5q145 0 263 117t185.5 302t67.5 382q0 221 -64.5 324.5t-177.5 103.5 q-145 0 -263 -116.5t-185.5 -302t-67.5 -382.5zM860 1401q80 63 141.5 120.5t73.5 67.5q63 59 99 89t75 53t88 22q72 0 99 -55q10 -18 10 -41q0 -35 -24.5 -64.5t-67.5 -52.5q-35 -18 -87.5 -36.5t-109.5 -35.5q-154 -41 -283 -92z" />
<glyph horiz-adv-x="1595" d="M70 465q0 186 113.5 374.5t317.5 311.5t457 123q264 0 421 -125t157 -369q0 -186 -113.5 -374.5t-317.5 -311.5t-458 -123q-264 0 -420.5 125t-156.5 369zM424 436q0 -221 64.5 -324.5t177.5 -103.5q145 0 263 117t185.5 302t67.5 382q0 221 -64.5 324.5t-177.5 103.5 q-145 0 -263 -116.5t-185.5 -302t-67.5 -382.5zM567 1403q170 53 317.5 138t237.5 179h37q47 -115 111.5 -189.5t173.5 -127.5l-9 -29q-133 23 -222 50.5t-189 70.5q-214 -78 -447 -121z" />
<glyph horiz-adv-x="1595" d="M70 465q0 186 113.5 374.5t317.5 311.5t457 123q264 0 421 -125t157 -369q0 -186 -113.5 -374.5t-317.5 -311.5t-458 -123q-264 0 -420.5 125t-156.5 369zM424 436q0 -221 64.5 -324.5t177.5 -103.5q145 0 263 117t185.5 302t67.5 382q0 221 -64.5 324.5t-177.5 103.5 q-145 0 -263 -116.5t-185.5 -302t-67.5 -382.5zM645 1499q0 80 51 127t125 47q63 0 98 -38t35 -99q0 -80 -53 -126t-125 -46q-63 0 -97 37t-34 98zM1136 1499q0 80 51.5 127t124.5 47q63 0 98.5 -38t35.5 -99q0 -80 -53.5 -126t-125.5 -46q-66 0 -98.5 37t-32.5 98z" />
<glyph horiz-adv-x="1595" d="M70 465q0 186 113.5 374.5t317.5 311.5t457 123q264 0 421 -125t157 -369q0 -186 -113.5 -374.5t-317.5 -311.5t-458 -123q-264 0 -420.5 125t-156.5 369zM424 436q0 -221 64.5 -324.5t177.5 -103.5q145 0 263 117t185.5 302t67.5 382q0 221 -64.5 324.5t-177.5 103.5 q-145 0 -263 -116.5t-185.5 -302t-67.5 -382.5zM667 1638q0 29 15 52q29 49 92 49q43 0 78 -23q29 -18 50 -42.5t62 -76.5q10 -12 57.5 -72.5t117.5 -127.5l-17 -23q-113 51 -246 96q-14 6 -62 23.5t-83 40.5q-29 16 -46.5 45t-17.5 59z" />
<glyph horiz-adv-x="1595" d="M10 -150l232 234q-172 129 -172 381q0 186 113.5 374.5t317.5 311.5t457 123q197 0 332 -68l211 219l31 -26l-203 -215q98 -60 152.5 -162t54.5 -242q0 -186 -113.5 -374.5t-317.5 -311.5t-458 -123q-221 0 -366 86l-236 -235zM424 436q0 -104 16 -190l709 813 q-55 178 -209 178q-145 0 -263 -116.5t-185.5 -302t-67.5 -382.5zM453 195q57 -186 213 -187q145 0 263 117t185.5 302t67.5 382q0 119 -19 201z" />
<glyph horiz-adv-x="1595" d="M70 465q0 186 113.5 374.5t317.5 311.5t457 123q264 0 421 -125t157 -369q0 -186 -113.5 -374.5t-317.5 -311.5t-458 -123q-264 0 -420.5 125t-156.5 369zM424 436q0 -221 64.5 -324.5t177.5 -103.5q145 0 263 117t185.5 302t67.5 382q0 221 -64.5 324.5t-177.5 103.5 q-145 0 -263 -116.5t-185.5 -302t-67.5 -382.5zM612 1409q55 143 146.5 214t193.5 71q72 0 120 -21.5t105 -60.5q49 -35 83 -51.5t81 -16.5q45 0 83 27.5t75 91.5l37 -10q-55 -143 -147.5 -214t-192.5 -71q-74 0 -121 21.5t-107 62.5q-49 33 -81.5 49.5t-79.5 16.5 q-45 0 -83 -28t-75 -91z" />
<glyph horiz-adv-x="2035" d="M68 440q0 195 110.5 388.5t310 319.5t449.5 126q90 0 186 -31q199 -4 531 -4q284 0 407 6q-51 -135 -77 -241q-12 -45 -27 -127h-45q14 80 14 145q0 96 -43 136t-137 40h-113q-72 0 -107.5 -11t-56 -46t-40.5 -113l-103 -381h137q57 0 96 31t63 76t52 123h45 q-33 -100 -55 -195l-14 -55q-23 -84 -54 -250h-45q0 33 7 63q4 45 4 64q0 45 -22.5 71.5t-84.5 30.5h-139l-105 -389q-18 -78 -18 -100q0 -43 29.5 -56.5t105.5 -13.5h133q98 0 163 34t111 111.5t93 217.5h45q-8 -18 -29 -95q-10 -41 -14 -53q-35 -121 -53 -262 q-133 6 -447 6q-322 0 -520 -2q-92 -33 -201 -33q-252 0 -397 120t-145 349zM416 406q0 -201 57 -299.5t156 -98.5q106 0 166.5 47t91.5 162l217 811q10 33 10 74q0 135 -190 135q-139 0 -256 -124t-184.5 -317.5t-67.5 -389.5z" />
<glyph horiz-adv-x="1302" d="M-86 0l8 41q74 4 111 16.5t58.5 47t41.5 112.5l215 811q2 12 9.5 44t7.5 50q0 41 -31 60.5t-107 21.5l11 41q106 -6 311 -6l180 2q43 2 125 2q250 0 369.5 -71.5t119.5 -200.5q0 -131 -102 -237.5t-287.5 -169t-423.5 -64.5l-75 -283q-16 -61 -17 -92q0 -41 31 -60.5 t109 -23.5l-9 -41q-123 6 -319 6q-225 0 -336 -6zM541 541q240 2 350 141t110 346q0 94 -38.5 135t-128.5 41q-72 0 -103 -35.5t-59 -140.5z" />
<glyph horiz-adv-x="1333" d="M-84 0l10 41q72 4 108 16.5t57.5 48t41.5 111.5l215 811q16 70 17 98q0 45 -30 59.5t-108 18.5l11 41q100 -6 321 -6q205 0 336 6l-10 -41q-76 -4 -112 -16t-57.5 -47t-41.5 -113l-8 -31q47 2 145 2q250 0 369.5 -71.5t119.5 -200.5q0 -133 -104 -240.5t-291.5 -169 t-429.5 -61.5h-6l-10 -39q-18 -78 -19 -100q0 -43 30 -57.5t110 -18.5l-9 -41q-117 6 -333 6q-215 0 -322 -6zM479 297h17q162 0 266 69.5t150 175t46 220.5q0 104 -55 151.5t-162 47.5h-86z" />
<glyph horiz-adv-x="1693" d="M-80 -6q0 100 80 162.5t203 62.5q109 0 210 -49t236 -143q270 133 444.5 343t174.5 457q0 195 -77 302.5t-218 107.5q-135 0 -243.5 -85t-171 -224.5t-62.5 -290.5q0 -244 200 -244q82 0 156 36t123 97.5t59 132.5l2 31q0 16 -4 37q-20 -61 -71.5 -92t-106.5 -31 q-68 0 -107.5 43t-39.5 109q0 80 56 134t136 54q86 0 136 -60.5t50 -160.5q0 -117 -66.5 -205t-180 -136t-252.5 -48q-199 0 -316.5 90t-117.5 250q0 172 123.5 309t322.5 214t412 77q174 0 312 -51.5t216 -145.5t78 -219q0 -147 -131 -309t-340 -308.5t-440 -250.5 q139 -96 248.5 -148.5t230.5 -52.5q106 0 171.5 28.5t108.5 80.5q-61 -49 -135 -50q-70 0 -114 41t-44 109q0 74 52.5 123t132.5 49q74 0 121 -45t47 -125q0 -100 -76 -188t-205 -142.5t-282 -54.5q-174 0 -300 69.5t-260 192.5q-158 -45 -266 -45q-100 0 -157.5 41 t-57.5 121zM-37 -18q0 -53 50 -84t128 -31q103 0 230 41q-98 88 -158.5 128t-130.5 40q-53 0 -86 -24.5t-33 -69.5z" />
<glyph horiz-adv-x="1415" d="M-86 0l8 41q74 4 111 16.5t58.5 47t41.5 112.5l217 811q16 74 17 92q0 41 -31 60.5t-107 23.5l11 41q104 -6 311 -6l209 2q51 2 135 2q436 0 436 -250q0 -158 -143.5 -261t-394.5 -134l10 -2q170 -25 242.5 -84t64.5 -188l-6 -109q-2 -14 -2 -41q0 -90 49 -90 q63 0 115 135l10 29h47l-8 -27q-39 -127 -117 -188.5t-194 -61.5q-121 0 -175.5 59.5t-50.5 155.5l10 146q2 16 3 47q0 102 -46.5 150.5t-166.5 56.5h-23l-98 -369q-14 -51 -15 -92q0 -41 30 -60.5t106 -23.5l-9 -41q-123 6 -321 6q-225 0 -334 -6zM567 627h35 q195 0 298.5 103.5t103.5 289.5q0 92 -42 138t-133 46q-65 0 -97 -37t-58 -139z" />
<glyph horiz-adv-x="1243" d="M-57 -14q33 78 64.5 187.5t74.5 303.5h41q-18 -96 -19 -151q0 -145 90.5 -227.5t268.5 -82.5q113 0 183.5 48.5t70.5 148.5q0 84 -54.5 155.5t-177.5 166.5q-137 106 -199.5 188t-62.5 190q0 119 76 200t199 121t262 40q102 0 168.5 -21.5t124.5 -56.5q68 -45 90 -45 q18 0 31.5 24.5t35.5 84.5h41q-74 -187 -121 -418h-40q12 59 12 114q0 119 -84 198t-225 79q-115 0 -182.5 -51.5t-67.5 -137.5q0 -84 54 -150.5t202 -182.5q113 -88 166 -137.5t86.5 -108.5t33.5 -133q0 -121 -85 -202t-220 -120t-288 -39q-113 0 -187 22.5t-155 67.5 q-53 35 -82 35q-25 0 -40.5 -23.5t-43.5 -86.5h-41z" />
<glyph horiz-adv-x="1390" d="M-100 -385l295 1075q88 326 266 455t436 129q195 0 296 -58.5t101 -171.5q0 -135 -135 -226t-356 -134q240 -18 347 -107.5t107 -211.5q0 -111 -77.5 -201t-208.5 -141.5t-281 -51.5q-121 0 -184.5 36t-63.5 118q0 74 47.5 132t124.5 58q57 0 92 -33.5t35 -88.5 q0 -61 -44 -112.5t-109 -68.5q31 -8 76 -8q78 0 140 49t98 131t36 178q0 84 -24.5 154t-64.5 110t-87 40q-31 -10 -58.5 -17.5t-46.5 -7.5q-20 0 -31.5 7t-11.5 18q0 16 16.5 28.5t43.5 12.5q47 0 100 -19q90 51 139.5 163t49.5 243q0 78 -24 113.5t-85 35.5 q-82 0 -151.5 -65.5t-110.5 -216.5l-365 -1315q-175 -2 -327 -31z" />
<glyph horiz-adv-x="1372" d="M131 991q0 57 32 111.5t99 93.5q100 57 270 57q115 0 353 -28q86 -10 174 -19.5t158 -9.5q135 0 208 31q-35 27 -58.5 68.5t-23.5 93.5q0 70 43.5 116.5t118.5 46.5q72 0 115 -42t43 -101q0 -109 -117 -186q-119 -68 -344 -68q-33 0 -110 4l-265 -921q-18 -61 -18 -101 q0 -51 39 -71.5t133 -24.5l-8 -41q-131 6 -379 6q-244 0 -361 -6l9 41q88 4 135 20.5t73.5 56.5t51.5 120l274 960q-156 18 -244 19q-152 0 -221 -48q55 -16 91 -60t36 -105q0 -72 -45 -122.5t-114 -50.5q-68 0 -108 47.5t-40 112.5z" />
<glyph horiz-adv-x="1427" d="M143 287q0 102 54 303l116 438q16 70 17 98q0 45 -30 59.5t-107 18.5l12 41q104 -6 338 -6q193 0 317 6l-12 -41q-76 -4 -112 -16t-57.5 -47t-41.5 -113l-127 -473q-49 -184 -49 -301q0 -109 45 -160t139 -51q215 0 339 139.5t190 390.5l90 336q33 121 32 174 q0 59 -34.5 85t-120.5 36l12 41q76 -6 219 -6q121 0 193 6l-13 -41q-70 -10 -110.5 -34.5t-69.5 -79t-55 -156.5l-90 -338q-74 -282 -201 -434q-76 -90 -190.5 -140.5t-260.5 -50.5q-260 0 -358 111q-39 43 -56.5 92t-17.5 113z" />
<glyph horiz-adv-x="1427" d="M143 287q0 102 54 303l116 438q16 70 17 98q0 45 -30 59.5t-107 18.5l12 41q104 -6 338 -6q193 0 317 6l-12 -41q-76 -4 -112 -16t-57.5 -47t-41.5 -113l-127 -473q-49 -184 -49 -301q0 -109 45 -160t139 -51q215 0 339 139.5t190 390.5l90 336q33 121 32 174 q0 59 -34.5 85t-120.5 36l12 41q76 -6 219 -6q121 0 193 6l-13 -41q-70 -10 -110.5 -34.5t-69.5 -79t-55 -156.5l-90 -338q-74 -282 -201 -434q-76 -90 -190.5 -140.5t-260.5 -50.5q-260 0 -358 111q-39 43 -56.5 92t-17.5 113zM788 1401q80 63 141.5 120.5t73.5 67.5 q63 59 99 89t75 53t88 22q72 0 99 -55q10 -18 10 -41q0 -35 -24.5 -64.5t-67.5 -52.5q-35 -18 -87.5 -36.5t-109.5 -35.5q-154 -41 -283 -92z" />
<glyph horiz-adv-x="1427" d="M143 287q0 102 54 303l116 438q16 70 17 98q0 45 -30 59.5t-107 18.5l12 41q104 -6 338 -6q193 0 317 6l-12 -41q-76 -4 -112 -16t-57.5 -47t-41.5 -113l-127 -473q-49 -184 -49 -301q0 -109 45 -160t139 -51q215 0 339 139.5t190 390.5l90 336q33 121 32 174 q0 59 -34.5 85t-120.5 36l12 41q76 -6 219 -6q121 0 193 6l-13 -41q-70 -10 -110.5 -34.5t-69.5 -79t-55 -156.5l-90 -338q-74 -282 -201 -434q-76 -90 -190.5 -140.5t-260.5 -50.5q-260 0 -358 111q-39 43 -56.5 92t-17.5 113zM496 1403q170 53 317.5 138t237.5 179h37 q47 -115 111.5 -189.5t173.5 -127.5l-9 -29q-133 23 -222 50.5t-189 70.5q-214 -78 -447 -121z" />
<glyph horiz-adv-x="1427" d="M143 287q0 102 54 303l116 438q16 70 17 98q0 45 -30 59.5t-107 18.5l12 41q104 -6 338 -6q193 0 317 6l-12 -41q-76 -4 -112 -16t-57.5 -47t-41.5 -113l-127 -473q-49 -184 -49 -301q0 -109 45 -160t139 -51q215 0 339 139.5t190 390.5l90 336q33 121 32 174 q0 59 -34.5 85t-120.5 36l12 41q76 -6 219 -6q121 0 193 6l-13 -41q-70 -10 -110.5 -34.5t-69.5 -79t-55 -156.5l-90 -338q-74 -282 -201 -434q-76 -90 -190.5 -140.5t-260.5 -50.5q-260 0 -358 111q-39 43 -56.5 92t-17.5 113zM574 1499q0 80 51 127t125 47q63 0 98 -38 t35 -99q0 -80 -53 -126t-125 -46q-63 0 -97 37t-34 98zM1065 1499q0 80 51.5 127t124.5 47q63 0 98.5 -38t35.5 -99q0 -80 -53.5 -126t-125.5 -46q-66 0 -98.5 37t-32.5 98z" />
<glyph horiz-adv-x="1427" d="M143 287q0 102 54 303l116 438q16 70 17 98q0 45 -30 59.5t-107 18.5l12 41q104 -6 338 -6q193 0 317 6l-12 -41q-76 -4 -112 -16t-57.5 -47t-41.5 -113l-127 -473q-49 -184 -49 -301q0 -109 45 -160t139 -51q215 0 339 139.5t190 390.5l90 336q33 121 32 174 q0 59 -34.5 85t-120.5 36l12 41q76 -6 219 -6q121 0 193 6l-13 -41q-70 -10 -110.5 -34.5t-69.5 -79t-55 -156.5l-90 -338q-74 -282 -201 -434q-76 -90 -190.5 -140.5t-260.5 -50.5q-260 0 -358 111q-39 43 -56.5 92t-17.5 113zM595 1638q0 29 15 52q29 49 92 49 q43 0 78 -23q29 -18 50 -42.5t62 -76.5q10 -12 57.5 -72.5t117.5 -127.5l-17 -23q-113 51 -246 96q-14 6 -62 23.5t-83 40.5q-29 16 -46.5 45t-17.5 59z" />
<glyph horiz-adv-x="1337" d="M152 1204l10 41q100 -6 295 -6q199 0 307 6l-10 -41q-92 -4 -129 -28.5t-37 -96.5q0 -29 2 -47l90 -743l532 663q78 96 78 154q0 41 -41 64.5t-125 33.5l9 41q131 -6 266 -6q74 0 135 6l-10 -41q-57 -27 -105.5 -72t-134.5 -155l-786 -987l-52 2l-53 -2l-135 1083 q-8 68 -40 98.5t-66 32.5z" />
<glyph horiz-adv-x="1900" d="M133 1204l8 41q117 -6 262 -6q182 0 273 6l-8 -41q-51 -6 -73 -30.5t-22 -73.5q0 -27 7 -68l100 -684l297 502l-37 223q-18 127 -80 131l8 41q102 -6 244 -6q219 0 324 6l-9 -41q-90 -4 -125.5 -24.5t-35.5 -81.5q0 -25 6 -66l110 -702l373 614q66 106 66 162 q0 43 -38 65.5t-120 32.5l10 41q133 -6 248 -6q95 0 152 6l-9 -41q-68 -27 -120 -73t-117 -154l-604 -987q-16 2 -54 2q-35 0 -53 -2l-129 796l-475 -796q-16 2 -53 2q-35 0 -53 -2l-173 1083q-10 66 -37.5 98.5t-62.5 32.5z" />
<glyph horiz-adv-x="1482" d="M-72 158q0 86 51.5 142t131.5 56q61 0 96 -35.5t35 -97.5q0 -70 -42 -126t-112 -79q10 -8 35 -8q70 0 135 47q78 51 175 168t188 281l-48 422q-10 94 -40.5 145t-96.5 51q-51 0 -84 -31.5t-55 -95.5l-35 -100h-41l47 141q41 121 114 178.5t179 57.5q158 0 229.5 -87 t88.5 -233l16 -149q66 129 140.5 235.5t140.5 161.5q86 72 190 72q86 0 134 -53.5t48 -133.5q0 -86 -51 -142t-131 -56q-63 0 -98 37t-35 100q2 68 45 123t111 78q-10 8 -35 8q-70 0 -133 -47q-68 -49 -151 -167t-167 -286l47 -418q12 -96 43 -146t94 -50q53 0 86 30.5 t54 92.5l35 104h41l-54 -158q-74 -219 -276 -219q-164 0 -236.5 85t-91.5 235l-16 147q-74 -127 -161 -232.5t-167 -164.5q-90 -70 -192 -70q-84 0 -132.5 53.5t-48.5 133.5z" />
<glyph horiz-adv-x="1400" d="M135 897l58 170q35 102 99 154.5t169 52.5q104 0 167.5 -50t100.5 -152.5t68 -285.5l16 -94q57 141 130 258t140 193q51 59 115 95t129 36q82 0 129 -54.5t47 -132.5q0 -86 -51 -142t-131 -56q-63 0 -97 37t-34 100q0 68 43 123t110 78q-8 6 -34 6q-72 0 -146 -68 q-78 -70 -168 -207t-180 -362l-96 -379q-18 -78 -19 -100q0 -43 30 -57.5t110 -18.5l-11 -41q-113 6 -327 6q-221 0 -330 -6l10 41q76 4 113 17.5t58.5 48t39.5 110.5l88 338q-33 260 -73.5 402.5t-106.5 142.5q-27 0 -45 -19.5t-33 -60.5l-43 -123h-45z" />
<glyph horiz-adv-x="1400" d="M135 897l58 170q35 102 99 154.5t169 52.5q104 0 167.5 -50t100.5 -152.5t68 -285.5l16 -94q57 141 130 258t140 193q51 59 115 95t129 36q82 0 129 -54.5t47 -132.5q0 -86 -51 -142t-131 -56q-63 0 -97 37t-34 100q0 68 43 123t110 78q-8 6 -34 6q-72 0 -146 -68 q-78 -70 -168 -207t-180 -362l-96 -379q-18 -78 -19 -100q0 -43 30 -57.5t110 -18.5l-11 -41q-113 6 -327 6q-221 0 -330 -6l10 41q76 4 113 17.5t58.5 48t39.5 110.5l88 338q-33 260 -73.5 402.5t-106.5 142.5q-27 0 -45 -19.5t-33 -60.5l-43 -123h-45zM739 1401 q80 63 141.5 120.5t73.5 67.5q63 59 99 89t75 53t88 22q72 0 99 -55q10 -18 10 -41q0 -35 -24.5 -64.5t-67.5 -52.5q-35 -18 -87.5 -36.5t-109.5 -35.5q-154 -41 -283 -92z" />
<glyph horiz-adv-x="1400" d="M135 897l58 170q35 102 99 154.5t169 52.5q104 0 167.5 -50t100.5 -152.5t68 -285.5l16 -94q57 141 130 258t140 193q51 59 115 95t129 36q82 0 129 -54.5t47 -132.5q0 -86 -51 -142t-131 -56q-63 0 -97 37t-34 100q0 68 43 123t110 78q-8 6 -34 6q-72 0 -146 -68 q-78 -70 -168 -207t-180 -362l-96 -379q-18 -78 -19 -100q0 -43 30 -57.5t110 -18.5l-11 -41q-113 6 -327 6q-221 0 -330 -6l10 41q76 4 113 17.5t58.5 48t39.5 110.5l88 338q-33 260 -73.5 402.5t-106.5 142.5q-27 0 -45 -19.5t-33 -60.5l-43 -123h-45zM525 1499 q0 80 51 127t125 47q63 0 98 -38t35 -99q0 -80 -53 -126t-125 -46q-63 0 -97 37t-34 98zM1016 1499q0 80 51.5 127t124.5 47q63 0 98.5 -38t35.5 -99q0 -80 -53.5 -126t-125.5 -46q-66 0 -98.5 37t-32.5 98z" />
<glyph horiz-adv-x="1349" d="M-88 16q0 31 47 67t107 60l565 463h-289l14 41h326l561 459q-14 -8 -131 -72q-106 -59 -170.5 -85.5t-138.5 -26.5q-68 0 -120 13t-118 38q-55 20 -89 29.5t-73 9.5q-45 0 -68.5 -21.5t-23.5 -60.5q0 -43 36 -73t114 -46l-10 -39q-113 18 -190 74.5t-77 163.5 q0 117 81 190.5t216 73.5q80 0 139.5 -23.5t141.5 -68.5q84 -47 141.5 -68.5t132.5 -21.5q55 0 101.5 13t115.5 42q33 45 74 82t76 37q18 0 33 -13q12 -12 12 -26q0 -31 -47 -67t-109 -58l-557 -455h279l-17 -41h-311l-571 -467q14 8 131 72q104 59 169.5 86t141.5 27 q68 0 120 -13.5t118 -38.5q55 -20 89 -29.5t72 -9.5q43 0 68 21.5t25 60.5q0 43 -36 73t-114 46l8 39q113 -18 190 -74.5t77 -162.5q0 -117 -81 -191t-216 -74q-80 0 -139.5 23.5t-141.5 68.5q-84 47 -141.5 69t-132.5 22q-55 0 -101.5 -13.5t-116.5 -42.5 q-25 -41 -69.5 -79.5t-79.5 -38.5q-20 0 -35 14q-8 8 -8 22z" />
<glyph horiz-adv-x="1265" d="M88 401q0 244 112.5 497t299 417t395.5 164q162 0 255 -106.5t93 -323.5q0 -246 -113.5 -498t-302 -416t-397.5 -164q-160 0 -251 106.5t-91 323.5zM385 260q0 -131 21.5 -191.5t66.5 -60.5q100 0 212 171t186.5 445.5t74.5 565.5q0 131 -22.5 191.5t-67.5 60.5 q-100 0 -212 -171t-185.5 -445.5t-73.5 -565.5z" />
<glyph horiz-adv-x="794" d="M137 0l340 1268q-141 -59 -299 -105l6 43q186 53 349 128t255 145h41l-399 -1479h-293z" />
<glyph horiz-adv-x="1198" d="M-63 0l10 43q336 274 533.5 473t285.5 354.5t88 296.5q0 106 -49 172t-150 66q-86 0 -176 -47t-148.5 -121t-58.5 -152q0 -102 119 -102q61 0 114.5 25.5t115.5 81.5l24 -29q-61 -61 -132 -90t-134 -29q-66 0 -111 32t-45 109q0 102 82 194.5t213 147t268 54.5 q156 0 260.5 -73t104.5 -212q0 -117 -76 -226.5t-186.5 -203.5t-296.5 -234q-27 -20 -138.5 -104t-197.5 -162q20 2 61 2q92 0 256 -33q16 -2 86 -14t125 -12q90 0 141.5 34.5t51.5 102.5q0 121 -164 188l21 29q102 -39 157.5 -105.5t55.5 -158.5q0 -80 -39 -150.5 t-122 -114.5t-208 -44q-80 0 -217 26q-94 18 -157.5 26.5t-141.5 8.5q-63 0 -110.5 -10t-114.5 -39z" />
<glyph horiz-adv-x="1181" d="M-8 211q0 72 52 128t140 56q63 0 101.5 -30.5t38.5 -88.5q0 -70 -50.5 -129t-126.5 -73q25 -25 77 -42.5t116 -17.5q109 0 202 54.5t150.5 157t57.5 239.5q0 131 -51.5 210t-141.5 89q-66 -45 -100 -45q-35 0 -35 29t38 36t81 4q127 55 212 170t85 256q0 186 -158 187 q-84 0 -171 -46t-145.5 -119t-58.5 -151q0 -102 119 -102q61 0 115.5 25.5t113.5 81.5l25 -29q-61 -61 -132 -90t-134 -29q-66 0 -111 32t-45 109q0 104 82 195.5t215 146t281 54.5q141 0 227 -54.5t86 -158.5q0 -106 -87 -208t-217 -174.5t-249 -95.5q207 -12 335 -93 t128 -238q0 -137 -97.5 -249t-253 -174.5t-323.5 -62.5q-92 0 -170 20.5t-131 59.5q-90 70 -90 160z" />
<glyph horiz-adv-x="1153" d="M-47 354l1094 1125h53l-252 -944h225l-57 -224h-228l-83 -311h-250l84 311h-582zM184 535h414l156 585z" />
<glyph horiz-adv-x="1128" d="M-6 225q0 74 54 135.5t140 61.5q63 0 101.5 -34t38.5 -97q0 -76 -51.5 -138.5t-126.5 -78.5q16 -25 72.5 -46.5t115.5 -21.5q121 0 208 91t131 225.5t44 261.5q0 240 -193 239q-72 0 -145.5 -37.5t-175.5 -134.5h-37l276 797q57 2 109.5 -4t134.5 -21q61 -10 130 -18 t132 -8q80 0 132.5 20.5t91.5 71.5l24 -14q-61 -158 -152.5 -241t-203.5 -83q-41 0 -85 9t-118 28q-84 20 -134 29.5t-95 5.5l-174 -506q178 184 434 184q176 0 266 -76.5t90 -216.5q0 -154 -91 -302t-248 -241.5t-343 -93.5q-160 0 -262 82q-90 76 -90 172z" />
<glyph horiz-adv-x="1255" d="M74 365q0 240 122.5 501.5t326.5 437t435 175.5q129 0 226.5 -54.5t97.5 -154.5q0 -78 -56.5 -136.5t-150.5 -58.5q-66 0 -103.5 31t-37.5 88q0 70 51 129t129 82q-16 14 -52 24.5t-73 10.5q-117 0 -230.5 -105.5t-202.5 -283t-138 -383.5q76 133 181.5 191.5t225.5 58.5 q145 0 232.5 -77t87.5 -231q0 -158 -90 -305t-249 -240.5t-355 -93.5q-377 0 -377 394zM369 266q0 -141 27.5 -197.5t95.5 -56.5q104 0 185 112t126 267.5t45 272.5q0 98 -36 145t-95 47q-78 0 -165 -72.5t-159 -236.5q-25 -141 -24 -281z" />
<glyph horiz-adv-x="1144" d="M193 1174q0 127 81.5 218t270.5 91q72 0 130 -12.5t150 -38.5q76 -25 138.5 -38.5t132.5 -13.5q168 0 219 90h65q-49 -63 -159 -194q-156 -186 -255.5 -320.5t-189.5 -305.5t-137 -363q-4 -20 -23 -107q-2 -10 -14 -67q-39 -141 -180 -142q-70 0 -97.5 35t-23.5 103 q10 137 114.5 304t242 322.5t341.5 366.5q195 203 242 258q-203 -180 -450 -180q-53 0 -105.5 8t-97.5 18q-102 20 -154 21q-78 0 -120 -33t-42 -92q0 -82 76 -138.5t203 -80.5l-10 -35q-348 66 -348 326z" />
<glyph horiz-adv-x="1177" d="M-6 240q0 156 149.5 282.5t368.5 214.5q-98 94 -147.5 168t-49.5 176q0 117 76 207t200 140.5t265 50.5q152 0 246 -56.5t94 -162.5q0 -224 -434 -429l31 -28q74 -66 119.5 -116t76.5 -114.5t31 -144.5q0 -131 -86 -235.5t-229.5 -163t-307.5 -58.5q-178 0 -290.5 66.5 t-112.5 202.5zM285 211q0 -98 34.5 -150.5t118.5 -52.5q76 0 146.5 46t113.5 125t43 173q0 111 -52 190t-154 177q-111 -84 -180.5 -220.5t-69.5 -287.5zM575 1151q0 -86 43.5 -154.5t120.5 -142.5q78 74 129.5 186.5t51.5 233.5q0 168 -115 168q-59 0 -111.5 -40 t-85.5 -107.5t-33 -143.5z" />
<glyph horiz-adv-x="1257" d="M41 182q0 76 55.5 134.5t149.5 58.5q66 0 103.5 -31t37.5 -90q0 -70 -49 -126t-127 -77q14 -18 52 -30.5t79 -12.5q115 0 227.5 105.5t200.5 285t137 392.5q-76 -137 -182.5 -198t-224.5 -61q-147 0 -234.5 76t-87.5 228q0 160 89 308t248 241.5t355 93.5 q185 0 282 -95.5t97 -289.5q0 -246 -122.5 -509t-326.5 -438.5t-435 -175.5q-129 0 -226.5 55.5t-97.5 155.5zM475 782q0 -96 35 -142t96 -46q74 0 163 71.5t161 237.5q25 145 24 293q0 137 -31.5 189.5t-91.5 52.5q-104 0 -186 -108.5t-126 -263.5t-44 -284z" />
<glyph horiz-adv-x="903" d="M-84 -47q0 121 68.5 235.5t185.5 186t248 71.5q133 0 208.5 -66.5t75.5 -184.5q0 -121 -69.5 -237t-185 -187.5t-246.5 -71.5t-208 66.5t-77 187.5zM113 -70q0 -190 104 -190q86 0 151.5 74.5t101.5 186.5t36 216q0 188 -105 189q-86 0 -151.5 -75t-101 -185.5 t-35.5 -215.5z" />
<glyph horiz-adv-x="548" d="M-80 201l10 39q145 39 232.5 86t187.5 118h39l-227 -729h-195l176 561q-12 -6 -74.5 -30.5t-148.5 -44.5z" />
<glyph horiz-adv-x="731" d="M-166 -285l8 37l74 55q172 127 281.5 236t109.5 221q0 104 -100 105q-113 0 -205 -99l-29 23q55 66 141.5 109.5t190.5 43.5q90 0 143.5 -33.5t53.5 -101.5q0 -90 -84 -170t-238 -184q-80 -51 -121 -84q31 0 78 -8t64 -10q92 -18 139 -19q39 0 61.5 15.5t22.5 46.5 q0 25 -6 49l35 14q31 -55 30 -113q0 -61 -48 -101t-140 -40q-43 0 -137 17q-111 20 -187 20q-39 0 -67.5 -6t-69.5 -23z" />
<glyph horiz-adv-x="700" d="M-242 -432q121 12 236 57t187.5 120t72.5 171q0 59 -23.5 85t-64.5 32q-39 -20 -66 -21q-14 0 -25.5 6.5t-11.5 20.5q0 39 91 35q78 37 124 92t46 121q0 86 -91 86q-109 0 -219 -105l-28 25q55 61 145 107t201 46q82 0 133 -30.5t51 -89.5t-53 -114.5t-132 -94.5 t-153 -56q125 -2 199 -40.5t74 -122.5q0 -102 -110 -182.5t-271.5 -127.5t-311.5 -57v37z" />
<glyph horiz-adv-x="731" d="M-217 -268l10 37l709 677h39l-170 -593h108l-37 -121h-106l-55 -191h-156l55 191h-397zM-61 -147h274l104 364z" />
<glyph horiz-adv-x="665" d="M-233 -430q121 12 227 56t172.5 119t66.5 171q0 115 -118 115q-70 0 -146 -33l-24 22l135 414q12 2 33 2q37 0 102 -16q70 -16 113 -17q43 0 74.5 14.5t58.5 51.5l33 -18q-76 -197 -215 -197q-23 0 -53.5 6t-41.5 8q-72 18 -108 17l-80 -236q96 37 199 37q123 0 181 -43 t58 -119q0 -117 -107.5 -201.5t-262 -133t-297.5 -56.5v37z" />
<glyph horiz-adv-x="782" d="M-102 -61q0 180 117.5 341.5t286.5 269t314 134.5l11 -37q-139 -35 -269.5 -158.5t-201.5 -293.5q45 51 105.5 75.5t127.5 24.5q96 0 152.5 -50t56.5 -147q0 -102 -62.5 -194t-168 -148.5t-230.5 -56.5q-121 0 -180 59.5t-59 180.5zM92 -109q0 -84 19.5 -115.5 t60.5 -31.5q66 0 117 60.5t80.5 149.5t29.5 169q0 115 -80 115q-45 0 -101 -31t-95 -101q-31 -104 -31 -215z" />
<glyph horiz-adv-x="679" d="M-72 287q0 68 53.5 108.5t155.5 40.5q47 0 94.5 -8t59.5 -10q82 -18 141 -19q74 0 170 29l4 -37q10 12 -78 -90q-111 -127 -168 -201.5t-101 -164t-73 -205.5q-4 -16 -16 -73.5t-43 -90.5t-82 -33q-43 0 -62.5 21.5t-17.5 64.5q6 84 69.5 182.5t143.5 187.5t213 222 q129 129 156 160q-102 -51 -162.5 -74t-116.5 -23q-39 0 -108 19q-47 14 -74 14q-33 0 -56.5 -15.5t-23.5 -41.5q0 -33 26.5 -55.5t65.5 -28.5l-12 -37q-74 16 -116 56t-42 102z" />
<glyph horiz-adv-x="792" d="M-135 -123q0 104 94 187t246 141q-63 59 -96 109.5t-33 113.5q0 76 52 134.5t139 90t186 31.5q102 0 166.5 -37t64.5 -104q0 -86 -82 -152.5t-205 -126.5q61 -57 91 -89t52.5 -78t22.5 -99q0 -86 -59.5 -154.5t-157.5 -106.5t-211 -38q-117 0 -193.5 43t-76.5 135z M55 -137q0 -61 23.5 -92t77.5 -31q84 0 147.5 58.5t63.5 144.5q0 68 -34 120t-97 113q-80 -49 -130.5 -132t-50.5 -181zM264 485q0 -53 27.5 -99t77.5 -93q57 47 96 116.5t39 141.5q0 90 -80 90q-66 0 -113 -45t-47 -111z" />
<glyph horiz-adv-x="782" d="M-125 -461q129 31 254 137.5t199 257.5q-86 -84 -213 -84q-96 0 -153.5 51.5t-57.5 147.5q0 102 61.5 193.5t166 147.5t226.5 56q119 0 180.5 -58t61.5 -183q0 -170 -116.5 -322.5t-284.5 -254t-314 -126.5zM102 23q0 -115 82 -115q41 0 91.5 27.5t89.5 91.5 q38 112 38 227q0 86 -18 116.5t-57 30.5q-63 0 -115.5 -61t-81.5 -150.5t-29 -166.5z" />
<glyph horiz-adv-x="894" d="M-10 213q0 106 68.5 207.5t185.5 165t248 63.5q135 0 214 -60.5t79 -166.5t-70 -208.5t-185.5 -166t-246.5 -63.5q-135 0 -214 60t-79 169zM187 190q0 -166 112 -165q86 0 151.5 65.5t101.5 163.5t36 190q0 164 -113 164q-86 0 -151.5 -65.5t-101 -162.5t-35.5 -190z" />
<glyph horiz-adv-x="548" d="M-4 403l10 39q145 39 232.5 86t187.5 119h39l-207 -647h-194l155 479q-12 -6 -74.5 -30.5t-148.5 -45.5z" />
<glyph horiz-adv-x="729" d="M-68 0l9 37q27 18 67 45q168 113 272.5 209t104.5 196q0 84 -102 84q-111 0 -203 -98l-29 23q57 66 145.5 109.5t198.5 43.5q84 0 134.5 -28.5t50.5 -85.5q0 -80 -79 -150t-220 -158q-84 -53 -107 -69q43 0 127 -19q12 -2 55 -10t70 -8q39 0 61.5 15.5t22.5 45.5 q0 20 -8 37l35 14q33 -51 32 -100q0 -61 -49 -101t-141 -40q-41 0 -131 16q-106 20 -178 21q-39 0 -68 -6.5t-70 -22.5z" />
<glyph horiz-adv-x="694" d="M-145 -147q117 10 227.5 50t181 108.5t70.5 158.5q0 96 -88 106q-39 -20 -66 -20q-14 0 -25.5 6t-11.5 21q0 39 90 34q76 33 121 80t45 103q0 39 -23.5 57t-64.5 18q-111 0 -221 -104l-29 25q55 59 146.5 106t195.5 47q86 0 137.5 -27.5t51.5 -82.5q0 -80 -107.5 -144.5 t-226.5 -89.5q125 -2 198.5 -38t73.5 -113q0 -96 -106.5 -169t-263 -116t-305.5 -53v37z" />
<glyph horiz-adv-x="735" d="M-119 16l10 37l689 596h38l-149 -512h106l-34 -121h-107l-55 -190h-156l56 190h-398zM45 137h268l90 309z" />
<glyph horiz-adv-x="659" d="M-141 -145q100 4 205.5 45t175 109.5t69.5 154.5q0 102 -108 102q-68 0 -143 -33l-25 23l119 381q12 2 33 2q37 0 102 -16q70 -16 111 -17q43 0 74.5 14.5t60.5 51.5l32 -19q-37 -92 -91 -144t-122 -52q-35 0 -100 16q-74 16 -104 14l-64 -202q92 37 199 37 q115 0 171 -39t56 -113q0 -104 -105.5 -182t-257 -121t-288.5 -49v37z" />
<glyph horiz-adv-x="765" d="M-16 209q0 164 113.5 310.5t278.5 243.5t306 124l10 -37q-137 -35 -263 -145.5t-191 -262.5q88 96 223 97q92 0 147.5 -49.5t55.5 -137.5q0 -94 -60.5 -179t-163 -137t-223.5 -52q-233 0 -233 225zM178 164q0 -76 18.5 -105.5t55.5 -29.5q62 0 110 55t75.5 137t27.5 154 q0 106 -74 106q-43 0 -96 -30.5t-92 -102.5q-25 -88 -25 -184z" />
<glyph horiz-adv-x="686" d="M4 489q0 68 49.5 109t147.5 41q63 0 147 -18q10 -2 56.5 -10.5t93.5 -8.5q78 0 180 29l4 -37q-27 -31 -80 -84q-100 -106 -154.5 -171t-97.5 -144.5t-67 -180.5q-4 -16 -16.5 -73.5t-43 -90t-84.5 -32.5q-78 0 -77 73q0 109 105.5 234t297.5 301q104 92 154 145 q-102 -49 -166 -71.5t-119 -22.5q-39 0 -70.5 8.5t-35.5 10.5q-39 14 -68 14q-33 0 -55.5 -15.5t-22.5 -43.5q0 -31 23.5 -53.5t56.5 -28.5l-12 -37q-70 16 -108 56t-38 101z" />
<glyph horiz-adv-x="788" d="M-47 147q0 90 91 167t237 132q-66 49 -101.5 94.5t-35.5 104.5q0 70 53 125t140 86t185 31q102 0 166 -34t64 -101q0 -78 -79 -140.5t-200 -120.5q66 -49 97.5 -76.5t56 -66.5t24.5 -88q0 -76 -59 -139.5t-158.5 -100t-214.5 -36.5t-190.5 39.5t-75.5 123.5zM144 135 q0 -53 23.5 -81.5t76.5 -28.5q84 0 147.5 57t63.5 137q0 59 -36 103.5t-103 97.5q-76 -49 -124 -126t-48 -159zM332 688q0 -49 26.5 -88t77.5 -80q58 43 97 107.5t39 132.5q0 43 -19.5 63.5t-60.5 20.5q-66 0 -113 -46t-47 -110z" />
<glyph horiz-adv-x="765" d="M-33 -193q131 33 250 134.5t185 244.5q-45 -47 -101.5 -69.5t-115.5 -22.5q-92 0 -146.5 49t-54.5 138q0 96 59.5 181t161.5 136t221 51q113 0 175.5 -55t62.5 -166q0 -160 -111.5 -301t-273.5 -235.5t-301 -120.5zM183 256q0 -104 69 -104q43 0 94.5 28.5t89.5 95.5 q31 97 31 203q0 70 -18.5 97.5t-53.5 27.5q-61 0 -110 -55t-75.5 -137t-26.5 -156z" />
<glyph horiz-adv-x="894" d="M213 1108q0 106 68.5 207.5t185.5 165t248 63.5q135 0 214 -60.5t79 -166.5t-70 -208.5t-185.5 -166t-246.5 -63.5q-135 0 -214 60t-79 169zM410 1085q0 -166 112 -165q86 0 151.5 65.5t101.5 163.5t36 190q0 164 -113 164q-86 0 -151.5 -65.5t-101 -162.5t-35.5 -190z " />
<glyph horiz-adv-x="548" d="M219 1298l10 39q145 39 232.5 86t187.5 119h39l-207 -647h-194l155 479q-12 -6 -74.5 -30.5t-148.5 -45.5z" />
<glyph horiz-adv-x="729" d="M156 895l8 37q27 18 67 45q168 113 272.5 209t104.5 196q0 84 -102 84q-111 0 -203 -98l-29 23q57 66 145.5 109.5t198.5 43.5q84 0 134.5 -28.5t50.5 -85.5q0 -80 -79 -150t-220 -158q-84 -53 -107 -69q43 0 127 -19q12 -2 55.5 -10t69.5 -8q39 0 61.5 15.5t22.5 45.5 q0 20 -8 37l35 14q33 -51 33 -100q0 -61 -49.5 -101t-141.5 -40q-41 0 -131 16q-106 20 -178 21q-39 0 -67.5 -6.5t-69.5 -22.5z" />
<glyph horiz-adv-x="694" d="M78 711v37q117 10 227.5 50t181 108.5t70.5 158.5q0 96 -88 106q-39 -20 -66 -20q-14 0 -25 6t-11 21q0 39 90 34q76 33 121 80t45 103q0 39 -24 57t-64 18q-111 0 -222 -104l-28 25q55 59 146 106t196 47q86 0 137 -27.5t51 -82.5q0 -80 -107.5 -144.5t-226.5 -89.5 q125 -2 199 -38t74 -113q0 -96 -106.5 -169t-263.5 -116t-306 -53z" />
<glyph horiz-adv-x="735" d="M104 911l11 37l688 596h39l-150 -512h107l-35 -121h-107l-55 -190h-156l56 190h-398zM268 1032h269l90 309z" />
<glyph horiz-adv-x="659" d="M82 713v37q100 4 205.5 45t175 109.5t69.5 154.5q0 102 -108 102q-68 0 -143 -33l-25 23l119 381q12 2 33 2q37 0 102 -16q70 -16 111 -17q43 0 74.5 14.5t60.5 51.5l32 -19q-37 -92 -91 -144t-122 -52q-35 0 -100 16q-74 16 -104 14l-64 -202q92 37 199 37 q115 0 171 -39t56 -113q0 -104 -105.5 -182t-257 -121t-288.5 -49z" />
<glyph horiz-adv-x="765" d="M207 1104q0 164 113.5 310.5t278.5 243.5t306 124l10 -37q-137 -35 -263 -145.5t-191 -262.5q88 96 223 97q92 0 147.5 -49.5t55.5 -137.5q0 -94 -60.5 -179t-163 -137t-223.5 -52q-233 0 -233 225zM401 1059q0 -76 18.5 -105.5t55.5 -29.5q62 0 110 55t75.5 137 t27.5 154q0 106 -74 106q-43 0 -96 -30.5t-92 -102.5q-25 -88 -25 -184z" />
<glyph horiz-adv-x="686" d="M227 1384q0 68 49.5 109t147.5 41q63 0 147 -18q10 -2 56.5 -10.5t93.5 -8.5q78 0 180 29l4 -37q-27 -31 -80 -84q-100 -106 -154.5 -171t-97.5 -144.5t-67 -180.5q-4 -16 -16.5 -73.5t-43 -90t-84.5 -32.5q-78 0 -77 73q0 109 105.5 234t297.5 301q104 92 154 145 q-102 -49 -166 -71.5t-119 -22.5q-39 0 -70.5 8.5t-35.5 10.5q-39 14 -68 14q-33 0 -55.5 -15.5t-22.5 -43.5q0 -31 23.5 -53.5t56.5 -28.5l-12 -37q-70 16 -108 56t-38 101z" />
<glyph horiz-adv-x="788" d="M176 1042q0 90 91 167t237 132q-66 49 -101.5 94.5t-35.5 104.5q0 70 53 125t140 86t185 31q102 0 166 -34t64 -101q0 -78 -79 -140.5t-200 -120.5q66 -49 97.5 -76.5t56 -66.5t24.5 -88q0 -76 -59 -139.5t-158.5 -100t-214.5 -36.5t-190.5 39.5t-75.5 123.5zM367 1030 q0 -53 23.5 -81.5t76.5 -28.5q84 0 147.5 57t63.5 137q0 59 -36 103.5t-103 97.5q-76 -49 -124 -126t-48 -159zM555 1583q0 -49 26.5 -88t77.5 -80q58 43 97 107.5t39 132.5q0 43 -19.5 63.5t-60.5 20.5q-66 0 -113 -46t-47 -110z" />
<glyph horiz-adv-x="765" d="M190 702q131 33 250 134.5t185 244.5q-45 -47 -101.5 -69.5t-115.5 -22.5q-92 0 -146.5 49t-54.5 138q0 96 59.5 181t161.5 136t221 51q113 0 175.5 -55t62.5 -166q0 -160 -111.5 -301t-273.5 -235.5t-301 -120.5zM406 1151q0 -104 69 -104q43 0 94.5 28.5t89.5 95.5 q31 97 31 203q0 70 -18.5 97.5t-53.5 27.5q-61 0 -110 -55t-75.5 -137t-26.5 -156z" />
<glyph horiz-adv-x="894" d="M213 1108q0 106 68.5 207.5t185.5 165t248 63.5q135 0 214 -60.5t79 -166.5t-70 -208.5t-185.5 -166t-246.5 -63.5q-135 0 -214 60t-79 169zM410 1085q0 -166 112 -165q86 0 151.5 65.5t101.5 163.5t36 190q0 164 -113 164q-86 0 -151.5 -65.5t-101 -162.5t-35.5 -190z " />
<glyph horiz-adv-x="735" d="M104 911l11 37l688 596h39l-150 -512h107l-35 -121h-107l-55 -190h-156l56 190h-398zM268 1032h269l90 309z" />
<glyph horiz-adv-x="659" d="M82 713v37q100 4 205.5 45t175 109.5t69.5 154.5q0 102 -108 102q-68 0 -143 -33l-25 23l119 381q12 2 33 2q37 0 102 -16q70 -16 111 -17q43 0 74.5 14.5t60.5 51.5l32 -19q-37 -92 -91 -144t-122 -52q-35 0 -100 16q-74 16 -104 14l-64 -202q92 37 199 37 q115 0 171 -39t56 -113q0 -104 -105.5 -182t-257 -121t-288.5 -49z" />
<glyph horiz-adv-x="765" d="M207 1104q0 164 113.5 310.5t278.5 243.5t306 124l10 -37q-137 -35 -263 -145.5t-191 -262.5q88 96 223 97q92 0 147.5 -49.5t55.5 -137.5q0 -94 -60.5 -179t-163 -137t-223.5 -52q-233 0 -233 225zM401 1059q0 -76 18.5 -105.5t55.5 -29.5q62 0 110 55t75.5 137 t27.5 154q0 106 -74 106q-43 0 -96 -30.5t-92 -102.5q-25 -88 -25 -184z" />
<glyph horiz-adv-x="686" d="M227 1384q0 68 49.5 109t147.5 41q63 0 147 -18q10 -2 56.5 -10.5t93.5 -8.5q78 0 180 29l4 -37q-27 -31 -80 -84q-100 -106 -154.5 -171t-97.5 -144.5t-67 -180.5q-4 -16 -16.5 -73.5t-43 -90t-84.5 -32.5q-78 0 -77 73q0 109 105.5 234t297.5 301q104 92 154 145 q-102 -49 -166 -71.5t-119 -22.5q-39 0 -70.5 8.5t-35.5 10.5q-39 14 -68 14q-33 0 -55.5 -15.5t-22.5 -43.5q0 -31 23.5 -53.5t56.5 -28.5l-12 -37q-70 16 -108 56t-38 101z" />
<glyph horiz-adv-x="788" d="M176 1042q0 90 91 167t237 132q-66 49 -101.5 94.5t-35.5 104.5q0 70 53 125t140 86t185 31q102 0 166 -34t64 -101q0 -78 -79 -140.5t-200 -120.5q66 -49 97.5 -76.5t56 -66.5t24.5 -88q0 -76 -59 -139.5t-158.5 -100t-214.5 -36.5t-190.5 39.5t-75.5 123.5zM367 1030 q0 -53 23.5 -81.5t76.5 -28.5q84 0 147.5 57t63.5 137q0 59 -36 103.5t-103 97.5q-76 -49 -124 -126t-48 -159zM555 1583q0 -49 26.5 -88t77.5 -80q58 43 97 107.5t39 132.5q0 43 -19.5 63.5t-60.5 20.5q-66 0 -113 -46t-47 -110z" />
<glyph horiz-adv-x="765" d="M190 702q131 33 250 134.5t185 244.5q-45 -47 -101.5 -69.5t-115.5 -22.5q-92 0 -146.5 49t-54.5 138q0 96 59.5 181t161.5 136t221 51q113 0 175.5 -55t62.5 -166q0 -160 -111.5 -301t-273.5 -235.5t-301 -120.5zM406 1151q0 -104 69 -104q43 0 94.5 28.5t89.5 95.5 q31 97 31 203q0 70 -18.5 97.5t-53.5 27.5q-61 0 -110 -55t-75.5 -137t-26.5 -156z" />
<glyph horiz-adv-x="657" d="M41 135q8 78 48 171t118 247q82 162 132 274.5t85 233.5l37 -4q-23 -125 -33 -255t-18 -300t-15 -252q-4 -115 -57 -197t-162 -82q-72 0 -106.5 43t-28.5 121zM362 1339q0 82 57.5 137.5t141.5 55.5q66 0 102.5 -33t36.5 -92q0 -74 -60 -132t-140 -58q-66 0 -102 32.5 t-36 89.5z" />
<glyph horiz-adv-x="1001" d="M4 217q0 68 27.5 124t105.5 121.5t225 151.5q121 70 183.5 117t88 89t25.5 95q0 51 -35.5 88t-101.5 37q-43 0 -87 -14t-70 -39q47 -8 78.5 -40t31.5 -77q0 -55 -43 -94t-113 -39q-51 0 -83.5 32t-32.5 85q0 76 60.5 127t149.5 75.5t175 24.5q139 0 225 -58t86 -171 q0 -72 -34 -129t-102.5 -113.5t-195.5 -136.5q-145 -92 -198.5 -154.5t-53.5 -152.5q0 -63 48.5 -106.5t130.5 -43.5q45 0 92 15.5t73 46.5q-55 0 -98 37t-43 92q0 57 45 97t113 40q59 0 101 -34t42 -93q0 -123 -129 -184.5t-297 -61.5q-172 0 -280.5 63.5t-108.5 182.5z M549 1286q0 82 57.5 137.5t141.5 55.5q66 0 102.5 -33t36.5 -92q0 -74 -60.5 -132.5t-140.5 -58.5q-66 0 -101.5 33t-35.5 90z" />
<glyph horiz-adv-x="583" d="M156 700q0 82 57.5 137.5t141.5 55.5q66 0 102.5 -33t36.5 -92q0 -74 -60.5 -132.5t-140.5 -58.5q-66 0 -101.5 33t-35.5 90z" />
<glyph horiz-adv-x="876" d="M176 715q0 86 45 161t119.5 119t158.5 44q113 0 189 -75t76 -185q0 -86 -45 -161t-120 -119t-159 -44q-113 0 -188.5 75t-75.5 185z" />
<glyph horiz-adv-x="743" d="M178 572q0 98 155 190t392 148l-2 -27q-113 -33 -202 -89.5t-139 -118.5t-50 -110q6 2 27.5 4.5t58.5 2.5q94 0 248 -13l-15 -26q-119 10 -297 10q-96 0 -136 5t-40 24z" />
<glyph horiz-adv-x="743" d="M82 532l2 27q113 33 202 89.5t139 118.5t50 110q-6 -2 -27.5 -4.5t-58.5 -2.5q-94 0 -248 13l15 26q119 -10 297 -10q96 0 136 -5t40 -24q0 -98 -155 -190t-392 -148z" />
<glyph horiz-adv-x="712" d="M96 705l6 36h10q59 6 99.5 46t77 139.5t88.5 296.5q39 152 99 233.5t150.5 113.5t231.5 32l-10 -39q-49 -2 -77 -22.5t-52.5 -90.5t-59.5 -227q-41 -180 -107.5 -282.5t-159.5 -150t-234 -67.5q156 -35 223 -103.5t67 -183.5q0 -74 -24 -168q-47 -190 -47 -278 q0 -59 27.5 -80t88.5 -23l-10 -39q-203 -2 -286 55.5t-83 180.5q0 72 27 184q35 147 48.5 210t13.5 106q-2 61 -26 88.5t-71 32.5h-10z" />
<glyph horiz-adv-x="708" d="M-82 -152l10 39q49 2 77 22.5t52.5 90.5t59.5 227q41 180 107.5 282.5t159.5 150t234 67.5q-156 35 -223 103.5t-67 183.5q0 74 24 168q47 190 47 278q0 59 -27.5 80t-88.5 23l10 39q203 2 286 -55.5t83 -180.5q0 -72 -27 -184q-35 -147 -48.5 -210t-13.5 -106 q2 -61 26 -88.5t71 -32.5h10l-6 -36h-10q-59 -6 -99.5 -46t-77 -139.5t-88.5 -296.5q-39 -152 -99 -233.5t-150.5 -113.5t-231.5 -32z" />
<glyph horiz-adv-x="747" d="M20 -131l424 1712h471l-8 -39h-166l-407 -1634h166l-8 -39h-472z" />
<glyph horiz-adv-x="745" d="M-104 -131l8 39h166l407 1634h-166l8 39h472l-424 -1712h-471z" />
<glyph horiz-adv-x="1040" d="M164 666l45 170h739l-45 -170h-739z" />
<glyph horiz-adv-x="1417" d="M147 637l60 202h1126l-61 -202h-1125z" />
<glyph horiz-adv-x="1994" d="M143 639l60 202h1710l-62 -202h-1708z" />
<glyph horiz-adv-x="1218" d="M96 721l6 24q176 111 339 248t333 309h37q-62 -135 -187 -312t-221 -257q63 -76 120.5 -246t68.5 -301h-37q-106 166 -217 298t-242 237zM544 721l7 24q162 100 308 225.5t304 282.5h37q-51 -120 -163 -283t-198 -237q55 -68 105.5 -223.5t60.5 -274.5h-37 q-102 154 -202.5 273t-221.5 213z" />
<glyph horiz-adv-x="1216" d="M96 235q51 121 162 283t195 236q-53 70 -103.5 226.5t-60.5 272.5h37q104 -155 203.5 -274t220.5 -213l-6 -25q-164 -102 -311.5 -226t-299.5 -280h-37zM484 186q61 135 187 312.5t220 255.5q-63 76 -120.5 246.5t-67.5 301.5h37q108 -167 217.5 -299.5t242.5 -236.5 l-6 -25q-178 -113 -342 -249t-332 -306h-36z" />
<glyph horiz-adv-x="806" d="M96 721l6 24q176 111 339 248t333 309h37q-62 -135 -187 -312t-221 -257q63 -76 120.5 -246t68.5 -301h-37q-106 166 -217 298t-242 237z" />
<glyph horiz-adv-x="802" d="M70 186q66 137 189.5 313.5t217.5 254.5q-63 76 -120.5 246.5t-67.5 301.5h37q108 -167 218 -299.5t243 -236.5l-6 -25q-180 -111 -342 -247t-332 -308h-37z" />
<glyph horiz-adv-x="1038" d="M133 539l45 170h740l-46 -170h-739z" />
<glyph horiz-adv-x="1413" d="M116 515l60 202h1126l-61 -202h-1125z" />
<glyph horiz-adv-x="2002" d="M116 512l60 202h1710l-62 -202h-1708z" />
<glyph horiz-adv-x="731" d="M61 457q0 154 100.5 310.5t276.5 296.5t400 247l20 -27q-244 -170 -374 -376t-130 -474q0 -135 39 -256t121 -213l-27 -31q-213 121 -319.5 240t-106.5 283z" />
<glyph horiz-adv-x="731" d="M-117 -39q244 170 374 376t130 474q0 135 -39 256t-121 213l27 31q213 -121 319.5 -240t106.5 -283q0 -154 -100.5 -310.5t-276.5 -296.5t-400 -247z" />
<glyph horiz-adv-x="718" d="M59 606l7 37h10q68 0 101.5 23.5t56 79t63.5 200.5q2 10 6 23.5t8 27.5q41 143 102.5 221t156 108t245.5 30l-10 -39q-49 -2 -73.5 -21.5t-48.5 -82t-67 -216.5q-53 -193 -188 -280.5t-307 -91.5q147 -29 233 -84.5t86 -169.5q0 -39 -8 -77t-24 -95q-16 -61 -24.5 -99.5 t-8.5 -76.5q0 -59 26.5 -78t90.5 -21l-11 -39q-207 0 -306 45t-99 138q0 41 35 157q20 72 31.5 123t11.5 96q0 156 -84 162h-11z" />
<glyph horiz-adv-x="727" d="M-90 -119l10 39q49 2 74.5 21.5t49.5 83t65 215.5q53 203 191 292t316 93q-150 25 -240.5 81t-90.5 160q0 39 8 77t24 95q16 61 24.5 99.5t8.5 76.5q0 59 -26.5 80t-90.5 23l11 39q209 0 313.5 -44t104.5 -128q0 -57 -39 -195q-4 -12 -21.5 -80.5t-17.5 -115.5 q2 -72 23.5 -109t60.5 -41h10l-6 -37h-10q-72 0 -107 -26.5t-57.5 -91t-71.5 -248.5q-39 -143 -102.5 -220t-160.5 -108t-253 -31z" />
<glyph horiz-adv-x="745" d="M14 -111l365 1467h483l-8 -39h-166l-348 -1389h166l-8 -39h-484z" />
<glyph horiz-adv-x="745" d="M-106 -111l8 39h166l348 1389h-166l8 39h484l-365 -1467h-483z" />
<glyph horiz-adv-x="630" d="M23 94q0 82 57 137.5t141 55.5q66 0 102.5 -33t36.5 -92q0 -74 -60 -132.5t-140 -58.5q-66 0 -101.5 33t-35.5 90zM236 408q20 100 26 203.5t6 230.5q0 166 4 219q4 96 55.5 154.5t149.5 58.5q70 0 108 -37t38 -98q0 -72 -38 -149t-122 -218q-66 -104 -112 -192t-79 -179 z" />
<glyph horiz-adv-x="634" d="M18 90q0 63 31 130t101 177q76 123 126 221.5t89 221.5l36 -6q-41 -160 -41 -367q0 -53 5 -135l2 -99q0 -29 -5 -73q-4 -86 -59 -137.5t-139 -51.5q-68 0 -107 31t-39 88zM289 1081q0 82 57 137.5t141 55.5q66 0 103 -33t37 -92q0 -74 -60.5 -132.5t-140.5 -58.5 q-66 0 -101.5 33t-35.5 90z" />
<glyph horiz-adv-x="1003" d="M125 569q0 82 70.5 146.5t242.5 148.5q172 86 232.5 138.5t60.5 107.5q0 57 -42 91t-120 34q-45 0 -87 -12.5t-58 -34.5q45 -10 71.5 -41t26.5 -72q0 -57 -51 -93t-123 -36q-63 0 -101 29t-38 82q0 106 137 161.5t309 55.5q164 0 274.5 -48t110.5 -147 q0 -86 -80.5 -153.5t-279.5 -167.5q-162 -78 -221.5 -125t-59.5 -105q0 -49 38 -77.5t104 -28.5q39 0 72.5 12t50.5 33q-33 14 -57.5 43t-24.5 63q0 47 44 82t107 35q53 0 89 -25.5t36 -74.5q0 -68 -63.5 -115t-159.5 -69.5t-191 -22.5q-143 0 -231 47t-88 139zM199 94 q0 82 57 137.5t141 55.5q66 0 103 -33t37 -92q0 -74 -60.5 -132.5t-140.5 -58.5q-66 0 -101.5 33t-35.5 90z" />
<glyph horiz-adv-x="1017" d="M-23 166q0 57 36 103t106.5 89t202.5 109q119 57 178 94t86.5 73t27.5 81q0 53 -39.5 84.5t-99.5 31.5q-39 0 -74.5 -12t-54.5 -33q33 -14 57.5 -42.5t24.5 -63.5q0 -47 -44 -82t-108 -35q-55 0 -89.5 25.5t-34.5 75.5q0 68 65.5 114.5t162.5 69t193 22.5 q143 0 231.5 -51t88.5 -151q0 -82 -75 -149.5t-255 -160.5q-162 -82 -217 -131t-55 -106q0 -49 42 -80t118 -31q49 0 95 12.5t64 34.5q-45 10 -71.5 41t-26.5 72q0 57 51 93t123 36q63 0 101 -28.5t38 -82.5q0 -106 -142 -161.5t-323 -55.5q-164 0 -273.5 48.5t-109.5 146.5 zM492 1081q0 82 57 137.5t141 55.5q66 0 102.5 -33t36.5 -92q0 -74 -60 -132.5t-140 -58.5q-66 0 -101.5 33t-35.5 90z" />
<glyph horiz-adv-x="589" d="M141 622q0 82 57.5 137.5t141.5 55.5q66 0 102.5 -33t36.5 -92q0 -74 -60.5 -132.5t-140.5 -58.5q-66 0 -101.5 33t-35.5 90z" />
<glyph horiz-adv-x="882" d="M154 598q0 86 45 161t119.5 119t158.5 44q113 0 189 -75t76 -185q0 -86 -45 -161t-120 -119t-159 -44q-113 0 -188.5 75t-75.5 185z" />
<glyph horiz-adv-x="1234" d="M78 612l6 25q184 104 349 229t341 285h37q-66 -127 -197 -289t-229 -237q55 -74 104.5 -236t59.5 -287h-37q-98 156 -202.5 282t-231.5 228zM549 612l6 25q307 174 629 465h37q-53 -113 -170 -260.5t-207 -216.5q47 -66 90 -213.5t51 -259.5h-37q-96 147 -190 259.5 t-209 200.5z" />
<glyph horiz-adv-x="1230" d="M27 152q53 111 169.5 256t202.5 213q-47 68 -89 217t-48 264h37q96 -150 190.5 -263.5t208.5 -205.5l-6 -25q-166 -88 -316.5 -200.5t-312.5 -255.5h-36zM434 102q68 125 197 286t227 233q-55 76 -104 239.5t-58 290.5h37q98 -162 202.5 -289t233.5 -229l-6 -25 q-184 -100 -350 -224t-342 -282h-37z" />
<glyph horiz-adv-x="802" d="M80 618l6 25q182 100 347 225t343 283h37q-68 -127 -198 -288t-228 -232q57 -72 106.5 -238t57.5 -291h-37q-102 162 -205.5 289t-228.5 227z" />
<glyph horiz-adv-x="796" d="M2 102q66 125 195 285t227 234q-55 74 -104.5 239.5t-57.5 290.5h37q102 -164 205.5 -292t230.5 -226l-6 -25q-184 -102 -351 -226t-339 -280h-37z" />
<glyph horiz-adv-x="1110" d="M43 626q57 147 167 232.5t245 85.5q72 0 126 -20.5t128 -61.5q72 -39 120 -58.5t109 -19.5q135 0 209 119l29 -10q-57 -147 -167 -232.5t-245 -85.5q-71 0 -126.5 21.5t-127.5 62.5q-74 39 -121 57.5t-108 18.5q-135 0 -209 -119z" />
<glyph horiz-adv-x="1769" d="M104 495q0 250 124 480.5t352.5 375t523.5 144.5q299 0 475 -141.5t176 -417.5q0 -213 -100.5 -375t-247 -247t-275.5 -85q-161 1 -161 144q0 33 6 63q-57 -109 -128 -158t-161 -49q-109 0 -171 63.5t-62 186.5q0 143 77.5 303t203.5 266.5t263 106.5q74 0 108 -35 t38 -106l32 112q162 0 259 29l-218 -739q-12 -45 -12 -72t11.5 -38t35.5 -11q68 0 178.5 76.5t196.5 222t86 342.5q0 262 -167 392t-443 130t-495.5 -137t-341.5 -358.5t-122 -462.5q0 -205 90.5 -338t242 -194.5t337.5 -61.5q279 0 492 125l12 -27q-92 -61 -221 -97 t-281 -36q-199 0 -359.5 63.5t-257 203.5t-96.5 357zM717 481q0 -80 19.5 -116.5t64.5 -36.5q65 0 121.5 80.5t115.5 246.5l82 279l2 30q0 51 -18.5 85t-61.5 34q-70 0 -146.5 -91t-127.5 -231.5t-51 -279.5z" />
<glyph horiz-adv-x="905" d="M37 1073q172 66 323.5 175.5t245.5 230.5h37q20 -123 103 -231.5t217 -172.5l-17 -31q-121 25 -237.5 71t-208.5 102q-94 -52 -213 -97t-242 -76z" />
<glyph horiz-adv-x="1759" d="M67 380q0 250 124 480.5t352.5 375t523.5 144.5q299 0 475 -141.5t176 -417.5q0 -213 -100.5 -375t-247 -247t-275.5 -85q-161 1 -161 144q0 33 6 63q-57 -109 -128 -158t-161 -49q-109 0 -171 63.5t-62 186.5q0 143 77.5 303t203.5 266.5t263 106.5q74 0 108 -35 t38 -106l32 112q162 0 259 29l-218 -739q-12 -45 -12 -72t11.5 -38t35.5 -11q68 0 178.5 76.5t196.5 222t86 342.5q0 262 -167 392t-443 130t-495.5 -137t-341.5 -358.5t-122 -462.5q0 -205 90.5 -338t242 -194.5t337.5 -61.5q279 0 492 125l12 -27q-92 -61 -221 -97 t-281 -36q-199 0 -359.5 63.5t-257 203.5t-96.5 357zM680 366q0 -80 19.5 -116.5t64.5 -36.5q65 0 121.5 80.5t115.5 246.5l82 279l2 30q0 51 -18.5 85t-61.5 34q-70 0 -146.5 -91t-127.5 -231.5t-51 -279.5z" />
<glyph horiz-adv-x="1693" d="M35 369q0 164 136 281.5t366 168.5q-92 33 -136.5 87.5t-44.5 117.5q0 78 57.5 134t148.5 86t190 30q123 0 189.5 -44t66.5 -118q0 -66 -48.5 -101.5t-109.5 -35.5l-2 37q49 0 82 26.5t33 69.5q0 45 -40 74.5t-108 29.5q-72 0 -134.5 -34.5t-99 -99t-36.5 -146.5 q0 -57 20 -101q72 16 121 17q68 0 68 -43q0 -20 -18.5 -31.5t-45.5 -11.5q-35 0 -76 18.5t-51 22.5q-90 -35 -146.5 -126t-56.5 -202q0 -160 119 -244t322 -84q137 0 269 38t220 121t88 210q0 94 -51 156l-110 -45q-39 -14 -228 -95q-100 -43 -140 -75.5t-40 -79.5 q0 -45 29.5 -66.5t72.5 -21.5q70 0 107 43l20 -27q-53 -53 -139 -53q-94 0 -157.5 52t-63.5 155q0 117 82 187.5t250 139.5l133 56q186 76 282 119q111 47 161 99t50 122q0 74 -47 113.5t-131 39.5q-51 0 -72 -12q88 -37 89 -115q0 -61 -55.5 -101t-129.5 -40 q-66 0 -106.5 31.5t-40.5 85.5q0 49 35.5 88t91.5 61q76 33 182 33q129 0 209 -63.5t80 -196.5q0 -252 -314 -391l-65 -29q63 -78 63 -190q0 -137 -93 -258t-266 -194t-402 -73q-180 0 -322.5 46t-224.5 136.5t-82 215.5z" />
<glyph horiz-adv-x="1439" d="M55 442q0 242 133.5 425.5t347.5 281.5t445 98q74 0 201 -4l168 -2q135 0 198 4l-10 -39q-96 -4 -135 -35.5t-60 -103.5l-241 -903q-76 -279 -223.5 -414t-380.5 -135q-131 0 -209 38t-78 120q0 68 48 110.5t130 42.5q66 0 108 -30.5t42 -85.5q0 -96 -109 -154 q16 -6 53 -6q68 0 110 39t70.5 108.5t67.5 202.5q-352 0 -514 116.5t-162 325.5zM256 596q-2 -10 168 -25.5t381 -15.5q-31 -141 -45.5 -266t-14.5 -195q0 -37 5 -37l288 1082q-6 0 -43 -73t-84 -187.5t-86 -239.5q-143 0 -274 -8t-212 -18.5t-83 -16.5z" />
<glyph horiz-adv-x="1327" d="M82 -29q0 72 61.5 123t143.5 51q61 0 100 -29.5t39 -78.5q0 -53 -47 -100.5t-107 -65.5q16 -10 59.5 -19.5t92.5 -9.5q121 0 204 51.5t83 133.5q0 43 -27 81.5t-88 81.5l-375 261q-70 53 -100.5 94t-30.5 98q0 106 85 175t245 138q-37 37 -52.5 75t-15.5 81 q0 115 89 193.5t222.5 117.5t258.5 39q66 0 133 -11t116 -34q90 -43 91 -121q0 -72 -61.5 -123t-145.5 -51q-63 0 -99 30t-36 79q0 55 45 101t104 65q-14 10 -62.5 19t-99.5 9q-121 -2 -196.5 -55t-75.5 -129q0 -45 26.5 -83t86.5 -81l374 -260q70 -51 101.5 -92t31.5 -100 q0 -195 -331 -314q35 -39 50 -75.5t15 -81.5q0 -113 -89 -192t-221 -118t-257 -39q-66 0 -134.5 11.5t-117.5 33.5q-88 43 -88 121zM330 793q0 -29 18.5 -53.5t63.5 -59.5l413 -285q37 -27 74 -59q113 63 113 139q0 29 -18.5 54.5t-61.5 58.5l-414 284q-25 18 -76 60 q-113 -63 -112 -139z" />
<glyph horiz-adv-x="1134" d="M236 1073q172 66 323.5 175.5t243.5 230.5h37q23 -125 104.5 -232.5t216.5 -171.5l-18 -31q-119 25 -237 71t-210 102q-90 -50 -209.5 -96t-242.5 -77z" />
<glyph horiz-adv-x="1187" d="M55 473q0 162 99.5 318.5t271.5 257t379 102.5l86 303h41l-88 -303q72 -4 118 -24.5t89 -53.5q16 -12 32 -12q43 0 78 82h47q-35 -100 -112 -369h-47q4 74 4 90q0 51 -8.5 83t-28.5 69q-27 45 -75 69.5t-107 28.5l-277 -969q6 -2 21 -2q59 0 121.5 21.5t111.5 64.5 q53 45 88 100.5t82 162.5h47q-86 -307 -102 -390h-47q2 12 2 33q0 51 -33 51q-16 0 -41 -12q-70 -35 -130.5 -55.5t-133.5 -24.5l-88 -303h-41l86 303q-217 4 -331 99.5t-114 279.5zM389 401q0 -100 34 -163.5t95 -83.5l275 958q-117 -12 -209 -130t-143.5 -280.5 t-51.5 -300.5z" />
<glyph horiz-adv-x="1331" d="M168 316l119 118q-57 96 -58 213q0 111 60 213l-121 119l174 174l119 -119q94 59 215 60q117 0 213 -60l121 121l174 -174l-121 -121q59 -102 59 -213q0 -113 -59 -215l119 -118l-174 -175l-121 121q-96 -57 -211 -57q-123 0 -213 57l-119 -118zM442 647q0 -110 69 -181 t167 -71t166.5 71t68.5 181q0 111 -68.5 182.5t-166.5 71.5t-167 -71.5t-69 -182.5z" />
<glyph horiz-adv-x="1280" d="M18 315q0 88 43 149.5t115 61.5q68 0 107 -48t39 -126q0 -72 -28 -133t-69 -127q53 -41 131 -59l138 493q-133 96 -206 180.5t-73 192.5q0 123 70.5 207t180 124t232.5 44l54 194h43l-54 -194q82 -4 136 -14l57 208h43l-59 -217q90 -23 176 -82q61 -39 98 -101t37 -138 q0 -78 -43 -132.5t-115 -54.5q-67 0 -106 48.5t-39 126.5q0 63 26.5 119.5t67.5 115.5q-47 37 -115 55l-127 -463q113 -78 178.5 -129t111.5 -119.5t46 -148.5q0 -127 -82 -210t-207 -122t-260 -45l-59 -217h-43l59 217q-70 0 -135 11l-63 -228h-43l65 236q-96 23 -192 86 q-63 41 -99.5 102.5t-36.5 136.5zM397 25q43 -8 109 -9h29l108 398q-29 23 -115 88zM504 1063q0 -86 88 -174l94 338q-82 -10 -132 -53.5t-50 -110.5zM580 20q201 23 200 173q0 94 -102 190zM627 858q43 -37 114 -88l123 449q-57 12 -127 12h-8z" />
<glyph horiz-adv-x="1255" d="M45 506l12 41h146q18 92 47 164h-150l13 41h153q98 219 277.5 370.5t400.5 151.5q80 0 129 -19.5t86 -50.5q41 -35 62.5 -82t21.5 -98q0 -82 -51 -136t-123 -54q-57 0 -92 34.5t-35 92.5q0 72 51 127t125 83q-10 23 -48 39.5t-81 16.5q-119 0 -228.5 -135.5 t-174.5 -339.5h370l-34 -41h-351q-29 -104 -36 -164h251l-36 -41h-224q-12 -86 -12 -172q0 -166 38 -242t120 -76q43 0 88 13.5t69 33.5q-35 18 -56 55.5t-21 82.5q0 84 53 141t127 57q61 0 94 -35.5t33 -95.5q0 -72 -49 -131t-127 -102q-119 -63 -267 -64 q-219 0 -322.5 107.5t-103.5 347.5q0 41 7 80h-152z" />
<glyph horiz-adv-x="1318" d="M96 487q57 147 167 232.5t245 85.5q72 0 126 -20.5t128 -61.5q72 -39 120 -58.5t109 -19.5q135 0 209 119l29 -10q-57 -147 -167 -232.5t-245 -85.5q-71 0 -126.5 21.5t-127.5 62.5q-74 39 -121 57.5t-108 18.5q-135 0 -209 -119z" />
<glyph horiz-adv-x="1320" d="M-57 -8q0 39 53 84t149 65q41 82 75 168t71 219l20 80h-198l12 41h199l28 111q2 12 17 53h-201l12 41h203q76 195 223.5 307.5t372.5 112.5q111 0 175.5 -53.5t64.5 -133.5q0 -90 -52.5 -147t-132.5 -57q-63 0 -101 32.5t-38 94.5q0 75 45 129.5t117 70.5 q-6 14 -29.5 23.5t-56.5 9.5q-94 0 -146.5 -63.5t-89.5 -198.5l-33 -127h168l-12 -41h-166l-12 -43q-18 -70 -43 -121h289l-13 -41h-297q-39 -68 -87 -118t-126 -115q-72 -61 -123 -112.5t-96 -117.5q182 166 363 166q63 0 115.5 -12t115.5 -35q39 -12 79 -22.5t73 -10.5 q39 0 64.5 18.5t25.5 53.5q0 86 -135 115l10 37q109 -18 181.5 -73.5t72.5 -152.5q0 -70 -38 -129t-106.5 -94t-154.5 -35q-74 0 -131 21.5t-135 64.5q-74 43 -132.5 64.5t-129.5 21.5q-82 0 -154 -30q-39 -70 -93.5 -106t-105.5 -36q-14 0 -20 4.5t-6 16.5z" />
<glyph horiz-adv-x="1470" d="M156 897l57 170q35 102 99.5 154.5t168.5 52.5t168 -50t100.5 -152.5t67.5 -285.5l17 -94q57 141 129.5 258t140.5 193q51 59 114.5 95t129.5 36q82 0 129 -54.5t47 -132.5q0 -86 -51.5 -142t-131.5 -56q-63 0 -97 37t-34 100q0 68 43 123t111 78q-8 6 -35 6 q-72 0 -145 -68q-72 -66 -157 -190.5t-169 -327.5h264l-10 -41h-272q0 -2 -4 -10l-39 -154h276l-10 -41h-277l-47 -184q-18 -78 -18 -100q0 -43 29.5 -57.5t109.5 -18.5l-10 -41q-113 6 -328 6q-223 0 -329 -6l10 41q76 4 112.5 17.5t58 48t40.5 110.5l47 184h-293l10 41 h293l31 113l-6 51h-279l10 41h262q-29 215 -68.5 334t-98.5 119q-27 0 -45.5 -19.5t-32.5 -60.5l-43 -123h-45z" />
</font>
</defs>
</svg>
